<?xml version="1.0" encoding="utf-8"?>
<!-- Generator: Adobe Illustrator 24.0.1, SVG Export Plug-In . SVG Version: 6.00 Build 0)  -->
<svg version="1.1" id="Layer_1" xmlns="http://www.w3.org/2000/svg" xmlns:xlink="http://www.w3.org/1999/xlink" x="0px" y="0px"
	 viewBox="0 0 76.8 81.1" style="enable-background:new 0 0 76.8 81.1;" xml:space="preserve">
<style type="text/css">
	.st0{display:none;}
	.st1{display:inline;}
	.st2{fill:none;stroke:#FFFFFF;stroke-width:2;stroke-miterlimit:10;}
	.st3{display:inline;fill:none;stroke:#000000;stroke-width:2;stroke-miterlimit:10;}
	.st4{fill:#D3D3D3;}
	.st5{fill:#F8F8F8;}
	.st6{display:inline;fill:none;stroke:#FFFFFF;stroke-width:2;stroke-miterlimit:10;}
</style>
<g class="st0">
	<rect x="73.3" y="-13.7" class="st1" width="20" height="430"/>
	<rect x="-789.7" y="-13.7" class="st1" width="1023" height="20"/>
	<rect x="-807.6" y="-40.4" class="st1" width="1058.4" height="519.8"/>
</g>
<g class="st0">
	<g class="st1">
		<polyline points="36.9,23.2 40.7,12.5 65.4,24 		"/>
		<circle cx="56.5" cy="62.6" r="7.7"/>
		<circle cx="33.3" cy="62.6" r="7.7"/>
		<polygon points="27.5,25.2 22.5,10.3 9.4,10.3 9.4,6.3 25.4,6.3 31.3,23.9 		"/>
		<polygon points="17.9,21.9 73.3,21.9 62.7,51.5 27.1,51.5 		"/>
		<line class="st2" x1="30.2" y1="30.5" x2="62.1" y2="30.5"/>
		<line class="st2" x1="30.2" y1="37" x2="51" y2="37"/>
	</g>
</g>
<g class="st0">
	<g class="st1">
		<g>
			<polygon points="25.4,6.3 9.4,6.3 9.4,10.3 22.5,10.3 27,23.6 30.7,22.3 			"/>
		</g>
		<g>
			<path d="M56.5,56.9c3.1,0,5.7,2.5,5.7,5.7s-2.5,5.7-5.7,5.7s-5.7-2.5-5.7-5.7S53.4,56.9,56.5,56.9 M56.5,54.9
				c-4.2,0-7.7,3.4-7.7,7.7s3.4,7.7,7.7,7.7s7.7-3.4,7.7-7.7S60.7,54.9,56.5,54.9L56.5,54.9z"/>
		</g>
		<g>
			<path d="M33.3,56.9c3.1,0,5.7,2.5,5.7,5.7s-2.5,5.7-5.7,5.7s-5.7-2.5-5.7-5.7S30.2,56.9,33.3,56.9 M33.3,54.9
				c-4.2,0-7.7,3.4-7.7,7.7s3.4,7.7,7.7,7.7c4.2,0,7.7-3.4,7.7-7.7S37.6,54.9,33.3,54.9L33.3,54.9z"/>
		</g>
		<g>
			<path d="M70.4,23.9l-9.1,25.6H28.6l-8-25.6H70.4 M73.3,21.9H17.9l9.2,29.6h35.6L73.3,21.9L73.3,21.9z"/>
		</g>
	</g>
	<polyline class="st3" points="36.9,23.2 40.7,12.5 63.1,23 	"/>
	<g class="st1">
		<path d="M56.5,56.9c3.1,0,5.7,2.5,5.7,5.7s-2.5,5.7-5.7,5.7s-5.7-2.5-5.7-5.7C50.8,59.5,53.4,56.9,56.5,56.9 M56.5,54.9
			c-4.2,0-7.7,3.4-7.7,7.7c0,4.2,3.4,7.7,7.7,7.7c4.2,0,7.7-3.4,7.7-7.7C64.2,58.4,60.7,54.9,56.5,54.9L56.5,54.9z"/>
	</g>
	<line class="st3" x1="30.2" y1="30.5" x2="62.1" y2="30.5"/>
	<line class="st3" x1="30.2" y1="37" x2="51" y2="37"/>
</g>
<polygon class="st4" points="20.5,23.6 10.5,23.6 21.3,58.3 63,58.3 75.3,23.6 63.5,23.6 32,23.6 25.4,23.6 19.3,5.4 0.6,5.4 
	0.6,10.1 15.9,10.1 "/>
<polygon class="st4" points="63.5,23.6 36.5,11.1 32,23.6 "/>
<polygon class="st5" points="38.8,15.6 55.9,23.6 35.9,23.6 "/>
<polygon class="st5" points="61.1,27.1 61.1,27.1 61.1,27.1 69.3,27.1 59.6,54.3 24.9,54.3 16.4,27.1 "/>
<path class="st4" d="M55.3,80.3c5,0,9-4,9-9l0,0l0,0c0-5-4-9-9-9s-9,4-9,9l0,0l0,0C46.3,76.3,50.3,80.3,55.3,80.3z"/>
<path class="st5" d="M55.3,66.3c2.8,0,5,2.2,5,5s-2.2,5-5,5s-5-2.2-5-5C50.3,68.6,52.6,66.3,55.3,66.3z"/>
<path class="st4" d="M28.5,80.3c5,0,9-4,9-9l0,0l0,0c0-5-4-9-9-9s-9,4-9,9l0,0l0,0C19.5,76.3,23.6,80.3,28.5,80.3z"/>
<path class="st5" d="M28.5,66.3c2.8,0,5,2.2,5,5s-2.2,5-5,5s-5-2.2-5-5C23.5,68.6,25.8,66.3,28.5,66.3z"/>
<rect x="24.9" y="32.5" class="st4" width="37.4" height="2.3"/>
<rect x="24.9" y="40.2" class="st4" width="24.3" height="2.3"/>
<g class="st0">
	<path class="st1" d="M41.3,6.3c-17.7,0-32,14.3-32,32s14.3,32,32,32s32-14.3,32-32S59,6.3,41.3,6.3L41.3,6.3z"/>
	<polygon class="st1" points="37.5,23 41.2,13.1 62.4,23.1 	"/>
	<g class="st1">
		<polygon points="25.4,6.3 9.4,6.3 9.4,10.3 22.5,10.3 27,23.6 30.7,22.3 		"/>
	</g>
	<g class="st1">
		<circle cx="56.5" cy="62.6" r="6.7"/>
		<g>
			<path d="M56.5,56.9c3.1,0,5.7,2.5,5.7,5.7s-2.5,5.7-5.7,5.7s-5.7-2.5-5.7-5.7S53.4,56.9,56.5,56.9 M56.5,54.9
				c-4.2,0-7.7,3.4-7.7,7.7s3.4,7.7,7.7,7.7s7.7-3.4,7.7-7.7S60.7,54.9,56.5,54.9L56.5,54.9z"/>
		</g>
	</g>
	<g class="st1">
		<circle cx="33.3" cy="62.6" r="6.7"/>
		<g>
			<path d="M33.3,56.9c3.1,0,5.7,2.5,5.7,5.7s-2.5,5.7-5.7,5.7s-5.7-2.5-5.7-5.7S30.2,56.9,33.3,56.9 M33.3,54.9
				c-4.2,0-7.7,3.4-7.7,7.7s3.4,7.7,7.7,7.7c4.2,0,7.7-3.4,7.7-7.7S37.6,54.9,33.3,54.9L33.3,54.9z"/>
		</g>
	</g>
	<g class="st1">
		<polygon points="27.8,50.5 19.2,22.9 71.8,22.9 62,50.5 		"/>
		<g>
			<path d="M70.4,23.9l-9.1,25.6H28.6l-8-25.6H70.4 M73.3,21.9H17.9l9.2,29.6h35.6L73.3,21.9L73.3,21.9z"/>
		</g>
	</g>
	<polyline class="st3" points="36.9,23.2 40.7,12.5 63.1,23 	"/>
	<g class="st1">
		<circle cx="56.5" cy="62.6" r="6.7"/>
		<g>
			<path d="M56.5,56.9c3.1,0,5.7,2.5,5.7,5.7s-2.5,5.7-5.7,5.7s-5.7-2.5-5.7-5.7C50.8,59.5,53.4,56.9,56.5,56.9 M56.5,54.9
				c-4.2,0-7.7,3.4-7.7,7.7c0,4.2,3.4,7.7,7.7,7.7c4.2,0,7.7-3.4,7.7-7.7C64.2,58.4,60.7,54.9,56.5,54.9L56.5,54.9z"/>
		</g>
	</g>
	<line class="st6" x1="30.2" y1="30.5" x2="62.1" y2="30.5"/>
	<line class="st6" x1="30.2" y1="37" x2="51" y2="37"/>
</g>
<g class="st0">
	<g class="st1">
		<g>
			<path d="M41.3,6.3c-17.7,0-32,14.3-32,32s14.3,32,32,32s32-14.3,32-32S59,6.3,41.3,6.3L41.3,6.3z"/>
		</g>
		<g>
			<polygon points="37.5,23 41.2,13 62.4,23.1 			"/>
		</g>
		<g>
			<polygon points="25.4,6.3 9.4,6.3 9.4,10.3 22.5,10.3 27,23.6 30.7,22.3 			"/>
		</g>
		<g>
			<g>
				<circle cx="56.5" cy="62.6" r="6.7"/>
			</g>
			<g>
				<g>
					<path d="M56.5,56.9c3.1,0,5.7,2.5,5.7,5.7c0,3.1-2.5,5.7-5.7,5.7s-5.7-2.5-5.7-5.7C50.8,59.5,53.4,56.9,56.5,56.9 M56.5,54.9
						c-4.2,0-7.7,3.4-7.7,7.7s3.4,7.7,7.7,7.7s7.7-3.4,7.7-7.7S60.7,54.9,56.5,54.9L56.5,54.9z"/>
				</g>
			</g>
		</g>
		<g>
			<g>
				<circle cx="33.3" cy="62.6" r="6.7"/>
			</g>
			<g>
				<g>
					<path d="M33.3,56.9c3.1,0,5.7,2.5,5.7,5.7c0,3.1-2.5,5.7-5.7,5.7s-5.7-2.5-5.7-5.7C27.6,59.5,30.2,56.9,33.3,56.9 M33.3,54.9
						c-4.2,0-7.7,3.4-7.7,7.7s3.4,7.7,7.7,7.7c4.2,0,7.7-3.4,7.7-7.7S37.6,54.9,33.3,54.9L33.3,54.9z"/>
				</g>
			</g>
		</g>
		<g>
			<g>
				<polygon points="27.8,50.5 19.2,22.9 71.8,22.9 62,50.5 				"/>
			</g>
			<g>
				<g>
					<path d="M70.4,23.9l-9.1,25.6H28.6l-8-25.6H70.4 M73.3,21.9H17.9l9.2,29.6h35.6L73.3,21.9L73.3,21.9z"/>
				</g>
			</g>
		</g>
		<g>
			<polygon points="62.7,23.9 41.3,13.9 37.8,23.5 35.9,22.8 40.1,11.2 63.5,22.1 			"/>
		</g>
		<g>
			<g>
				<circle cx="56.5" cy="62.6" r="6.7"/>
			</g>
			<g>
				<g>
					<path d="M56.5,56.9c3.1,0,5.7,2.5,5.7,5.7s-2.5,5.7-5.7,5.7s-5.7-2.5-5.7-5.7S53.4,56.9,56.5,56.9 M56.5,54.9
						c-4.2,0-7.7,3.4-7.7,7.7c0,4.2,3.4,7.7,7.7,7.7c4.2,0,7.7-3.4,7.7-7.7C64.2,58.4,60.7,54.9,56.5,54.9L56.5,54.9z"/>
				</g>
			</g>
		</g>
		<g>
			<rect x="30.2" y="29.5" width="31.9" height="2"/>
		</g>
		<g>
			<rect x="30.2" y="36" width="20.8" height="2"/>
		</g>
	</g>
</g>
<g class="st0">
	<g class="st1">
		<circle cx="56.5" cy="62.6" r="7.7"/>
		<circle cx="33.3" cy="62.6" r="7.7"/>
		<path d="M26.4,21.9h-8.5l9.2,29.6h35.6l10.6-29.6H60.8l-20.1-9.3l-3.4,9.3h-6.7L25.4,6.3h-16v4h13.1L26.4,21.9z M30.2,29.5h31.9v2
			H30.2V29.5z M30.2,36H51v2H30.2V36z"/>
	</g>
</g>
<g class="st0">
	<g class="st1">
		<polygon points="27.5,25.2 22.5,10.3 9.4,10.3 9.4,6.3 25.4,6.3 31.3,23.9 		"/>
		<polygon points="17.9,21.9 73.3,21.9 62.7,51.5 27.1,51.5 		"/>
		<path d="M45.6,42.6v-5.3C44,36.8,42.8,36,42,35.1c-0.8-1-1.2-2.1-1.2-3.5c0-1.4,0.4-2.6,1.3-3.5c0.9-0.9,2-1.5,3.5-1.6v-1.3h1.8
			v1.3c1.3,0.2,2.4,0.6,3.2,1.4s1.3,1.8,1.5,3.1L49,31.3c-0.2-1-0.7-1.7-1.5-2v5c2,0.6,3.4,1.3,4.2,2.1c0.7,0.9,1.1,2,1.1,3.4
			c0,1.5-0.5,2.8-1.4,3.9c-0.9,1.1-2.2,1.7-3.9,1.9V48h-1.8v-2.3c-1.5-0.2-2.7-0.7-3.6-1.6c-0.9-0.9-1.5-2.2-1.8-3.9l3.3-0.4
			c0.1,0.7,0.4,1.3,0.8,1.8C44.8,42,45.2,42.4,45.6,42.6z M45.6,29.2c-0.5,0.2-0.9,0.5-1.2,0.9S44,31,44,31.5s0.1,0.9,0.4,1.3
			c0.3,0.4,0.7,0.7,1.2,0.9C45.6,33.7,45.6,29.2,45.6,29.2z M47.5,42.8c0.6-0.1,1.2-0.4,1.6-0.9c0.4-0.5,0.6-1,0.6-1.7
			c0-0.6-0.2-1.1-0.5-1.5s-0.9-0.7-1.7-0.9C47.5,37.8,47.5,42.8,47.5,42.8z"/>
		<circle cx="56.5" cy="62.6" r="7.7"/>
		<circle cx="33.3" cy="62.6" r="7.7"/>
	</g>
</g>
<g class="st0">
	<g class="st1">
		<path d="M45.7,41.9v-4.8c-1.5-0.4-2.6-1.1-3.3-1.9c-0.7-0.9-1-1.9-1-3.1c0-1.2,0.4-2.3,1.2-3.1c0.8-0.8,1.8-1.3,3.1-1.5v-1.1h1.7
			v1.1c1.2,0.1,2.2,0.6,2.9,1.2s1.2,1.6,1.4,2.7l-2.9,0.4c-0.2-0.9-0.6-1.5-1.4-1.8v4.5c1.8,0.5,3.1,1.1,3.7,1.9c0.7,0.8,1,1.8,1,3
			c0,1.4-0.4,2.5-1.2,3.5c-0.8,0.9-2,1.5-3.5,1.7v2.1h-1.7v-2.1c-1.3-0.2-2.4-0.6-3.2-1.5c-0.8-0.8-1.3-2-1.6-3.5l3-0.3
			c0.1,0.6,0.3,1.1,0.7,1.6C45,41.4,45.3,41.7,45.7,41.9z M45.7,30c-0.4,0.2-0.8,0.4-1.1,0.8s-0.4,0.8-0.4,1.2s0.1,0.8,0.4,1.1
			c0.2,0.3,0.6,0.6,1.1,0.8V30z M47.4,42.1c0.6-0.1,1-0.4,1.4-0.8c0.4-0.4,0.5-0.9,0.5-1.5c0-0.5-0.2-0.9-0.5-1.3
			c-0.3-0.4-0.8-0.7-1.5-0.8L47.4,42.1L47.4,42.1z"/>
	</g>
	<g class="st1">
		<polygon points="25.4,6.3 9.4,6.3 9.4,10.3 22.5,10.3 27,23.6 30.7,22.3 		"/>
	</g>
	<g class="st1">
		<path d="M56.5,56.9c3.1,0,5.7,2.5,5.7,5.7s-2.5,5.7-5.7,5.7s-5.7-2.5-5.7-5.7C50.8,59.5,53.4,56.9,56.5,56.9 M56.5,54.9
			c-4.2,0-7.7,3.4-7.7,7.7c0,4.2,3.4,7.7,7.7,7.7c4.2,0,7.7-3.4,7.7-7.7C64.2,58.4,60.7,54.9,56.5,54.9L56.5,54.9z"/>
	</g>
	<g class="st1">
		<path d="M33.3,56.9c3.1,0,5.7,2.5,5.7,5.7s-2.5,5.7-5.7,5.7s-5.7-2.5-5.7-5.7C27.6,59.5,30.2,56.9,33.3,56.9 M33.3,54.9
			c-4.2,0-7.7,3.4-7.7,7.7c0,4.2,3.4,7.7,7.7,7.7c4.2,0,7.7-3.4,7.7-7.7S37.6,54.9,33.3,54.9L33.3,54.9z"/>
	</g>
	<g class="st1">
		<path d="M70.4,23.9l-9.1,25.6H28.6l-8-25.6H70.4 M73.3,21.9H17.9l9.2,29.6h35.6L73.3,21.9L73.3,21.9z"/>
	</g>
</g>
<g class="st0">
	<g class="st1">
		<path d="M44.6,41c-0.3-0.4-0.6-1-0.7-1.6l-3,0.3c0.2,1.5,0.8,2.7,1.6,3.5s1.9,1.3,3.2,1.5v2.1h1.7v-2.1c1.5-0.2,2.6-0.8,3.5-1.7
			c0.8-0.9,1.2-2.1,1.2-3.5c0-1.2-0.3-2.2-1-3s-1.9-1.4-3.7-1.9V30c0.7,0.3,1.2,0.9,1.4,1.8l2.9-0.4c-0.2-1.1-0.7-2-1.4-2.7
			s-1.7-1.1-2.9-1.2v-1.1h-1.7v1.1c-1.3,0.1-2.3,0.6-3.1,1.5c-0.8,0.8-1.2,1.9-1.2,3.1s0.3,2.3,1,3.1c0.7,0.9,1.8,1.5,3.3,1.9v4.8
			C45.3,41.7,45,41.4,44.6,41z M47.4,37.7c0.7,0.2,1.2,0.5,1.5,0.8c0.3,0.4,0.5,0.8,0.5,1.3c0,0.6-0.2,1.1-0.5,1.5
			c-0.4,0.4-0.8,0.7-1.4,0.8L47.4,37.7L47.4,37.7z M44.6,33.1c-0.2-0.3-0.4-0.7-0.4-1.1s0.1-0.8,0.4-1.2c0.3-0.4,0.6-0.6,1.1-0.8
			v3.9C45.2,33.7,44.9,33.4,44.6,33.1z"/>
		<path d="M26.4,21.9h-8.5l9.2,29.6h35.6l10.6-29.6H30.6L25.4,6.3h-16v4h13.1L26.4,21.9z M61.3,49.5H28.6l-8-25.6h49.8L61.3,49.5z"
			/>
		<path d="M64.2,62.6c0-4.2-3.4-7.7-7.7-7.7c-4.2,0-7.7,3.4-7.7,7.7s3.4,7.7,7.7,7.7C60.7,70.3,64.2,66.9,64.2,62.6z M56.5,68.3
			c-3.1,0-5.7-2.5-5.7-5.7c0-3.1,2.5-5.7,5.7-5.7s5.7,2.5,5.7,5.7C62.2,65.7,59.6,68.3,56.5,68.3z"/>
		<path d="M41,62.6c0-4.2-3.4-7.7-7.7-7.7c-4.2,0-7.7,3.4-7.7,7.7s3.4,7.7,7.7,7.7C37.6,70.3,41,66.9,41,62.6z M27.6,62.6
			c0-3.1,2.5-5.7,5.7-5.7s5.7,2.5,5.7,5.7c0,3.1-2.5,5.7-5.7,5.7C30.2,68.3,27.6,65.7,27.6,62.6z"/>
	</g>
</g>
<g class="st0">
	<path class="st1" d="M41.3,6.3c-17.7,0-32,14.3-32,32s14.3,32,32,32s32-14.3,32-32S59,6.3,41.3,6.3L41.3,6.3z"/>
	<g class="st1">
		<polygon points="27.8,50.5 19.2,22.9 71.8,22.9 62,50.5 		"/>
		<g>
			<path d="M70.4,23.9l-9.1,25.6H28.6l-8-25.6H70.4 M73.3,21.9H17.9l9.2,29.6h35.6L73.3,21.9L73.3,21.9z"/>
		</g>
	</g>
	<g class="st1">
		<path d="M45.7,41.9v-4.8c-1.5-0.4-2.6-1.1-3.3-1.9c-0.7-0.9-1-1.9-1-3.1c0-1.2,0.4-2.3,1.2-3.1c0.8-0.8,1.8-1.3,3.1-1.5v-1.1h1.7
			v1.1c1.2,0.1,2.2,0.6,2.9,1.2s1.2,1.6,1.4,2.7l-2.9,0.4c-0.2-0.9-0.6-1.5-1.4-1.8v4.5c1.8,0.5,3.1,1.1,3.7,1.9c0.7,0.8,1,1.8,1,3
			c0,1.4-0.4,2.5-1.2,3.5c-0.8,0.9-2,1.5-3.5,1.7v2.1h-1.7v-2.1c-1.3-0.2-2.4-0.6-3.2-1.5c-0.8-0.8-1.3-2-1.6-3.5l3-0.3
			c0.1,0.6,0.3,1.1,0.7,1.6C45,41.4,45.3,41.7,45.7,41.9z M45.7,30c-0.4,0.2-0.8,0.4-1.1,0.8s-0.4,0.8-0.4,1.2s0.1,0.8,0.4,1.1
			c0.2,0.3,0.6,0.6,1.1,0.8V30z M47.4,42.1c0.6-0.1,1-0.4,1.4-0.8c0.4-0.4,0.5-0.9,0.5-1.5c0-0.5-0.2-0.9-0.5-1.3
			c-0.3-0.4-0.8-0.7-1.5-0.8L47.4,42.1L47.4,42.1z"/>
	</g>
	<g class="st1">
		<polygon points="25.4,6.3 9.4,6.3 9.4,10.3 22.5,10.3 27,23.6 30.7,22.3 		"/>
	</g>
	<g class="st1">
		<circle cx="56.5" cy="62.6" r="6.7"/>
		<path d="M56.5,56.9c3.1,0,5.7,2.5,5.7,5.7s-2.5,5.7-5.7,5.7s-5.7-2.5-5.7-5.7C50.8,59.5,53.4,56.9,56.5,56.9 M56.5,54.9
			c-4.2,0-7.7,3.4-7.7,7.7c0,4.2,3.4,7.7,7.7,7.7c4.2,0,7.7-3.4,7.7-7.7C64.2,58.4,60.7,54.9,56.5,54.9L56.5,54.9z"/>
	</g>
	<g class="st1">
		<circle cx="33.3" cy="62.6" r="6.7"/>
		<path d="M33.3,56.9c3.1,0,5.7,2.5,5.7,5.7s-2.5,5.7-5.7,5.7s-5.7-2.5-5.7-5.7C27.6,59.5,30.2,56.9,33.3,56.9 M33.3,54.9
			c-4.2,0-7.7,3.4-7.7,7.7c0,4.2,3.4,7.7,7.7,7.7c4.2,0,7.7-3.4,7.7-7.7S37.6,54.9,33.3,54.9L33.3,54.9z"/>
	</g>
</g>
<g class="st0">
	<g class="st1">
		<path d="M26.4,21.9h-8.5l9.2,29.6h35.6l10.6-29.6H30.6L25.4,6.3h-16v4h13.1L26.4,21.9z M42,35.1c-0.8-1-1.2-2.1-1.2-3.5
			c0-1.4,0.4-2.6,1.3-3.5c0.9-0.9,2-1.5,3.5-1.6v-1.3h1.8v1.3c1.3,0.2,2.4,0.6,3.2,1.4s1.3,1.8,1.5,3.1L49,31.3
			c-0.2-1-0.7-1.7-1.5-2v5c2,0.6,3.4,1.3,4.2,2.1c0.7,0.9,1.1,2,1.1,3.4c0,1.5-0.5,2.8-1.4,3.9c-0.9,1.1-2.2,1.7-3.9,1.9V48h-1.8
			v-2.3c-1.5-0.2-2.7-0.7-3.6-1.6c-0.9-0.9-1.5-2.2-1.8-3.9l3.3-0.4c0.1,0.7,0.4,1.3,0.8,1.8c0.4,0.5,0.8,0.8,1.2,1.1v-5.3
			C44,36.8,42.8,36,42,35.1z"/>
		<path d="M45.6,29.2c-0.5,0.2-0.9,0.5-1.2,0.9S44,31,44,31.5s0.1,0.9,0.4,1.3c0.3,0.4,0.7,0.7,1.2,0.9
			C45.6,33.7,45.6,29.2,45.6,29.2z"/>
		<path d="M49.6,40.2c0-0.6-0.2-1.1-0.5-1.5s-0.9-0.7-1.7-0.9v5c0.6-0.1,1.2-0.4,1.6-0.9C49.4,41.4,49.6,40.8,49.6,40.2z"/>
		<circle cx="56.5" cy="62.6" r="7.7"/>
		<circle cx="33.3" cy="62.6" r="7.7"/>
	</g>
</g>
<g class="st0">
	<g class="st1">
		<polygon points="26.6,25.8 21.8,11.5 9.3,11.5 9.3,7.7 24.6,7.7 30.3,24.6 		"/>
		<polygon points="17.4,22.6 70.3,22.6 60.2,50.9 26.2,50.9 		"/>
		<circle cx="54.3" cy="61.5" r="7.3"/>
		<circle cx="32.2" cy="61.5" r="7.3"/>
		<g>
			<path d="M68.1,46.3H36.8c-2.9,0-5.2-2.3-5.2-5.2v-8.6c0-2.9,2.3-5.2,5.2-5.2h31.4c2.9,0,5.2,2.3,5.2,5.2v8.6
				C73.3,43.9,71,46.3,68.1,46.3z"/>
			<g>
				<path d="M37.7,39c0.5,0.3,1.4,0.6,2.2,0.6c0.9,0,1.4-0.4,1.4-1s-0.4-0.9-1.5-1.3c-1.5-0.5-2.5-1.3-2.5-2.6
					c0-1.5,1.3-2.7,3.4-2.7c1,0,1.8,0.2,2.3,0.5l-0.5,1.6c-0.4-0.2-1-0.4-1.9-0.4s-1.3,0.4-1.3,0.9c0,0.6,0.5,0.8,1.7,1.3
					c1.6,0.6,2.3,1.4,2.3,2.7c0,1.5-1.2,2.8-3.6,2.8c-1,0-2-0.3-2.5-0.5L37.7,39z"/>
				<path d="M47,32.7v1.9h1.4v1.5H47v2.3c0,0.8,0.2,1.1,0.8,1.1c0.3,0,0.5,0,0.6-0.1v1.5c-0.3,0.1-0.7,0.2-1.3,0.2
					c-0.7,0-1.2-0.2-1.5-0.6c-0.4-0.4-0.6-1-0.6-1.9v-2.7h-0.9v-1.5H45V33L47,32.7z"/>
				<path d="M55.9,37.7c0,2.4-1.7,3.5-3.4,3.5c-1.9,0-3.4-1.2-3.4-3.3s1.4-3.4,3.5-3.4C54.6,34.4,55.9,35.8,55.9,37.7z M51.2,37.8
					c0,1.1,0.5,2,1.3,2s1.3-0.8,1.3-2c0-1-0.4-2-1.3-2C51.6,35.9,51.2,36.9,51.2,37.8z"/>
				<path d="M57.2,36.7c0-1,0-1.6-0.1-2.1h1.7l0.1,1.2H59c0.3-0.9,1.1-1.3,1.8-1.3c0.2,0,0.3,0,0.4,0v1.9c-0.1,0-0.3-0.1-0.5-0.1
					c-0.7,0-1.2,0.4-1.4,1c0,0.1,0,0.3,0,0.5v3.3h-2L57.2,36.7L57.2,36.7z"/>
				<path d="M63.7,38.5c0.1,0.8,0.9,1.2,1.8,1.2c0.7,0,1.2-0.1,1.8-0.3l0.3,1.4c-0.7,0.3-1.5,0.4-2.3,0.4c-2.2,0-3.5-1.3-3.5-3.3
					c0-1.6,1-3.5,3.3-3.5c2.1,0,2.9,1.6,2.9,3.2c0,0.3,0,0.7-0.1,0.8L63.7,38.5L63.7,38.5z M66,37.1c0-0.5-0.2-1.3-1.1-1.3
					c-0.8,0-1.2,0.8-1.2,1.3H66z"/>
			</g>
		</g>
	</g>
</g>
<g class="st0">
	<g class="st1">
		<g>
			<polygon points="25.4,6.3 9.4,6.3 9.4,10.3 22.5,10.3 27,23.6 30.7,22.3 			"/>
		</g>
		<g>
			<path d="M56.5,56.9c3.1,0,5.7,2.5,5.7,5.7s-2.5,5.7-5.7,5.7s-5.7-2.5-5.7-5.7C50.8,59.5,53.4,56.9,56.5,56.9 M56.5,54.9
				c-4.2,0-7.7,3.4-7.7,7.7c0,4.2,3.4,7.7,7.7,7.7s7.7-3.4,7.7-7.7C64.2,58.4,60.7,54.9,56.5,54.9L56.5,54.9z"/>
		</g>
		<g>
			<path d="M33.3,56.9c3.1,0,5.7,2.5,5.7,5.7s-2.5,5.7-5.7,5.7s-5.7-2.5-5.7-5.7C27.6,59.5,30.2,56.9,33.3,56.9 M33.3,54.9
				c-4.2,0-7.7,3.4-7.7,7.7c0,4.2,3.4,7.7,7.7,7.7c4.2,0,7.7-3.4,7.7-7.7S37.6,54.9,33.3,54.9L33.3,54.9z"/>
		</g>
		<g>
			<path d="M70.4,23.9l-9.1,25.6H28.6l-8-25.6H70.4 M73.3,21.9H17.9l9.2,29.6h35.6L73.3,21.9L73.3,21.9z"/>
		</g>
	</g>
	<g class="st1">
		<g>
			<path d="M36.8,45.3c-2.3,0-4.2-1.9-4.2-4.2v-8.6c0-2.3,1.9-4.2,4.2-4.2h31.4c2.3,0,4.2,1.9,4.2,4.2v8.6c0,2.3-1.9,4.2-4.2,4.2
				H36.8z"/>
			<path d="M68.1,29.3c1.8,0,3.2,1.4,3.2,3.2v8.6c0,1.8-1.4,3.2-3.2,3.2H36.8c-1.8,0-3.2-1.4-3.2-3.2v-8.6c0-1.8,1.4-3.2,3.2-3.2
				H68.1 M68.1,27.3H36.8c-2.9,0-5.2,2.3-5.2,5.2v8.6c0,2.9,2.3,5.2,5.2,5.2h31.4c2.9,0,5.2-2.3,5.2-5.2v-8.6
				C73.3,29.7,71,27.3,68.1,27.3L68.1,27.3z"/>
		</g>
		<g>
			<g>
				<path d="M40.8,32c-2.1,0-3.4,1.2-3.4,2.7c0,1.3,1,2.1,2.5,2.6c1.1,0.4,1.5,0.7,1.5,1.3s-0.5,1-1.4,1s-1.7-0.3-2.2-0.6l-0.4,1.7
					c0.5,0.3,1.5,0.5,2.5,0.5c2.5,0,3.6-1.3,3.6-2.8c0-1.3-0.7-2.1-2.3-2.7c-1.2-0.4-1.7-0.7-1.7-1.3c0-0.5,0.4-0.9,1.3-0.9
					c0.9,0,1.5,0.3,1.9,0.4l0.5-1.6C42.6,32.2,41.8,32,40.8,32L40.8,32z"/>
			</g>
			<g>
				<path d="M47,32.7l-2,0.5v1.4h-0.9v1.5H45v2.7c0,0.9,0.2,1.5,0.6,1.9c0.3,0.3,0.9,0.6,1.5,0.6s1-0.1,1.3-0.2v-1.5
					c-0.1,0-0.3,0.1-0.6,0.1c-0.6,0-0.8-0.4-0.8-1.1v-2.3h1.4v-1.5H47V32.7L47,32.7z"/>
			</g>
			<g>
				<path d="M52.6,34.4c-2.1,0-3.5,1.3-3.5,3.4c0,2.1,1.5,3.3,3.4,3.3c1.7,0,3.4-1.1,3.4-3.5C55.9,35.8,54.6,34.4,52.6,34.4
					L52.6,34.4z M52.6,39.8c-0.9,0-1.3-0.8-1.3-2c0-1,0.4-2,1.3-2c0.9,0,1.3,1,1.3,2C53.8,39,53.3,39.8,52.6,39.8L52.6,39.8z"/>
			</g>
			<g>
				<path d="M60.7,34.4c-0.6,0-1.4,0.4-1.8,1.3h-0.1l-0.1-1.2H57c0,0.6,0.1,1.2,0.1,2.1V41h2v-3.3c0-0.2,0-0.3,0-0.5
					c0.1-0.6,0.6-1,1.4-1c0.2,0,0.4,0,0.5,0.1v-1.9C61,34.4,60.9,34.4,60.7,34.4L60.7,34.4z"/>
			</g>
			<g>
				<path d="M65,34.4c-2.3,0-3.3,1.8-3.3,3.5c0,2,1.3,3.3,3.5,3.3c0.9,0,1.7-0.1,2.3-0.4l-0.3-1.4c-0.5,0.2-1.1,0.3-1.8,0.3
					c-0.9,0-1.8-0.4-1.8-1.2h4.2c0-0.1,0.1-0.5,0.1-0.8C67.9,36.1,67.1,34.4,65,34.4L65,34.4z M63.7,37.1c0.1-0.5,0.4-1.3,1.2-1.3
					c0.9,0,1.1,0.8,1.1,1.3H63.7L63.7,37.1z"/>
			</g>
		</g>
	</g>
</g>
<g class="st0">
	<g class="st1">
		<path d="M26.4,21.9h-8.5l9.2,29.6h35.6l10.6-29.6H30.6L25.4,6.3h-16v4h13.1L26.4,21.9z M70.4,23.9l-9.1,25.6H28.6l-8-25.6H70.4z"
			/>
		<path d="M64.2,62.6c0-4.2-3.4-7.7-7.7-7.7s-7.7,3.4-7.7,7.7c0,4.2,3.4,7.7,7.7,7.7S64.2,66.9,64.2,62.6z M50.8,62.6
			c0-3.1,2.5-5.7,5.7-5.7s5.7,2.5,5.7,5.7c0,3.1-2.5,5.7-5.7,5.7S50.8,65.7,50.8,62.6z"/>
		<path d="M41,62.6c0-4.2-3.4-7.7-7.7-7.7c-4.2,0-7.7,3.4-7.7,7.7c0,4.2,3.4,7.7,7.7,7.7S41,66.9,41,62.6z M27.6,62.6
			c0-3.1,2.5-5.7,5.7-5.7s5.7,2.5,5.7,5.7c0,3.1-2.5,5.7-5.7,5.7C30.2,68.3,27.6,65.7,27.6,62.6z"/>
		<path d="M44.9,26.8l-11,19h21.9L44.9,26.8z M44.9,30.8l7.5,13h-15L44.9,30.8z"/>
	</g>
</g>
<g class="st0">
	<path class="st1" d="M41.3,6.3c-17.7,0-32,14.3-32,32s14.3,32,32,32s32-14.3,32-32S59,6.3,41.3,6.3L41.3,6.3z"/>
	<g class="st1">
		<polygon points="25.4,6.3 9.4,6.3 9.4,10.3 22.5,10.3 27,23.6 30.7,22.3 		"/>
	</g>
	<g class="st1">
		<circle cx="56.5" cy="62.6" r="6.7"/>
		<path d="M56.5,56.9c3.1,0,5.7,2.5,5.7,5.7s-2.5,5.7-5.7,5.7s-5.7-2.5-5.7-5.7C50.8,59.5,53.4,56.9,56.5,56.9 M56.5,54.9
			c-4.2,0-7.7,3.4-7.7,7.7c0,4.2,3.4,7.7,7.7,7.7s7.7-3.4,7.7-7.7C64.2,58.4,60.7,54.9,56.5,54.9L56.5,54.9z"/>
	</g>
	<g class="st1">
		<circle cx="33.3" cy="62.6" r="6.7"/>
		<path d="M33.3,56.9c3.1,0,5.7,2.5,5.7,5.7s-2.5,5.7-5.7,5.7s-5.7-2.5-5.7-5.7C27.6,59.5,30.2,56.9,33.3,56.9 M33.3,54.9
			c-4.2,0-7.7,3.4-7.7,7.7c0,4.2,3.4,7.7,7.7,7.7c4.2,0,7.7-3.4,7.7-7.7S37.6,54.9,33.3,54.9L33.3,54.9z"/>
	</g>
	<g class="st1">
		<polygon points="27.8,50.5 19.2,22.9 71.8,22.9 62,50.5 		"/>
		<g>
			<path d="M70.4,23.9l-9.1,25.6H28.6l-8-25.6H70.4 M73.3,21.9H17.9l9.2,29.6h35.6L73.3,21.9L73.3,21.9z"/>
		</g>
	</g>
	<g class="st1">
		<path d="M36.8,45.3c-2.3,0-4.2-1.9-4.2-4.2v-8.6c0-2.3,1.9-4.2,4.2-4.2h31.4c2.3,0,4.2,1.9,4.2,4.2v8.6c0,2.3-1.9,4.2-4.2,4.2
			H36.8z"/>
		<path d="M68.1,29.3c1.8,0,3.2,1.4,3.2,3.2v8.6c0,1.8-1.4,3.2-3.2,3.2H36.8c-1.8,0-3.2-1.4-3.2-3.2v-8.6c0-1.8,1.4-3.2,3.2-3.2
			H68.1 M68.1,27.3H36.8c-2.9,0-5.2,2.3-5.2,5.2v8.6c0,2.9,2.3,5.2,5.2,5.2h31.4c2.9,0,5.2-2.3,5.2-5.2v-8.6
			C73.3,29.7,71,27.3,68.1,27.3L68.1,27.3z"/>
	</g>
	<g class="st1">
		<path d="M40.8,32c-2.1,0-3.4,1.2-3.4,2.7c0,1.3,1,2.1,2.5,2.6c1.1,0.4,1.5,0.7,1.5,1.3s-0.5,1-1.4,1s-1.7-0.3-2.2-0.6l-0.4,1.7
			c0.5,0.3,1.5,0.5,2.5,0.5c2.5,0,3.6-1.3,3.6-2.8c0-1.3-0.7-2.1-2.3-2.7c-1.2-0.4-1.7-0.7-1.7-1.3c0-0.5,0.4-0.9,1.3-0.9
			c0.9,0,1.5,0.3,1.9,0.4l0.5-1.6C42.6,32.2,41.8,32,40.8,32L40.8,32z"/>
	</g>
	<g class="st1">
		<path d="M47,32.7l-2,0.5v1.4h-0.9v1.5H45v2.7c0,0.9,0.2,1.5,0.6,1.9c0.3,0.3,0.9,0.6,1.5,0.6s1-0.1,1.3-0.2v-1.5
			c-0.1,0-0.3,0.1-0.6,0.1c-0.6,0-0.8-0.4-0.8-1.1v-2.3h1.4v-1.5H47V32.7L47,32.7z"/>
	</g>
	<g class="st1">
		<path d="M52.6,34.4c-2.1,0-3.5,1.3-3.5,3.4c0,2.1,1.5,3.3,3.4,3.3c1.7,0,3.4-1.1,3.4-3.5C55.9,35.8,54.6,34.4,52.6,34.4L52.6,34.4
			z M52.6,39.8c-0.9,0-1.3-0.8-1.3-2c0-1,0.4-2,1.3-2c0.9,0,1.3,1,1.3,2C53.8,39,53.3,39.8,52.6,39.8L52.6,39.8z"/>
	</g>
	<g class="st1">
		<path d="M60.7,34.4c-0.6,0-1.4,0.4-1.8,1.3h-0.1l-0.1-1.2H57c0,0.6,0.1,1.2,0.1,2.1V41h2v-3.3c0-0.2,0-0.3,0-0.5
			c0.1-0.6,0.6-1,1.4-1c0.2,0,0.4,0,0.5,0.1v-1.9C61,34.4,60.9,34.4,60.7,34.4L60.7,34.4z"/>
	</g>
	<g class="st1">
		<path d="M65,34.4c-2.3,0-3.3,1.8-3.3,3.5c0,2,1.3,3.3,3.5,3.3c0.9,0,1.7-0.1,2.3-0.4l-0.3-1.4c-0.5,0.2-1.1,0.3-1.8,0.3
			c-0.9,0-1.8-0.4-1.8-1.2h4.2c0-0.1,0.1-0.5,0.1-0.8C67.9,36.1,67.1,34.4,65,34.4L65,34.4z M63.7,37.1c0.1-0.5,0.4-1.3,1.2-1.3
			c0.9,0,1.1,0.8,1.1,1.3H63.7L63.7,37.1z"/>
	</g>
</g>
<g class="st0">
	<g class="st1">
		<path d="M25.6,22.6h-8.2l8.8,28.3h34l10.1-28.3H29.6l-5-14.9H9.3v3.8h12.5L25.6,22.6z M56,34.1c2.1,0,2.9,1.6,2.9,3.2
			c0,0.3,0,0.7-0.1,0.8h-4.2c0.1,0.8,0.9,1.2,1.8,1.2c0.7,0,1.2-0.1,1.8-0.3l0.3,1.4c-0.7,0.3-1.5,0.4-2.3,0.4
			c-2.2,0-3.5-1.3-3.5-3.3C52.7,35.9,53.8,34.1,56,34.1z M49.9,34.2l0.1,1.2l0,0c0.3-0.9,1.1-1.3,1.8-1.3c0.2,0,0.3,0,0.4,0V36
			c-0.2,0-0.4,0-0.6,0c-0.7,0-1.2,0.4-1.4,1c0,0.1,0,0.3,0,0.5v3.3h-2v-4.4c0-1,0-1.6-0.1-2.1L49.9,34.2L49.9,34.2z M43.6,34.1
			c2,0,3.3,1.4,3.3,3.3c0,2.4-1.7,3.5-3.4,3.5c-1.9,0-3.4-1.2-3.4-3.3C40.1,35.4,41.5,34.1,43.6,34.1z M35.1,34.2H36v-1.4l2-0.5v1.9
			h1.4v1.5H38V38c0,0.8,0.2,1.1,0.8,1.1c0.3,0,0.5,0,0.6-0.1v1.5c-0.3,0.1-0.7,0.2-1.3,0.2c-0.7,0-1.2-0.2-1.5-0.6
			c-0.4-0.4-0.6-1-0.6-1.9v-2.7h-0.9C35.1,35.7,35.1,34.2,35.1,34.2z M30.9,37c-1.5-0.5-2.5-1.3-2.5-2.6c0-1.5,1.3-2.7,3.4-2.7
			c1,0,1.8,0.2,2.3,0.5l-0.5,1.6c-0.4-0.2-1-0.4-1.9-0.4s-1.3,0.4-1.3,0.9c0,0.6,0.5,0.8,1.7,1.3c1.6,0.6,2.3,1.4,2.3,2.7
			c0,1.5-1.2,2.8-3.6,2.8c-1,0-2-0.3-2.5-0.5l0.4-1.7c0.5,0.3,1.4,0.6,2.2,0.6c0.9,0,1.4-0.4,1.4-1C32.4,37.7,32,37.4,30.9,37z"/>
		<circle cx="54.3" cy="61.5" r="7.3"/>
		<circle cx="32.2" cy="61.5" r="7.3"/>
		<path d="M43.6,39.4c0.8,0,1.3-0.8,1.3-2c0-1-0.4-2-1.3-2c-1,0-1.3,1-1.3,2C42.2,38.6,42.7,39.4,43.6,39.4z"/>
		<path d="M55.9,35.4c-0.8,0-1.2,0.8-1.2,1.3H57C57,36.3,56.8,35.4,55.9,35.4z"/>
	</g>
</g>
<g class="st0">
	<g class="st1">
		<polygon points="27.5,25.2 22.5,10.3 9.4,10.3 9.4,6.3 25.4,6.3 31.3,23.9 		"/>
		<polygon points="17.9,21.9 73.3,21.9 62.7,51.5 27.1,51.5 		"/>
		<circle cx="56.5" cy="62.6" r="7.7"/>
		<circle cx="33.3" cy="62.6" r="7.7"/>
		<g>
			<g>
				<polygon points="49.6,44.9 33.8,28.9 49.6,12.9 64.8,12.9 49,28.9 64.8,44.9 				"/>
			</g>
		</g>
	</g>
</g>
<g class="st0">
	<g class="st1">
		<g>
			<polygon points="25.4,6.3 9.4,6.3 9.4,10.3 22.5,10.3 27,23.6 30.7,22.3 			"/>
		</g>
		<g>
			<path d="M56.5,56.9c3.1,0,5.7,2.5,5.7,5.7s-2.5,5.7-5.7,5.7c-3.1,0-5.7-2.5-5.7-5.7C50.8,59.5,53.4,56.9,56.5,56.9 M56.5,54.9
				c-4.2,0-7.7,3.4-7.7,7.7c0,4.2,3.4,7.7,7.7,7.7c4.2,0,7.7-3.4,7.7-7.7C64.2,58.4,60.7,54.9,56.5,54.9L56.5,54.9z"/>
		</g>
		<g>
			<path d="M33.3,56.9c3.1,0,5.7,2.5,5.7,5.7s-2.5,5.7-5.7,5.7s-5.7-2.5-5.7-5.7C27.6,59.5,30.2,56.9,33.3,56.9 M33.3,54.9
				c-4.2,0-7.7,3.4-7.7,7.7c0,4.2,3.4,7.7,7.7,7.7c4.2,0,7.7-3.4,7.7-7.7S37.6,54.9,33.3,54.9L33.3,54.9z"/>
		</g>
		<g>
			<path d="M70.4,23.9l-9.1,25.6H28.6l-8-25.6H70.4 M73.3,21.9H17.9l9.2,29.6h35.6L73.3,21.9L73.3,21.9z"/>
		</g>
	</g>
	<g class="st1">
		<polygon points="47,43.9 32.2,28.9 47,13.9 59.4,13.9 44.6,28.9 59.4,43.9 		"/>
		<path d="M57,14.9L44.5,27.5l-1.4,1.4l1.4,1.4L57,42.9h-9.5l-13.8-14l13.8-14L57,14.9 M61.8,12.9H46.6l-15.8,16l15.8,16h15.2
			L46,28.9L61.8,12.9L61.8,12.9z"/>
	</g>
</g>
<g class="st0">
	<g class="st1">
		<path d="M26.4,21.9h-8.5l9.2,29.6h35.6l10.6-29.6H52.9l8.9-9H46.6l-8.9,9h-7.1L25.4,6.3h-16v4h13.1L26.4,21.9z M47.5,14.9H57
			L44.5,27.5l-1.4,1.4l1.4,1.4L57,42.9h-9.5l-13.8-14L47.5,14.9z M30.8,28.9l15.8,16h15.2L46,28.9l5-5h19.5l-9.1,25.6H28.6l-8-25.6
			h15.2L30.8,28.9z"/>
		<path d="M64.2,62.6c0-4.2-3.4-7.7-7.7-7.7c-4.2,0-7.7,3.4-7.7,7.7c0,4.2,3.4,7.7,7.7,7.7S64.2,66.9,64.2,62.6z M50.8,62.6
			c0-3.1,2.5-5.7,5.7-5.7s5.7,2.5,5.7,5.7c0,3.1-2.5,5.7-5.7,5.7C53.4,68.3,50.8,65.7,50.8,62.6z"/>
		<path d="M41,62.6c0-4.2-3.4-7.7-7.7-7.7c-4.2,0-7.7,3.4-7.7,7.7c0,4.2,3.4,7.7,7.7,7.7S41,66.9,41,62.6z M27.6,62.6
			c0-3.1,2.5-5.7,5.7-5.7s5.7,2.5,5.7,5.7c0,3.1-2.5,5.7-5.7,5.7S27.6,65.7,27.6,62.6z"/>
	</g>
</g>
<g class="st0">
	<path class="st1" d="M41.3,6.3c-17.7,0-32,14.3-32,32s14.3,32,32,32s32-14.3,32-32S59,6.3,41.3,6.3L41.3,6.3z"/>
	<g class="st1">
		<polygon points="25.4,6.3 9.4,6.3 9.4,10.3 22.5,10.3 27,23.6 30.7,22.3 		"/>
	</g>
	<g class="st1">
		<circle cx="56.5" cy="62.6" r="6.7"/>
		<g>
			<path d="M56.5,56.9c3.1,0,5.7,2.5,5.7,5.7s-2.5,5.7-5.7,5.7c-3.1,0-5.7-2.5-5.7-5.7C50.8,59.5,53.4,56.9,56.5,56.9 M56.5,54.9
				c-4.2,0-7.7,3.4-7.7,7.7c0,4.2,3.4,7.7,7.7,7.7c4.2,0,7.7-3.4,7.7-7.7C64.2,58.4,60.7,54.9,56.5,54.9L56.5,54.9z"/>
		</g>
	</g>
	<g class="st1">
		<circle cx="33.3" cy="62.6" r="6.7"/>
		<g>
			<path d="M33.3,56.9c3.1,0,5.7,2.5,5.7,5.7s-2.5,5.7-5.7,5.7s-5.7-2.5-5.7-5.7C27.6,59.5,30.2,56.9,33.3,56.9 M33.3,54.9
				c-4.2,0-7.7,3.4-7.7,7.7c0,4.2,3.4,7.7,7.7,7.7c4.2,0,7.7-3.4,7.7-7.7S37.6,54.9,33.3,54.9L33.3,54.9z"/>
		</g>
	</g>
	<g class="st1">
		<polygon points="27.8,50.5 19.2,22.9 71.8,22.9 62,50.5 		"/>
		<g>
			<path d="M70.4,23.9l-9.1,25.6H28.6l-8-25.6H70.4 M73.3,21.9H17.9l9.2,29.6h35.6L73.3,21.9L73.3,21.9z"/>
		</g>
	</g>
	<g class="st1">
		<polygon points="47,43.9 32.2,28.9 47,13.9 59.4,13.9 44.6,28.9 59.4,43.9 		"/>
		<path d="M57,14.9L44.5,27.5l-1.4,1.4l1.4,1.4L57,42.9h-9.5l-13.8-14l13.8-14L57,14.9 M61.8,12.9H46.6l-15.8,16l15.8,16h15.2
			L46,28.9L61.8,12.9L61.8,12.9z"/>
	</g>
</g>
<g class="st0">
	<g class="st1">
		<path d="M26.4,21.9h-8.5l9.2,29.6h35.6l10.6-29.6H30.6L25.4,6.3h-16v4h13.1L26.4,21.9z M43.8,27h9.1l-9.5,9.6l9.5,9.6h-9.1
			l-9.4-9.6L43.8,27z"/>
		<circle cx="56.5" cy="62.6" r="7.7"/>
		<circle cx="33.3" cy="62.6" r="7.7"/>
	</g>
</g>
<g>
	<g>
		<path class="st4" d="M71.3,11.1c-0.6-0.6-1.5-0.6-2,0l0,0l-4.7,4.7V2c0-0.8-0.6-1.4-1.4-1.4c-0.8,0-1.4,0.6-1.4,1.4v13.7L57.1,11
			c-0.6-0.6-1.5-0.5-2,0c-0.5,0.6-0.5,1.5,0,2l7.2,7.2c0.6,0.6,1.5,0.6,2,0l0,0l7.2-7.2C71.8,12.5,71.8,11.6,71.3,11.1L71.3,11.1z"
			/>
	</g>
</g>
</svg>
