<?xml version="1.0" encoding="utf-8"?>
<!-- Generator: Adobe Illustrator 23.0.1, SVG Export Plug-In . SVG Version: 6.00 Build 0)  -->
<svg version="1.1" id="Capa_1" xmlns="http://www.w3.org/2000/svg" xmlns:xlink="http://www.w3.org/1999/xlink" x="0px" y="0px"
	 viewBox="0 0 429 368.4" style="enable-background:new 0 0 429 368.4;" xml:space="preserve">
<style type="text/css">
	.st0{fill:#ED4036;}
</style>
<g>
	<g>
		<g>
			<rect x="253.2" y="32.1" class="st0" width="15.3" height="145.2"/>
		</g>
	</g>
	<g>
		<g>
			<rect x="100.4" y="32.1" class="st0" width="15.3" height="145.2"/>
		</g>
	</g>
	<g>
		<g>
			<rect x="39.2" y="32.1" class="st0" width="15.3" height="145.2"/>
		</g>
	</g>
	<g>
		<g>
			<rect x="130.9" y="32.1" class="st0" width="15.3" height="145.2"/>
		</g>
	</g>
	<g>
		<g>
			<path class="st0" d="M429,345.5v-321c0-12.6-10.3-22.9-22.9-22.9H23.9C11.3,1.6,1,11.9,1,24.5v321c0,12.6,10.3,22.9,22.9,22.9
				H406C418.7,368.4,429,358.1,429,345.5z M31.6,353.1c-4.2,0-7.6-3.4-7.6-7.6v-321c0-4.2,3.4-7.6,7.6-7.6h366.9
				c4.2,0,7.6,3.4,7.6,7.6v321c0,4.2-3.4,7.6-7.6,7.6H31.6z"/>
		</g>
	</g>
	<g>
		<g>
			<rect x="222.6" y="32.1" class="st0" width="15.3" height="145.2"/>
		</g>
	</g>
	<g>
		<g>
			<rect x="192.1" y="32.1" class="st0" width="15.3" height="145.2"/>
		</g>
	</g>
	<g>
		<g>
			<rect x="161.5" y="32.1" class="st0" width="15.3" height="145.2"/>
		</g>
	</g>
	<g>
		<g>
			<rect x="69.8" y="32.1" class="st0" width="15.3" height="145.2"/>
		</g>
	</g>
	<g>
		<g>
			<rect x="283.8" y="32.1" class="st0" width="15.3" height="145.2"/>
		</g>
	</g>
	<g>
		<g>
			<rect x="314.4" y="192.6" class="st0" width="15.3" height="145.2"/>
		</g>
	</g>
	<g>
		<g>
			<rect x="253.2" y="192.6" class="st0" width="15.3" height="145.2"/>
		</g>
	</g>
	<g>
		<g>
			<rect x="283.8" y="192.6" class="st0" width="15.3" height="145.2"/>
		</g>
	</g>
	<g>
		<g>
			<rect x="222.6" y="192.6" class="st0" width="15.3" height="145.2"/>
		</g>
	</g>
	<g>
		<g>
			<rect x="192.1" y="192.6" class="st0" width="15.3" height="145.2"/>
		</g>
	</g>
	<g>
		<g>
			<rect x="375.5" y="192.6" class="st0" width="15.3" height="145.2"/>
		</g>
	</g>
	<g>
		<g>
			<rect x="344.9" y="192.6" class="st0" width="15.3" height="145.2"/>
		</g>
	</g>
	<g>
		<g>
			<rect x="39.2" y="192.6" class="st0" width="15.3" height="145.2"/>
		</g>
	</g>
	<g>
		<g>
			<rect x="375.5" y="32.1" class="st0" width="15.3" height="145.2"/>
		</g>
	</g>
	<g>
		<g>
			<rect x="344.9" y="32.1" class="st0" width="15.3" height="145.2"/>
		</g>
	</g>
	<g>
		<g>
			<rect x="314.4" y="32.1" class="st0" width="15.3" height="145.2"/>
		</g>
	</g>
	<g>
		<g>
			<rect x="69.8" y="192.6" class="st0" width="15.3" height="145.2"/>
		</g>
	</g>
	<g>
		<g>
			<rect x="130.9" y="192.6" class="st0" width="15.3" height="145.2"/>
		</g>
	</g>
	<g>
		<g>
			<rect x="100.4" y="192.6" class="st0" width="15.3" height="145.2"/>
		</g>
	</g>
	<g>
		<g>
			<rect x="161.5" y="192.6" class="st0" width="15.3" height="145.2"/>
		</g>
	</g>
</g>
</svg>
