<?xml version="1.0" encoding="utf-8"?>
<!-- Generator: Adobe Illustrator 23.0.1, SVG Export Plug-In . SVG Version: 6.00 Build 0)  -->
<svg version="1.1" id="Layer_1" xmlns="http://www.w3.org/2000/svg" xmlns:xlink="http://www.w3.org/1999/xlink" x="0px" y="0px"
	 viewBox="0 0 133.7 75.6" style="enable-background:new 0 0 133.7 75.6;" xml:space="preserve">
<style type="text/css">
	.st0{fill:#EDEDED;}
</style>
<path class="st0" d="M133.3,69.1h-16.8l-0.3-61.6c0-1.9-1.3-3.5-3.4-3.5H21c-2,0-3.5,1.3-3.5,3.5l-0.3,61.6H0.4v3.6l0.1,0.1
	c1.1,1,3.2,1.9,5.5,1.9h121.7c2.8-0.2,4.4-1,5.5-1.9l0.1-0.1C133.3,71.6,133.3,70.2,133.3,69.1z M66.8,5.6c0.2,0,0.4,0.2,0.4,0.4
	S67,6.5,66.8,6.5S66.4,6.3,66.4,6S66.6,5.6,66.8,5.6z M21.3,8.3h90.9v57.1H21.3V8.3z M75.7,69.6c0,0.8-0.6,1.4-1.4,1.4H58.9
	c-0.8,0-1.4-0.6-1.4-1.4v-0.4h18.2V69.6z M126.5,71.1h-3.8c-0.1,0-0.2-0.1-0.2-0.2s0.1-0.2,0.2-0.2h3.8c0.1,0,0.2,0.1,0.2,0.2
	S126.6,71.1,126.5,71.1z"/>
<g transform="translate(0,-952.36218)">
	<g>
		<path class="st0" d="M66.8,952.7c-2.1,0-3.9,1.8-3.9,3.9c0,1.7,1.1,3.1,2.5,3.6v1.9c-5.7,0.4-10.8,3.7-14.5,8.7
			c-4,5.4-6.4,12.7-6.4,20.7c0,1.6,0.1,3.1,0.3,4.6l-1.7,2.4l-2.4,3.4c-0.4,0.6-0.3,1.4,0.3,1.8c0.2,0.2,0.5,0.2,0.8,0.2
			c7,0,13.6-0.1,20.5-0.1c-0.3,0.6-0.5,1.2-0.5,1.9c0,2.6,2.3,4.6,4.9,4.6s4.9-2,4.9-4.6c0-0.7-0.2-1.3-0.5-1.9
			c6.9,0,13.5,0.1,20.5,0.1c0.7,0,1.3-0.6,1.3-1.3c0-0.3-0.1-0.5-0.2-0.8l-2.4-3.4l-1.7-2.4c0.2-1.5,0.3-3.1,0.3-4.6
			c0-8.1-2.4-15.4-6.4-20.7c-3.7-5-8.8-8.3-14.6-8.7v-1.9c1.5-0.5,2.5-2,2.5-3.6C70.7,954.4,69,952.7,66.8,952.7L66.8,952.7z
			 M66.8,964.7c5.3,0,10.2,2.9,13.8,7.7c3.6,4.8,5.9,11.7,5.9,19.2c0,1.6-0.1,3.2-0.3,4.8c0,0.3,0,0.7,0.2,0.9l1.9,2.7l0.9,1.3
			c-7.5,0-14.7-0.1-22.4-0.1s-14.9,0.1-22.4,0.1l0.9-1.3l0,0l1.9-2.7c0.2-0.3,0.3-0.6,0.2-0.9c-0.2-1.6-0.3-3.2-0.3-4.8
			c0-7.5,2.3-14.3,5.9-19.2C56.7,967.5,61.5,964.7,66.8,964.7L66.8,964.7z"/>
	</g>
</g>
<g>
	<g>
		<g>
			<g>
				<path class="st0" d="M60.4,36.1c0,1.1,0.3,2.1,0.8,3s1.2,1.7,2,2.3c1.6,1.2,3.9,1.5,5.7,0.9c2-0.7,3.5-2.2,4.2-4.2
					c0.6-1.9,0.3-4.1-0.9-5.7c-0.6-0.8-1.4-1.5-2.3-2c-1-0.5-2-0.7-3-0.7c-0.2,0-0.4,0-0.6,0c0.1,0,0.2,0,0.4,0
					c-0.4-0.1-0.9-0.2-1.3-0.4c0.1,0,0.2,0.1,0.3,0.1c-0.4-0.2-0.8-0.4-1.1-0.7c0.1,0.1,0.2,0.1,0.3,0.2c-0.4-0.3-0.7-0.6-1-1
					c0.1,0.1,0.1,0.2,0.2,0.3c-0.3-0.4-0.5-0.7-0.7-1.1c0,0.1,0.1,0.2,0.1,0.3c-0.2-0.4-0.3-0.9-0.4-1.3c0,0.1,0,0.2,0,0.4
					c-0.1-0.5-0.1-0.9,0-1.4c0,0.1,0,0.2,0,0.4c0.1-0.4,0.2-0.9,0.4-1.3c0,0.1-0.1,0.2-0.1,0.3c0.2-0.4,0.4-0.8,0.7-1.1
					c-0.1,0.1-0.1,0.2-0.2,0.3c0.3-0.4,0.6-0.7,1-1c-0.1,0.1-0.2,0.1-0.3,0.2c0.4-0.3,0.7-0.5,1.1-0.7c-0.1,0-0.2,0.1-0.3,0.1
					c0.4-0.2,0.9-0.3,1.3-0.4c-0.1,0-0.2,0-0.4,0c0.5-0.1,0.9-0.1,1.4,0c-0.1,0-0.2,0-0.4,0c0.4,0.1,0.9,0.2,1.3,0.4
					c-0.1,0-0.2-0.1-0.3-0.1c0.4,0.2,0.8,0.4,1.1,0.7c-0.1-0.1-0.2-0.1-0.3-0.2c0.4,0.3,0.7,0.6,1,1c-0.1-0.1-0.1-0.2-0.2-0.3
					c0.3,0.4,0.5,0.7,0.7,1.1c0-0.1-0.1-0.2-0.1-0.3c0.2,0.4,0.3,0.9,0.4,1.3c0-0.1,0-0.2,0-0.4c0,0.2,0,0.5,0,0.7
					c0,0.7,0.6,1.4,1.3,1.3c0.7,0,1.3-0.6,1.3-1.3c0-1.1-0.3-2.1-0.8-3s-1.2-1.7-2-2.3c-1.6-1.2-3.9-1.5-5.7-0.9
					c-2,0.7-3.5,2.2-4.2,4.2c-0.6,1.9-0.3,4.1,0.9,5.7c0.6,0.8,1.4,1.5,2.3,2c1,0.5,2,0.7,3,0.7c0.2,0,0.4,0,0.6,0
					c-0.1,0-0.2,0-0.4,0c0.4,0.1,0.9,0.2,1.3,0.4c-0.1,0-0.2-0.1-0.3-0.1c0.4,0.2,0.8,0.4,1.1,0.7c-0.1-0.1-0.2-0.1-0.3-0.2
					c0.4,0.3,0.7,0.6,1,1c-0.1-0.1-0.1-0.2-0.2-0.3c0.3,0.4,0.5,0.7,0.7,1.1c0-0.1-0.1-0.2-0.1-0.3c0.2,0.4,0.3,0.9,0.4,1.3
					c0-0.1,0-0.2,0-0.4c0.1,0.5,0.1,0.9,0,1.4c0-0.1,0-0.2,0-0.4c-0.1,0.4-0.2,0.9-0.4,1.3c0-0.1,0.1-0.2,0.1-0.3
					c-0.2,0.4-0.4,0.8-0.7,1.1c0.1-0.1,0.1-0.2,0.2-0.3c-0.3,0.4-0.6,0.7-1,1c0.1-0.1,0.2-0.1,0.3-0.2c-0.4,0.3-0.7,0.5-1.1,0.7
					c0.1,0,0.2-0.1,0.3-0.1c-0.4,0.2-0.9,0.3-1.3,0.4c0.1,0,0.2,0,0.4,0c-0.5,0.1-0.9,0.1-1.4,0c0.1,0,0.2,0,0.4,0
					c-0.4-0.1-0.9-0.2-1.3-0.4c0.1,0,0.2,0.1,0.3,0.1c-0.4-0.2-0.8-0.4-1.1-0.7c0.1,0.1,0.2,0.1,0.3,0.2c-0.4-0.3-0.7-0.6-1-1
					c0.1,0.1,0.1,0.2,0.2,0.3c-0.3-0.4-0.5-0.7-0.7-1.1c0,0.1,0.1,0.2,0.1,0.3c-0.2-0.4-0.3-0.9-0.4-1.3c0,0.1,0,0.2,0,0.4
					c0-0.2,0-0.5,0-0.7c0-0.7-0.6-1.4-1.3-1.3C61,34.8,60.4,35.3,60.4,36.1L60.4,36.1z"/>
			</g>
		</g>
		<g>
			<g>
				<path class="st0" d="M68.2,20.6c0-1,0-2,0-3.1c0-0.1,0-0.3,0-0.4c0-0.7-0.6-1.4-1.3-1.3c-0.7,0-1.3,0.6-1.3,1.3c0,1,0,2,0,3.1
					c0,0.1,0,0.3,0,0.4c0,0.7,0.6,1.4,1.3,1.3C67.6,21.9,68.2,21.4,68.2,20.6L68.2,20.6z"/>
			</g>
		</g>
	</g>
</g>
</svg>
