<?xml version="1.0" encoding="utf-8"?>
<!-- Generator: Adobe Illustrator 23.0.1, SVG Export Plug-In . SVG Version: 6.00 Build 0)  -->
<svg version="1.1" id="Layer_1" xmlns="http://www.w3.org/2000/svg" xmlns:xlink="http://www.w3.org/1999/xlink" x="0px" y="0px"
	 viewBox="0 0 100 100" style="enable-background:new 0 0 100 100;" xml:space="preserve">
<g>
	<g>
		<path d="M95.3,28.7c-1.6,0-3.2,0-4.8,0c-3.8,0-7.7,0-11.5,0c-4.6,0-9.3,0-13.9,0c-4,0-8,0-12,0c-2,0-3.9,0-5.8,0h-0.1
			c-2.2,0-4.3,1.9-4.2,4.2s1.8,4.2,4.2,4.2c1.6,0,3.2,0,4.8,0c3.8,0,7.7,0,11.5,0c4.6,0,9.3,0,13.9,0c4,0,8,0,12,0c2,0,3.9,0,5.8,0
			h0.1c2.2,0,4.3-1.9,4.2-4.2C99.4,30.6,97.6,28.7,95.3,28.7L95.3,28.7z"/>
	</g>
</g>
<g>
	<path d="M4.7,71.3c1.6,0,3.2,0,4.8,0c3.8,0,7.6,0,11.4,0c4.6,0,9.2,0,13.8,0c4,0,8,0,12,0c1.9,0,3.9,0,5.8,0h0.1
		c2.2,0,4.3-1.9,4.2-4.2c-0.1-2.3-1.8-4.2-4.2-4.2c-1.6,0-3.2,0-4.8,0c-3.8,0-7.6,0-11.4,0c-4.6,0-9.2,0-13.8,0c-4,0-8,0-12,0
		c-1.9,0-3.9,0-5.8,0H4.7c-2.2,0-4.3,1.9-4.2,4.2C0.6,69.4,2.4,71.3,4.7,71.3L4.7,71.3z"/>
</g>
<g>
	<path d="M26.8,47.3c2.6,2.6,5.1,5.1,7.7,7.7c4.1,4.1,8.2,8.2,12.3,12.3c0.9,0.9,1.9,1.9,2.8,2.8c0-2,0-4,0-5.9
		c-2.6,2.6-5.1,5.1-7.7,7.7c-4.1,4.1-8.2,8.2-12.3,12.3c-0.9,0.9-1.9,1.9-2.8,2.8c-1.6,1.6-1.7,4.4,0,5.9s4.3,1.7,5.9,0
		c2.6-2.6,5.1-5.1,7.7-7.7c4.1-4.1,8.2-8.2,12.3-12.3c0.9-0.9,1.9-1.9,2.8-2.8c1.6-1.6,1.6-4.3,0-5.9c-2.6-2.6-5.1-5.1-7.7-7.7
		c-4.1-4.1-8.2-8.2-12.3-12.3c-0.9-0.9-1.9-1.9-2.8-2.8c-1.6-1.6-4.4-1.7-5.9,0C25.3,43,25.1,45.6,26.8,47.3L26.8,47.3z"/>
</g>
<g>
	<g>
		<path d="M72.9,52.7c-2.6-2.6-5.1-5.1-7.7-7.7c-4.1-4.1-8.2-8.2-12.3-12.3c-0.9-0.9-1.9-1.9-2.8-2.8c0,2,0,4,0,5.9
			c2.6-2.6,5.1-5.1,7.7-7.7c4.1-4.1,8.2-8.2,12.3-12.3c0.9-0.9,1.9-1.9,2.8-2.8c1.6-1.6,1.7-4.4,0-5.9s-4.3-1.7-5.9,0
			c-2.6,2.6-5.1,5.1-7.7,7.7C55.1,18.9,51,23,46.9,27.1C46,28,45,29,44.1,29.9c-1.6,1.6-1.6,4.3,0,5.9c2.6,2.6,5.1,5.1,7.7,7.7
			c4.1,4.1,8.2,8.2,12.3,12.3c0.9,0.9,1.9,1.9,2.8,2.8c1.6,1.6,4.4,1.7,5.9,0C74.4,57,74.5,54.4,72.9,52.7L72.9,52.7z"/>
	</g>
</g>
</svg>
