<?xml version="1.0" encoding="utf-8"?>
<!-- Generator: Adobe Illustrator 24.0.1, SVG Export Plug-In . SVG Version: 6.00 Build 0)  -->
<svg version="1.1" id="Layer_1" xmlns="http://www.w3.org/2000/svg" xmlns:xlink="http://www.w3.org/1999/xlink" x="0px" y="0px"
	 viewBox="0 0 60 62.5" style="enable-background:new 0 0 60 62.5;" xml:space="preserve">
<style type="text/css">
	.st0{fill:#D3D3D3;}
	.st1{clip-path:url(#SVGID_3_);fill:#D3D3D3;}
</style>
<g>
	<path class="st0" d="M14,39c-3.3,0-6,2.7-6,6s2.7,6,6,6s6-2.7,6-6S17.3,39,14,39z M14,49c-2.2,0-4-1.8-4-4s1.8-4,4-4s4,1.8,4,4
		S16.2,49,14,49z"/>
	<path class="st0" d="M51,39c-3.3,0-6,2.7-6,6s2.7,6,6,6s6-2.7,6-6S54.3,39,51,39z M51,49c-2.2,0-4-1.8-4-4s1.8-4,4-4s4,1.8,4,4
		S53.2,49,51,49z"/>
	<rect x="6" y="26" class="st0" width="8" height="2"/>
	<rect x="6" y="30" class="st0" width="17" height="2"/>
	<path class="st0" d="M22,12c-3.3,0-6,2.7-6,6s2.7,6,6,6s6-2.7,6-6S25.3,12,22,12z M22,22c-2.2,0-4-1.8-4-4s1.8-4,4-4s4,1.8,4,4
		S24.2,22,22,22z"/>
	<rect x="50" y="33" class="st0" width="3" height="2"/>
	<circle class="st0" cx="14" cy="45" r="2.5"/>
	<circle class="st0" cx="51" cy="45" r="2.5"/>
	<path class="st0" d="M44,19V6c0-0.6-0.4-1-1-1H31V2c0-0.6-0.4-1-1-1H14c-0.6,0-1,0.4-1,1v3H1C0.4,5,0,5.4,0,6v30v6c0,0.6,0.4,1,1,1
		h5v-2H2v-4h40v4H22v2h21c0.6,0,1-0.4,1-1v-6V21V19z M15,3h14v2H15V3z M2,35V7h12h16h12v13v15H2z"/>
	<g>
		<g>
			<g>
				<path id="SVGID_1_" class="st0" d="M59.7,28.3l-8-9C51.6,19.1,51.3,19,51,19h-7V6c0-0.6-0.4-1-1-1H31V2c0-0.6-0.4-1-1-1H14
					c-0.6,0-1,0.4-1,1v3H1C0.4,5,0,5.4,0,6v30v6c0,0.6,0.4,1,1,1h5v-2H2v-4h40v4H22v2h21c0.6,0,1-0.4,1-1v-6V21h6.6l6.2,7H50v2h8v12
					h2V29C60,28.8,59.9,28.5,59.7,28.3z M15,3h14v2H15V3z M2,35V7h12h16h12v13v15H2z"/>
			</g>
			<g>
				<defs>
					<path id="SVGID_2_" d="M59.7,28.3l-8-9C51.6,19.1,51.3,19,51,19h-7V6c0-0.6-0.4-1-1-1H31V2c0-0.6-0.4-1-1-1H14
						c-0.6,0-1,0.4-1,1v3H1C0.4,5,0,5.4,0,6v30v6c0,0.6,0.4,1,1,1h5v-2H2v-4h40v4H22v2h21c0.6,0,1-0.4,1-1v-6V21h6.6l6.2,7H50v2h8
						v12h2V29C60,28.8,59.9,28.5,59.7,28.3z M15,3h14v2H15V3z M2,35V7h12h16h12v13v15H2z"/>
				</defs>
				<use xlink:href="#SVGID_2_"  style="overflow:visible;fill:#D3D3D3;"/>
				<clipPath id="SVGID_3_">
					<use xlink:href="#SVGID_2_"  style="overflow:visible;"/>
				</clipPath>
				<rect x="44" y="6.6" class="st1" width="27.7" height="44.2"/>
			</g>
		</g>
	</g>
</g>
</svg>
