<?xml version="1.0" encoding="utf-8"?>
<!-- Generator: Adobe Illustrator 22.1.0, SVG Export Plug-In . SVG Version: 6.00 Build 0)  -->
<svg version="1.1" id="Layer_1" xmlns="http://www.w3.org/2000/svg" xmlns:xlink="http://www.w3.org/1999/xlink" x="0px" y="0px"
	 viewBox="0 0 60 62.5" style="enable-background:new 0 0 60 62.5;" xml:space="preserve">
<style type="text/css">
	.st0{fill:#EDEDED;}
	.st1{fill:#ED4036;}
	.st2{fill:#2F323D;}
	.st3{clip-path:url(#SVGID_2_);fill:#EDEDED;}
</style>
<g>
	<path class="st0" d="M14,38c-3.3,0-6,2.7-6,6s2.7,6,6,6s6-2.7,6-6S17.3,38,14,38z M14,48c-2.2,0-4-1.8-4-4s1.8-4,4-4s4,1.8,4,4
		S16.2,48,14,48z"/>
	<path class="st0" d="M51,38c-3.3,0-6,2.7-6,6s2.7,6,6,6s6-2.7,6-6S54.3,38,51,38z M51,48c-2.2,0-4-1.8-4-4s1.8-4,4-4s4,1.8,4,4
		S53.2,48,51,48z"/>
	<rect x="6" y="25" class="st1" width="8" height="2"/>
	<rect x="6" y="29" class="st1" width="17" height="2"/>
	<path class="st2" d="M22,11c-3.3,0-6,2.7-6,6s2.7,6,6,6s6-2.7,6-6S25.3,11,22,11z M22,21c-2.2,0-4-1.8-4-4s1.8-4,4-4s4,1.8,4,4
		S24.2,21,22,21z"/>
	<rect x="50" y="32" class="st0" width="3" height="2"/>
	<circle class="st0" cx="14" cy="44" r="2.5"/>
	<circle class="st0" cx="51" cy="44" r="2.5"/>
	<path class="st2" d="M44,18V5c0-0.6-0.4-1-1-1H31V1c0-0.6-0.4-1-1-1H14c-0.6,0-1,0.4-1,1v3H1C0.4,4,0,4.4,0,5v30v6c0,0.6,0.4,1,1,1
		h5v-2H2v-4h40v4H22v2h21c0.6,0,1-0.4,1-1v-6V20V18z M15,2h14v2H15V2z M2,34V6h12h16h12v13v15H2z"/>
	<g>
		<defs>
			<path id="SVGID_1_" d="M59.7,27.3l-8-9C51.6,18.1,51.3,18,51,18h-7V5c0-0.6-0.4-1-1-1H31V1c0-0.6-0.4-1-1-1H14c-0.6,0-1,0.4-1,1
				v3H1C0.4,4,0,4.4,0,5v30v6c0,0.6,0.4,1,1,1h5v-2H2v-4h40v4H22v2h21c0.6,0,1-0.4,1-1v-6V20h6.6l6.2,7H50v2h8v12h2V28
				C60,27.8,59.9,27.5,59.7,27.3z M15,2h14v2H15V2z M2,34V6h12h16h12v13v15H2z"/>
		</defs>
		<clipPath id="SVGID_2_">
			<use xlink:href="#SVGID_1_"  style="overflow:visible;"/>
		</clipPath>
		<rect x="44" y="5.6" class="st3" width="27.7" height="44.2"/>
	</g>
</g>
</svg>
