<?xml version="1.0" encoding="utf-8"?>
<!-- Generator: Adobe Illustrator 23.0.1, SVG Export Plug-In . SVG Version: 6.00 Build 0)  -->
<svg version="1.1" id="Capa_1" xmlns="http://www.w3.org/2000/svg" xmlns:xlink="http://www.w3.org/1999/xlink" x="0px" y="0px"
	 viewBox="0 0 492.9 492" style="enable-background:new 0 0 492.9 492;" xml:space="preserve">
<style type="text/css">
	.st0{fill:#ED4036;}
</style>
<g>
	<g>
		<g>
			<circle class="st0" cx="232.1" cy="419" r="14.4"/>
		</g>
	</g>
	<g>
		<g>
			<circle class="st0" cx="73.5" cy="260.4" r="14.4"/>
		</g>
	</g>
	<g>
		<g>
			<circle class="st0" cx="120" cy="372.5" r="14.4"/>
		</g>
	</g>
	<g>
		<g>
			<circle class="st0" cx="120" cy="147.3" r="14.4"/>
		</g>
	</g>
	<g>
		<g>
			<circle class="st0" cx="344.2" cy="372.5" r="14.4"/>
		</g>
	</g>
	<g>
		<g>
			<path class="st0" d="M246.5,0c-8,0-14.4,6.5-14.4,14.4v14.4C104.6,28.8,0.5,132.9,0.5,260.4S104.6,492,232.1,492
				c127.2,0,230.6-103.9,230.6-231.6h15.4c8,0,14.4-6.5,14.4-14.4C492.5,110.7,381.7,0,246.5,0z M232.1,463.2
				c-111.8,0-202.8-91-202.8-202.8s91-202.8,202.8-202.8v43.2c0,8,6.5,14.4,14.4,14.4c71.5,0,129.7,58.6,129.7,130.7
				c0,8,6.5,14.3,14.4,14.3h43.2C433.9,372.1,343.4,463.2,232.1,463.2z M404.4,231.6c-6.8-76-67.5-137.5-143.5-144.4V29.3
				c108.3,7.1,195.2,94,202.3,202.3H404.4z"/>
		</g>
	</g>
	<g>
		<g>
			<path class="st0" d="M232.1,144.1c-63.6,0-115.3,52.2-115.3,116.3c0,63.6,51.7,115.3,115.3,115.3S347.4,324,347.4,260.4
				C347.4,196.3,295.7,144.1,232.1,144.1z M232.1,346.9c-47.7,0-86.5-38.8-86.5-86.5c0-48.2,38.8-87.4,86.5-87.4
				s86.5,39.2,86.5,87.4C318.6,308.1,279.8,346.9,232.1,346.9z"/>
		</g>
	</g>
	<g>
		<g>
			<path class="st0" d="M232.1,202.8c-31.8,0-57.7,25.9-57.7,57.7s25.9,57.7,57.7,57.7s57.7-25.9,57.7-57.7S263.9,202.8,232.1,202.8
				z M232.1,289.2c-15.9,0-28.8-12.9-28.8-28.8s12.9-28.8,28.8-28.8s28.8,12.9,28.8,28.8S248,289.2,232.1,289.2z"/>
		</g>
	</g>
</g>
</svg>
