<?xml version="1.0" encoding="utf-8"?>
<!-- Generator: Adobe Illustrator 23.0.1, SVG Export Plug-In . SVG Version: 6.00 Build 0)  -->
<svg version="1.1" id="Layer_1" xmlns="http://www.w3.org/2000/svg" xmlns:xlink="http://www.w3.org/1999/xlink" x="0px" y="0px"
	 viewBox="0 0 48 47.5" style="enable-background:new 0 0 48 47.5;" xml:space="preserve">
<style type="text/css">
	.st0{fill:#EE4036;}
	.st1{fill:#ECECEC;}
</style>
<polygon class="st0" points="24,0.2 0.5,14.4 1.5,16.1 24,2.5 46.5,16.1 47.5,14.4 "/>
<path class="st1" d="M39.8,31.8h-0.5L35,22.4H13l-4.3,9.4H8.2c-1.9,0-3.5,1.6-3.5,3.5v6.1c0,1.9,1.6,3.5,3.5,3.5h0.1v2.3h2v-2.3
	h27.3v2.3h2v-2.3h0.1c1.9,0,3.5-1.6,3.5-3.5v-6.1C43.3,33.4,41.7,31.8,39.8,31.8z M14.3,24.4h19.5l3.4,7.4H10.9L14.3,24.4z
	 M14.4,39.4h-3.8v-2h3.8V39.4z M37.4,39.4h-3.8v-2h3.8V39.4z"/>
</svg>
