<?xml version="1.0" encoding="utf-8"?>
<!-- Generator: Adobe Illustrator 23.0.1, SVG Export Plug-In . SVG Version: 6.00 Build 0)  -->
<svg version="1.1" id="Layer_1" xmlns:sketch="http://www.bohemiancoding.com/sketch/ns"
	 xmlns="http://www.w3.org/2000/svg" xmlns:xlink="http://www.w3.org/1999/xlink" x="0px" y="0px" viewBox="0 0 46 46"
	 style="enable-background:new 0 0 46 46;" xml:space="preserve">
<style type="text/css">
	.st0{fill-rule:evenodd;clip-rule:evenodd;fill:#4285F4;}
	.st1{fill-rule:evenodd;clip-rule:evenodd;fill:#34A853;}
	.st2{fill-rule:evenodd;clip-rule:evenodd;fill:#FBBC05;}
	.st3{fill-rule:evenodd;clip-rule:evenodd;fill:#EA4335;}
	.st4{fill:none;}
</style>
<title>btn_google_light_focus_ios</title>
<desc>Created with Sketch.</desc>
<g transform="translate(-668.000000, -160.000000)" sketch:type="MSArtboardGroup">
</g>
<g id="btn_google_light_focus" transform="translate(-1.000000, -1.000000)" sketch:type="MSArtboardGroup">
	<g id="logo_googleg_48dp" transform="translate(15.000000, 15.000000)" sketch:type="MSLayerGroup">
		<path id="Shape" sketch:type="MSShapeGroup" class="st0" d="M28.3,9.5c0-1.4-0.1-2.8-0.4-4.1H9v7.8h10.8c-0.5,2.5-1.9,4.6-4,6.1v5
			h6.5C26.1,20.8,28.3,15.6,28.3,9.5L28.3,9.5z"/>
		<path sketch:type="MSShapeGroup" class="st1" d="M9,29.1c5.4,0,10-1.8,13.3-4.9l-6.5-5c-1.8,1.2-4.1,1.9-6.8,1.9
			c-5.2,0-9.6-3.5-11.2-8.3h-6.7v5.2C-5.6,24.6,1.2,29.1,9,29.1L9,29.1z"/>
		<path sketch:type="MSShapeGroup" class="st2" d="M-2.2,12.9c-0.4-1.2-0.6-2.5-0.6-3.8s0.2-2.6,0.6-3.8V0.1h-6.7
			c-1.4,2.7-2.1,5.8-2.1,9s0.8,6.3,2.1,9L-2.2,12.9L-2.2,12.9z"/>
		<path sketch:type="MSShapeGroup" class="st3" d="M9-3c2.9,0,5.6,1,7.7,3l5.8-5.8C18.9-9,14.4-11,9-11C1.2-11-5.6-6.5-8.9,0.1
			l6.7,5.2C-0.6,0.5,3.8-3,9-3L9-3z"/>
		<path sketch:type="MSShapeGroup" class="st4" d="M-11.1-11h40.1v40.1h-40.1V-11z"/>
	</g>
	<g id="handles_square" sketch:type="MSLayerGroup">
	</g>
</g>
</svg>
