<?xml version="1.0" encoding="utf-8"?>
<!-- Generator: Adobe Illustrator 24.0.1, SVG Export Plug-In . SVG Version: 6.00 Build 0)  -->
<svg version="1.1" id="Layer_1" xmlns="http://www.w3.org/2000/svg" xmlns:xlink="http://www.w3.org/1999/xlink" x="0px" y="0px"
	 viewBox="0 0 118.6 92.3" style="enable-background:new 0 0 118.6 92.3;" xml:space="preserve">
<style type="text/css">
	.st0{fill:#231F20;}
	.st1{fill:#FF5F00;}
	.st2{fill:#EB001B;}
	.st3{fill:#F79E1B;}
</style>
<title>mc_vrt_rgb_pos</title>
<path class="st0" d="M22.1,91v-6c0.1-2-1.3-3.7-3.3-3.8c-0.2,0-0.3,0-0.5,0c-1.3-0.1-2.6,0.6-3.4,1.7c-0.7-1.1-1.9-1.8-3.2-1.7
	c-1.1-0.1-2.2,0.5-2.8,1.4v-1.2H6.9V91H9v-5.3c-0.2-1.2,0.7-2.4,1.9-2.5c0.1,0,0.3,0,0.4,0c1.4,0,2.1,0.9,2.1,2.5V91h2.1v-5.3
	c-0.2-1.2,0.7-2.4,1.9-2.5c0.1,0,0.3,0,0.4,0c1.4,0,2.1,0.9,2.1,2.5V91L22.1,91z M53.1,81.4h-3.4v-2.9h-2.1v2.9h-1.9v1.9h1.9v4.4
	c0,2.2,0.9,3.5,3.3,3.5c0.9,0,1.8-0.3,2.6-0.7L53,88.7c-0.6,0.3-1.2,0.5-1.8,0.5c-1,0-1.4-0.6-1.4-1.6v-4.4h3.4L53.1,81.4z
	 M70.9,81.2c-1,0-2,0.5-2.5,1.4v-1.2h-2.1V91h2.1v-5.4c0-1.6,0.7-2.5,2-2.5c0.4,0,0.9,0.1,1.3,0.2l0.6-2
	C71.8,81.2,71.3,81.1,70.9,81.2L70.9,81.2z M44.1,82.2c-1.2-0.7-2.5-1-3.9-1c-2.4,0-4,1.2-4,3.1c0,1.6,1.2,2.5,3.3,2.8l1,0.1
	c1.1,0.2,1.7,0.5,1.7,1c0,0.7-0.8,1.2-2.2,1.2c-1.1,0-2.3-0.3-3.2-1l-1,1.6c1.2,0.8,2.7,1.3,4.1,1.2c2.8,0,4.4-1.3,4.4-3.1
	s-1.3-2.6-3.3-2.9l-1-0.1c-0.9-0.1-1.6-0.3-1.6-0.9S39,83,40.1,83c1.1,0,2.1,0.3,3,0.8L44.1,82.2z M99.8,81.2c-1,0-2,0.5-2.5,1.4
	v-1.2h-2.1V91h2.1v-5.4c0-1.6,0.7-2.5,2-2.5c0.4,0,0.9,0.1,1.3,0.2l0.6-2C100.7,81.2,100.2,81.1,99.8,81.2L99.8,81.2z M73,86.2
	c-0.1,2.7,2,4.9,4.6,5c0.2,0,0.3,0,0.5,0c1.2,0.1,2.5-0.3,3.4-1.1l-1-1.7c-0.7,0.5-1.6,0.8-2.5,0.9c-1.7-0.1-2.9-1.6-2.8-3.3
	c0.1-1.5,1.3-2.7,2.8-2.8c0.9,0,1.8,0.3,2.5,0.9l1-1.7c-1-0.8-2.2-1.2-3.4-1.1C75.4,81,73.1,83,73,85.7C73,85.8,73,86,73,86.2
	L73,86.2z M92.5,86.2v-4.8h-2.1v1.2c-0.7-0.9-1.8-1.4-3-1.4c-2.8,0-5,2.2-5,5s2.2,5,5,5c1.2,0,2.3-0.5,3-1.4v1.2h2.1V86.2z
	 M84.7,86.2c0.1-1.6,1.5-2.8,3.1-2.7s2.8,1.5,2.7,3.1c-0.1,1.5-1.3,2.7-2.9,2.7c-1.6,0-2.9-1.2-2.9-2.8
	C84.7,86.3,84.7,86.3,84.7,86.2z M59.6,81.2c-2.8,0-5,2.3-4.9,5.1s2.3,5,5.1,4.9l0,0c1.4,0.1,2.9-0.4,4-1.3l-1-1.5
	c-0.8,0.6-1.8,1-2.8,1c-1.4,0.1-2.7-0.9-2.9-2.3h7.1c0-0.3,0-0.5,0-0.8C64.2,83.2,62.3,81.2,59.6,81.2L59.6,81.2z M59.6,83
	c1.3,0,2.4,1,2.4,2.3c0,0,0,0,0,0h-5C57.1,84,58.2,83,59.6,83L59.6,83z M111.7,86.2v-8.6h-2v5c-0.7-0.9-1.8-1.4-3-1.4
	c-2.8,0-5,2.2-5,5s2.2,5,5,5c1.2,0,2.3-0.5,3-1.4v1.2h2V86.2z M115.2,89.6c0.1,0,0.3,0,0.4,0.1c0.1,0,0.2,0.1,0.3,0.2
	c0.1,0.1,0.2,0.2,0.2,0.3c0.1,0.2,0.1,0.5,0,0.7c-0.1,0.1-0.1,0.2-0.2,0.3c-0.1,0.1-0.2,0.2-0.3,0.2c-0.1,0.1-0.2,0.1-0.4,0.1
	c-0.4,0-0.7-0.2-0.9-0.6c-0.1-0.2-0.1-0.5,0-0.7c0.1-0.1,0.1-0.2,0.2-0.3c0.1-0.1,0.2-0.2,0.3-0.2C114.9,89.6,115.1,89.6,115.2,89.6
	L115.2,89.6z M115.2,91.3c0.1,0,0.2,0,0.3-0.1c0.1,0,0.2-0.1,0.2-0.2c0.3-0.3,0.3-0.7,0-1c-0.1-0.1-0.1-0.1-0.2-0.2
	c-0.1,0-0.2-0.1-0.3-0.1c-0.1,0-0.2,0-0.3,0.1c-0.1,0-0.2,0.1-0.2,0.2c-0.3,0.3-0.3,0.7,0,1c0.1,0.1,0.2,0.1,0.2,0.2
	C115,91.3,115.1,91.3,115.2,91.3L115.2,91.3z M115.3,90.1c0.1,0,0.2,0,0.3,0.1c0.1,0.1,0.1,0.1,0.1,0.2c0,0.1,0,0.1-0.1,0.2
	c-0.1,0.1-0.1,0.1-0.2,0.1l0.3,0.3h-0.2l-0.3-0.3H115V91h-0.2v-0.9L115.3,90.1z M115,90.3v0.2h0.2c0,0,0.1,0,0.1,0c0,0,0-0.1,0-0.1
	c0,0,0-0.1,0-0.1c0,0-0.1,0-0.1,0L115,90.3z M104,86.2c0.1-1.6,1.5-2.8,3.1-2.7s2.8,1.5,2.7,3.1c-0.1,1.5-1.3,2.7-2.9,2.7
	c-1.6,0-2.9-1.2-2.9-2.8C104,86.4,104,86.3,104,86.2z M33.8,86.2v-4.8h-2.1v1.2c-0.7-0.9-1.8-1.4-3-1.4c-2.8,0-5,2.2-5,5s2.2,5,5,5
	c1.2,0,2.3-0.5,3-1.4v1.2h2.1L33.8,86.2z M26.1,86.2c0.1-1.6,1.5-2.8,3.1-2.7s2.8,1.5,2.7,3.1c-0.1,1.5-1.3,2.7-2.9,2.7
	c-1.6,0-2.9-1.2-2.9-2.8C26,86.4,26,86.3,26.1,86.2L26.1,86.2z"/>
<g id="_Group_">
	<rect x="43.4" y="8.6" class="st1" width="31.5" height="56.6"/>
	<path id="_Path_" class="st2" d="M45.4,36.9c0-11,5.1-21.5,13.8-28.3C43.5-3.7,20.9-1,8.6,14.6S-1,52.9,14.6,65.2
		c13.1,10.3,31.4,10.3,44.5,0C50.4,58.4,45.4,47.9,45.4,36.9z"/>
	<path class="st3" d="M117.4,36.9c0,19.9-16.1,36-36,36c-8.1,0-15.9-2.7-22.2-7.7c15.6-12.3,18.3-34.9,6.1-50.5
		c-1.8-2.3-3.8-4.3-6.1-6.1C74.8-3.7,97.4-1,109.7,14.6C114.7,21,117.4,28.8,117.4,36.9L117.4,36.9z"/>
	<path class="st3" d="M113.9,59.2V58h0.5v-0.2h-1.2V58h0.5v1.2L113.9,59.2z M116.2,59.2v-1.4h-0.4l-0.4,1l-0.4-1h-0.3v1.4h0.3v-1
		l0.4,0.9h0.3l0.4-0.9v1.1L116.2,59.2z"/>
</g>
</svg>
