<?xml version="1.0" encoding="utf-8"?>
<!-- Generator: Adobe Illustrator 23.0.1, SVG Export Plug-In . SVG Version: 6.00 Build 0)  -->
<svg version="1.1" id="Layer_1" xmlns="http://www.w3.org/2000/svg" xmlns:xlink="http://www.w3.org/1999/xlink" x="0px" y="0px"
	 viewBox="0 0 100 100" style="enable-background:new 0 0 100 100;" xml:space="preserve">
<style type="text/css">
	.st0{fill:#37363C;}
	.st1{fill:#ED4036;}
</style>
<g>
	<g>
		<g>
			<path class="st0" d="M93,25.4c0-0.1,0-0.2-0.1-0.4v-0.1c-0.1-0.2-0.1-0.3-0.2-0.4l0,0l-8.6-12c-1.3-1.9-3.4-2.9-5.5-2.9H58.5h-17
				H21.4c-2.2,0-4.2,1-5.5,2.8l-8.6,12l0,0c-0.1,0.1-0.2,0.3-0.2,0.4v0.1C7.1,25,7,25.1,7,25.3v0.1v0.1v58.8c0,3.4,2.8,6.2,6.2,6.2
				h73.5c3.4,0,6.2-2.8,6.2-6.2V25.6v-0.1C93,25.5,93,25.4,93,25.4z M78.6,13.6c0.9,0,1.7,0.4,2.2,1.1l6.3,8.9H68.5h-6l-2.9-10H78.6
				z M41,25.9l3.5-12.3h11L59,25.9v16.4l-9-4.9l-9,4.9V25.9z M19.2,14.7c0.5-0.7,1.3-1.1,2.2-1.1h18.9l-2.9,10h-4.2H12.9L19.2,14.7z
				 M89,84.4c0,1.2-1,2.2-2.2,2.2H13.2c-1.2,0-2.2-1-2.2-2.2V27.6h22.3H37v16.1c0,1.1,0.6,2.1,1.5,2.7c0.5,0.3,1,0.4,1.6,0.4
				c0.5,0,1-0.1,1.5-0.4l8.4-4.6l8.4,4.6c1,0.5,2.1,0.5,3.1-0.1s1.5-1.6,1.5-2.7v-16h5.5H89V84.4z"/>
			<path class="st0" d="M57,25.6c0-1.1-0.9-2-2-2H45c-1.1,0-2,0.9-2,2s0.9,2,2,2h10C56.1,27.6,57,26.7,57,25.6z"/>
		</g>
	</g>
	<g>
		<g>
			<g>
				<g>
					<path class="st1" d="M58.6,55c0.4,0.4,0.8,0.9,1.2,1.4c-0.1-0.1-0.2-0.3-0.3-0.4c0.7,1,1.4,2,1.8,3.1c-0.1-0.2-0.1-0.3-0.2-0.5
						c0.5,1.2,0.8,2.4,1,3.6c0-0.2,0-0.4-0.1-0.5c0.2,1.3,0.2,2.5,0,3.8c0-0.2,0-0.4,0.1-0.5c-0.2,1.2-0.5,2.5-1,3.6
						c0.1-0.2,0.1-0.3,0.2-0.5c-0.5,1.1-1.1,2.2-1.8,3.1c0.1-0.1,0.2-0.3,0.3-0.4c-0.7,1-1.6,1.8-2.6,2.6c0.1-0.1,0.3-0.2,0.4-0.3
						c-1,0.7-2,1.4-3.1,1.8c0.2-0.1,0.3-0.1,0.5-0.2c-1.2,0.5-2.4,0.8-3.6,1c0.2,0,0.4,0,0.5-0.1c-1.3,0.2-2.5,0.2-3.8,0
						c0.2,0,0.4,0,0.5,0.1c-1.2-0.2-2.5-0.5-3.6-1c0.2,0.1,0.3,0.1,0.5,0.2c-1.1-0.5-2.2-1.1-3.1-1.8c0.1,0.1,0.3,0.2,0.4,0.3
						c-1-0.7-1.8-1.6-2.6-2.6c0.1,0.1,0.2,0.3,0.3,0.4c-0.7-1-1.4-2-1.8-3.1c0.1,0.2,0.1,0.3,0.2,0.5c-0.5-1.2-0.8-2.4-1-3.6
						c0,0.2,0,0.4,0.1,0.5c-0.2-1.3-0.2-2.5,0-3.8c0,0.2,0,0.4-0.1,0.5c0.2-1.2,0.5-2.5,1-3.6c-0.1,0.2-0.1,0.3-0.2,0.5
						c0.5-1.1,1.1-2.2,1.8-3.1c-0.1,0.1-0.2,0.3-0.3,0.4c0.7-1,1.6-1.8,2.6-2.6c-0.1,0.1-0.3,0.2-0.4,0.3c1-0.7,2-1.4,3.1-1.8
						c-0.2,0.1-0.3,0.1-0.5,0.2c1.2-0.5,2.4-0.8,3.6-1c-0.2,0-0.4,0-0.5,0.1c1.3-0.2,2.5-0.2,3.8,0c-0.2,0-0.4,0-0.5-0.1
						c1.2,0.2,2.5,0.5,3.6,1c-0.2-0.1-0.3-0.1-0.5-0.2c1.1,0.5,2.2,1.1,3.1,1.8c-0.1-0.1-0.3-0.2-0.4-0.3
						C57.7,54.2,58.1,54.6,58.6,55c0.4,0.4,0.9,0.6,1.4,0.6c0.5,0,1.1-0.2,1.4-0.6c0.4-0.4,0.6-0.9,0.6-1.4c0-0.5-0.2-1-0.6-1.4
						c-1.2-1.2-2.5-2.2-4-2.9c-1.4-0.7-3-1.3-4.5-1.5c-1.6-0.3-3.2-0.3-4.8-0.1c-0.9,0.1-1.8,0.3-2.6,0.5c-0.8,0.2-1.7,0.6-2.4,0.9
						c-1.5,0.7-2.9,1.7-4.1,2.8c-1.2,1.1-2.3,2.5-3.1,3.9c-0.8,1.4-1.4,2.9-1.7,4.5c-0.3,1.6-0.4,3.2-0.3,4.8
						c0.2,1.6,0.5,3.2,1.1,4.7c0.3,0.8,0.7,1.6,1.2,2.4c0.5,0.8,1,1.5,1.6,2.2c1.1,1.3,2.4,2.3,3.8,3.2c0.8,0.5,1.6,0.8,2.4,1.2
						c0.7,0.3,1.4,0.5,2.1,0.7c1.5,0.4,3.2,0.5,4.7,0.5c1.6-0.1,3.2-0.4,4.7-1c0.8-0.3,1.7-0.7,2.4-1.1c0.8-0.4,1.5-1,2.2-1.5
						c1.3-1,2.4-2.3,3.4-3.7c0.9-1.3,1.6-2.9,2-4.4c0.2-0.9,0.4-1.7,0.5-2.6c0.1-0.7,0.1-1.4,0.1-2.1c0-1.6-0.3-3.2-0.8-4.7
						c-0.5-1.5-1.2-3-2.2-4.3c-0.5-0.7-1.1-1.4-1.7-2c-0.4-0.4-0.9-0.6-1.4-0.6c-0.5,0-1.1,0.2-1.4,0.6c-0.4,0.4-0.6,0.9-0.6,1.4
						C58,54.1,58.2,54.6,58.6,55z"/>
				</g>
			</g>
			<g>
				<g>
					<path class="st1" d="M41.4,75c0.2-0.2,0.4-0.4,0.5-0.5c0.5-0.5,1-1,1.5-1.5c0.7-0.7,1.4-1.4,2.1-2.1c0.9-0.9,1.8-1.8,2.6-2.6
						c1-1,1.9-1.9,2.9-2.9c1-1,1.9-1.9,2.9-2.9c0.9-0.9,1.8-1.8,2.7-2.7c0.8-0.8,1.5-1.5,2.3-2.3c0.5-0.5,1.1-1.1,1.6-1.6
						c0.3-0.3,0.5-0.5,0.8-0.8c0,0,0,0,0,0c0.4-0.4,0.6-0.9,0.6-1.4c0-0.5-0.2-1.1-0.6-1.4c-0.4-0.4-0.9-0.6-1.4-0.6
						c-0.5,0-1,0.2-1.4,0.6c-0.2,0.2-0.4,0.4-0.5,0.5c-0.5,0.5-1,1-1.5,1.5c-0.7,0.7-1.4,1.4-2.1,2.1c-0.9,0.9-1.8,1.8-2.6,2.6
						c-1,1-1.9,1.9-2.9,2.9c-1,1-1.9,1.9-2.9,2.9c-0.9,0.9-1.8,1.8-2.7,2.7c-0.8,0.8-1.5,1.5-2.3,2.3c-0.5,0.5-1.1,1.1-1.6,1.6
						c-0.3,0.3-0.5,0.5-0.8,0.8c0,0,0,0,0,0c-0.4,0.4-0.6,0.9-0.6,1.4c0,0.5,0.2,1.1,0.6,1.4c0.4,0.4,0.9,0.6,1.4,0.6
						C40.5,75.6,41.1,75.4,41.4,75L41.4,75z"/>
				</g>
			</g>
		</g>
	</g>
</g>
</svg>
