<?xml version="1.0" encoding="utf-8"?>
<!-- Generator: Adobe Illustrator 23.0.1, SVG Export Plug-In . SVG Version: 6.00 Build 0)  -->
<svg version="1.1" id="Layer_1" xmlns="http://www.w3.org/2000/svg" xmlns:xlink="http://www.w3.org/1999/xlink" x="0px" y="0px"
	 viewBox="0 0 100 100" style="enable-background:new 0 0 100 100;" xml:space="preserve">
<style type="text/css">
	.st0{fill:#ED4036;}
	.st1{fill:#37363C;}
</style>
<g>
	<g>
		<path class="st0" d="M65.1,42.9h-15c-0.5,0-0.9,0.4-0.9,0.9s0.4,0.9,0.9,0.9h8.4v2.8c0,2.1,1.7,3.8,3.8,3.8c2.1,0,3.8-1.7,3.8-3.8
			v-3.8C66,43.3,65.6,42.9,65.1,42.9z M62.3,49.5c-1,0-1.9-0.8-1.9-1.9v-2.8h3.8v2.8C64.1,48.6,63.3,49.5,62.3,49.5z"/>
		<path class="st0" d="M45.6,38.9c0.2,0.2,0.4,0.3,0.7,0.3s0.5-0.1,0.7-0.3l1.2-1.2l1.2,1.2c0.2,0.2,0.4,0.3,0.7,0.3
			s0.5-0.1,0.7-0.3c0.4-0.4,0.4-1,0-1.3l-1.2-1.2l1.2-1.2c0.4-0.4,0.4-1,0-1.3s-1-0.4-1.3,0l-1.2,1.2L47,33.8c-0.4-0.4-1-0.4-1.3,0
			s-0.4,1,0,1.3l1.2,1.2l-1.2,1.2C45.3,37.9,45.3,38.5,45.6,38.9z"/>
		<path class="st0" d="M64.4,38.9c0.2,0.2,0.4,0.3,0.7,0.3c0.2,0,0.5-0.1,0.7-0.3l1.2-1.2l1.2,1.2c0.2,0.2,0.4,0.3,0.7,0.3
			c0.2,0,0.5-0.1,0.7-0.3c0.4-0.4,0.4-1,0-1.3l-1.2-1.2l1.2-1.2c0.4-0.4,0.4-1,0-1.3c-0.4-0.4-1-0.4-1.3,0l-1.2,1.2l-1.2-1.2
			c-0.4-0.4-1-0.4-1.3,0s-0.4,1,0,1.3l1.2,1.2l-1.2,1.2C64,37.9,64,38.5,64.4,38.9z"/>
	</g>
	<path class="st1" d="M7.9,98.3l24.5-24.5c15.9,12.8,39.3,11.8,54-2.9c7.7-7.7,11.9-17.8,11.9-28.6s-4.2-21-11.9-28.6
		c-7.6-7.8-17.8-12-28.6-12s-21,4.2-28.6,11.9c-7.7,7.7-11.9,17.8-11.9,28.6c0,9.3,3.1,18.2,8.9,25.4L1.7,92.1L7.9,98.3z M26.1,42.2
		c0-8.5,3.3-16.4,9.3-22.4s14-9.3,22.4-9.3s16.4,3.3,22.4,9.3s9.3,14,9.3,22.4c0,8.5-3.3,16.4-9.3,22.4C67.9,77,47.7,77,35.4,64.6
		C29.4,58.6,26.1,50.7,26.1,42.2z"/>
</g>
</svg>
