<?xml version="1.0" encoding="utf-8"?>
<!-- Generator: Adobe Illustrator 23.0.1, SVG Export Plug-In . SVG Version: 6.00 Build 0)  -->
<svg version="1.1" id="Layer_1" xmlns="http://www.w3.org/2000/svg" xmlns:xlink="http://www.w3.org/1999/xlink" x="0px" y="0px"
	 viewBox="0 0 43.3 75.5" style="enable-background:new 0 0 43.3 75.5;" xml:space="preserve">
<style type="text/css">
	.st0{fill:#ED4036;}
</style>
<path class="st0" d="M38.4,4.4h-6.5c-0.3-2.4-2.3-4.2-4.8-4.2h-11c-2.4,0-4.5,1.8-4.8,4.2H4.8C2.2,4.4,0,6.6,0,9.2v57.3
	c0,2.6,2.2,4.8,4.8,4.8h6.5c0.3,2.4,2.3,4.2,4.8,4.2h11.1c2.4,0,4.5-1.8,4.8-4.2h6.5c2.6,0,4.8-2.2,4.8-4.8V9.3
	C43.2,6.6,41,4.4,38.4,4.4z M2.4,12.7h2.2v50.4H2.4V12.7z M7.1,12.7h2.1v50.4H7.1V12.7z M11.6,12.7h2.8v50.4h-2.8V12.7z M16.8,12.7
	h3.6v50.4h-3.6V12.7z M22.8,12.7h3.6v50.4h-3.6V12.7z M28.8,12.7h2.8v50.4h-2.8V12.7z M34.1,12.7h2.1v50.4h-2.1V12.7z M38.5,12.7
	h2.2v50.4h-2.2V12.7z M16.1,2.7h11.1c1.1,0,2.1,0.8,2.3,1.8H13.7C14,3.4,14.9,2.7,16.1,2.7z M4.8,6.9h33.6c1.3,0,2.4,1.1,2.4,2.4v1
	H2.4v-1C2.4,7.9,3.5,6.9,4.8,6.9z M27.1,73.1h-11c-1.1,0-2.1-0.8-2.3-1.8h15.7C29.2,72.4,28.3,73.1,27.1,73.1z M38.4,69H4.8
	c-1.3,0-2.4-1.1-2.4-2.4v-1.1h38.4v1.1C40.8,67.9,39.7,69,38.4,69z"/>
</svg>
