<?xml version="1.0" encoding="utf-8"?>
<!-- Generator: Adobe Illustrator 23.0.1, SVG Export Plug-In . SVG Version: 6.00 Build 0)  -->
<svg version="1.1" id="Layer_1" xmlns="http://www.w3.org/2000/svg" xmlns:xlink="http://www.w3.org/1999/xlink" x="0px" y="0px"
	 viewBox="0 0 48 48.2" style="enable-background:new 0 0 48 48.2;" xml:space="preserve">
<style type="text/css">
	.st0{fill:#EDEDED;}
	.st1{fill:#37363C;}
	.st2{fill:#EE4036;}
</style>
<title>4-Product</title>
<path class="st0" d="M43,48H5c-2.8,0-5-2.2-5-5V5c0-2.8,2.2-5,5-5h38c2.8,0,5,2.2,5,5v38C48,45.8,45.8,48,43,48z M5,2
	C3.3,2,2,3.3,2,5v38c0,1.7,1.3,3,3,3h38c1.7,0,3-1.3,3-3V5c0-1.7-1.3-3-3-3H5z"/>
<path class="st1" d="M30,19H18c-1.7,0-3-1.3-3-3V1c0-0.6,0.4-1,1-1s1,0.4,1,1v15c0,0.6,0.4,1,1,1h12c0.6,0,1-0.4,1-1V1
	c0-0.6,0.4-1,1-1c0.6,0,1,0.4,1,1v15C33,17.7,31.7,19,30,19z"/>
<path class="st2" d="M28,14h-8c-0.6,0-1-0.4-1-1s0.4-1,1-1h8c0.6,0,1,0.4,1,1S28.6,14,28,14z"/>
<path class="st2" d="M12,42H8c-1.1,0-2-0.9-2-2v-4c0-1.1,0.9-2,2-2h4c1.1,0,2,0.9,2,2v4C14,41.1,13.1,42,12,42z M8,36v4h4v-4H8z"/>
<path class="st2" d="M25,37h-7c-0.6,0-1-0.4-1-1s0.4-1,1-1h7c0.6,0,1,0.4,1,1S25.6,37,25,37z"/>
<path class="st2" d="M21,41h-3c-0.6,0-1-0.4-1-1s0.4-1,1-1h3c0.6,0,1,0.4,1,1S21.6,41,21,41z"/>
<path class="st2" d="M28,41h-3c-0.6,0-1-0.4-1-1s0.4-1,1-1h3c0.6,0,1,0.4,1,1S28.6,41,28,41z"/>
</svg>
