<?xml version="1.0" encoding="utf-8"?>
<!-- Generator: Adobe Illustrator 23.0.1, SVG Export Plug-In . SVG Version: 6.00 Build 0)  -->
<svg version="1.1" id="Layer_1" xmlns="http://www.w3.org/2000/svg" xmlns:xlink="http://www.w3.org/1999/xlink" x="0px" y="0px"
	 viewBox="0 0 64 55.8" style="enable-background:new 0 0 64 55.8;" xml:space="preserve">
<style type="text/css">
	.st0{fill:#E0E0E0;}
</style>
<title>security-safety-concept-protection-data</title>
<g>
	<g>
		<path class="st0" d="M61,48H3c-0.6,0-1,0.4-1,1v2c0,1.7,1.3,3,3,3h54c1.7,0,3-1.3,3-3v-2C62,48.4,61.6,48,61,48z M60,51
			c0,0.6-0.4,1-1,1H5c-0.6,0-1-0.4-1-1v-1h56V51z"/>
		<rect x="52" y="28" class="st0" width="2" height="18"/>
		<path class="st0" d="M12,20h3v-2h-4c-0.6,0-1,0.4-1,1v27h2V20z"/>
		<path class="st0" d="M30.7,45.3l0.6,0.5c0.4,0.3,0.9,0.3,1.2,0l0.6-0.5c6.2-4.9,10.6-11.6,12.6-19.3h8.3c0.6,2.1,2.7,3.4,4.9,2.9
			c2.1-0.6,3.4-2.7,2.9-4.9s-2.7-3.4-4.9-2.9c-1.4,0.4-2.5,1.5-2.9,2.9h-7.8c0.5-2.3,0.7-4.6,0.7-7c0-0.3-0.1-0.6-0.4-0.8
			C46.3,16,46,16,45.7,16c-4,1.1-8.2,0-11.2-2.9l-1.9-1.9c-0.4-0.4-1-0.4-1.4,0l-1.9,1.9c-2.9,2.9-7.2,4-11.2,2.9
			c-0.3-0.1-0.6,0-0.9,0.2C17.1,16.4,17,16.7,17,17C17,28,22,38.5,30.7,45.3z M58,23c1.1,0,2,0.9,2,2s-0.9,2-2,2s-2-0.9-2-2
			S56.9,23,58,23z M30.9,14.6l1.1-1.1l1.1,1.1c3.1,3.1,7.5,4.5,11.8,3.7c-0.1,1.9-0.3,3.8-0.7,5.7h-7.4c-0.6-2.7-3.2-4.4-5.9-3.9
			s-4.4,3.2-3.9,5.9c0.2,1.2,0.9,2.3,1.9,3v5c0,0.6,0.4,1,1,1h4c0.6,0,1-0.4,1-1v-5c1-0.7,1.6-1.8,1.9-3h6.9
			c-1.9,7-6,13.2-11.8,17.7l0,0l0,0c-7.9-6.1-12.6-15.5-13-25.5C23.3,19,27.8,17.7,30.9,14.6z M34.8,26c-0.2,0.7-0.7,1.2-1.3,1.6
			c-0.3,0.2-0.5,0.5-0.5,0.9V33h-2v-4.5c0-0.4-0.2-0.7-0.5-0.9c-1.4-0.8-1.9-2.6-1.1-4.1c0.8-1.4,2.6-1.9,4.1-1.1
			c0.6,0.4,1.1,0.9,1.4,1.6H31v2H34.8z"/>
		<rect x="20" y="44" class="st0" width="2" height="2"/>
		<path class="st0" d="M14,42v3c0,0.6,0.4,1,1,1h3v-2h-2v-2H14z"/>
		<path class="st0" d="M52,22h2v-3c0-0.6-0.4-1-1-1h-4v2h3V22z"/>
		<rect x="31" y="2" class="st0" width="2" height="5"/>
		<rect x="39" y="5" transform="matrix(0.5998 -0.8001 0.8001 0.5998 11.8056 35.6056)" class="st0" width="5" height="2"/>
		<rect x="21.5" y="3.5" transform="matrix(0.8 -0.6 0.6 0.8 0.8998 14.6998)" class="st0" width="2" height="5"/>
	</g>
</g>
</svg>
