<?xml version="1.0" encoding="utf-8"?>
<!-- Generator: Adobe Illustrator 22.1.0, SVG Export Plug-In . SVG Version: 6.00 Build 0)  -->
<svg version="1.1" id="Layer_1" xmlns="http://www.w3.org/2000/svg" xmlns:xlink="http://www.w3.org/1999/xlink" x="0px" y="0px"
	 viewBox="0 0 350 139" style="enable-background:new 0 0 350 139;" xml:space="preserve">
<style type="text/css">
	.st0{fill:#37363D;}
	.st1{fill:#EE4036;}
</style>
<path class="st0" d="M170.8,124.3c0,1.3-0.5,2.3-1.4,3.1c-0.9,0.8-2.2,1.1-3.8,1.1c-2.1,0-3.8-0.7-5.1-2l1.1-1.1
	c1.1,1.1,2.5,1.6,4.1,1.6c1.1,0,2-0.2,2.6-0.7c0.6-0.5,0.9-1.2,0.9-2c0-0.8-0.2-1.5-0.7-1.9c-0.4-0.3-1-0.6-2-0.7l-1.7-0.3
	c-2.6-0.4-3.9-1.7-3.9-3.9c0-1.3,0.4-2.3,1.3-3.1c0.9-0.8,2-1.2,3.5-1.2c1.8,0,3.2,0.5,4.5,1.6l-1,1c-0.9-0.9-2.1-1.3-3.5-1.3
	c-1,0-1.8,0.3-2.3,0.8c-0.6,0.5-0.8,1.2-0.8,2c0,0.8,0.2,1.3,0.7,1.7c0.5,0.4,1.1,0.7,2,0.8l1.6,0.3c1.2,0.2,2.1,0.5,2.7,1.1
	C170.4,122,170.8,123,170.8,124.3"/>
<path class="st0" d="M182.1,123.2c0,2.1-0.4,3.6-1.3,4.4c-0.6,0.6-1.4,0.9-2.5,0.9c-1.2,0-2.2-0.4-2.9-1.3v5.8h-1.5v-15h1.5v1.2
	c0.7-0.9,1.7-1.3,2.9-1.3c1.1,0,1.9,0.3,2.5,0.9C181.7,119.7,182.1,121.1,182.1,123.2 M180.6,123.2c0-1.2-0.1-2.1-0.4-2.7
	c-0.4-0.8-1.1-1.2-2.1-1.2c-1,0-1.7,0.4-2.1,1.2c-0.3,0.6-0.5,1.5-0.5,2.7c0,1.2,0.2,2.1,0.5,2.7c0.4,0.8,1.1,1.2,2.1,1.2
	c1,0,1.7-0.4,2.1-1.2C180.4,125.3,180.6,124.4,180.6,123.2"/>
<path class="st0" d="M192.7,128.4h-1.5v-1c-0.7,0.7-1.7,1.1-3,1.1c-1.3,0-2.3-0.3-2.9-0.9c-0.5-0.5-0.8-1.2-0.8-2.1
	c0-0.9,0.3-1.7,0.9-2.2c0.6-0.5,1.5-0.8,2.6-0.8h3.1v-1c0-1.5-0.9-2.3-2.6-2.3c-1.2,0-2,0.4-2.6,1.2l-1-0.9c0.5-0.6,1-1,1.6-1.2
	c0.5-0.2,1.2-0.3,2.1-0.3c2.8,0,4.1,1.1,4.1,3.4V128.4z M191.2,124.7v-1.1h-2.9c-1.5,0-2.3,0.6-2.3,1.8c0,1.2,0.8,1.8,2.4,1.8
	c1.1,0,1.8-0.2,2.3-0.7C191,126.2,191.2,125.6,191.2,124.7"/>
<path class="st0" d="M203.3,118.9l-1.1,1.1c-0.5-0.5-1.1-0.8-1.8-0.8c-0.7,0-1.3,0.3-1.8,0.8c-0.5,0.5-0.7,1.2-0.7,2v6.3h-1.5V118
	h1.5v1.3c0.6-0.9,1.6-1.4,2.9-1.4C201.8,117.9,202.6,118.2,203.3,118.9"/>
<path class="st0" d="M213.1,123.6h-7c0,1.1,0.3,2,0.8,2.6c0.5,0.6,1.3,0.9,2.3,0.9c1,0,1.9-0.4,2.7-1.2l1,0.9
	c-0.6,0.6-1.1,1-1.6,1.2c-0.6,0.3-1.3,0.4-2.2,0.4c-1.4,0-2.5-0.4-3.3-1.3c-0.8-0.9-1.2-2.2-1.2-4c0-1.7,0.4-3,1.1-3.9
	c0.8-0.9,1.8-1.4,3.1-1.4c1.3,0,2.4,0.4,3.1,1.3c0.7,0.9,1.1,2.1,1.1,3.7V123.6z M211.6,122.5c0-0.7-0.1-1.3-0.3-1.7
	c-0.4-1-1.2-1.6-2.4-1.6c-1.2,0-2,0.5-2.4,1.6c-0.2,0.4-0.3,1-0.3,1.7H211.6z"/>
<path class="st0" d="M229.8,123.2c0,2.1-0.4,3.6-1.3,4.4c-0.6,0.6-1.4,0.9-2.5,0.9c-1.2,0-2.2-0.4-2.9-1.3v5.8h-1.5v-15h1.5v1.2
	c0.7-0.9,1.7-1.3,2.9-1.3c1.1,0,1.9,0.3,2.5,0.9C229.4,119.7,229.8,121.1,229.8,123.2 M228.3,123.2c0-1.2-0.1-2.1-0.4-2.7
	c-0.4-0.8-1.1-1.2-2.1-1.2c-1,0-1.7,0.4-2.1,1.2c-0.3,0.6-0.5,1.5-0.5,2.7c0,1.2,0.2,2.1,0.5,2.7c0.4,0.8,1.1,1.2,2.1,1.2
	c1,0,1.7-0.4,2.1-1.2C228.1,125.3,228.3,124.4,228.3,123.2"/>
<path class="st0" d="M240.4,128.4h-1.5v-1c-0.7,0.7-1.7,1.1-3,1.1c-1.3,0-2.3-0.3-2.9-0.9c-0.5-0.5-0.8-1.2-0.8-2.1
	c0-0.9,0.3-1.7,0.9-2.2c0.6-0.5,1.5-0.8,2.6-0.8h3.1v-1c0-1.5-0.9-2.3-2.6-2.3c-1.2,0-2,0.4-2.6,1.2l-1-0.9c0.5-0.6,1-1,1.6-1.2
	c0.5-0.2,1.2-0.3,2.1-0.3c2.8,0,4.1,1.1,4.1,3.4V128.4z M238.9,124.7v-1.1H236c-1.5,0-2.3,0.6-2.3,1.8c0,1.2,0.8,1.8,2.4,1.8
	c1.1,0,1.8-0.2,2.3-0.7C238.7,126.2,238.9,125.6,238.9,124.7"/>
<path class="st0" d="M251,118.9l-1.1,1.1c-0.5-0.5-1.1-0.8-1.8-0.8c-0.7,0-1.3,0.3-1.8,0.8c-0.5,0.5-0.7,1.2-0.7,2v6.3h-1.5V118h1.5
	v1.3c0.6-0.9,1.6-1.4,2.9-1.4C249.5,117.9,250.3,118.2,251,118.9"/>
<path class="st0" d="M256.9,128.4h-1.1c-0.9,0-1.5-0.3-2-0.8c-0.4-0.5-0.7-1.1-0.7-2v-6.3h-1.3v-1.2h1.3v-3.2h1.5v3.2h2.2v1.2h-2.2
	v6.3c0,1,0.5,1.5,1.4,1.5h0.8V128.4z"/>
<path class="st0" d="M267.4,125.4c0,1-0.4,1.8-1.1,2.3c-0.8,0.6-1.8,0.8-3.1,0.8c-1.8,0-3.2-0.5-4.2-1.5l1-1
	c0.8,0.8,1.8,1.2,3.2,1.2c1.8,0,2.8-0.6,2.8-1.8c0-0.9-0.6-1.4-1.7-1.5l-1.7-0.1c-2.1-0.2-3.1-1.1-3.1-2.8c0-0.9,0.4-1.7,1.1-2.2
	c0.7-0.5,1.6-0.8,2.7-0.8c1.6,0,2.8,0.4,3.7,1.1l-1,1c-0.7-0.5-1.6-0.8-2.8-0.8c-1.5,0-2.3,0.6-2.3,1.7c0,0.9,0.6,1.4,1.8,1.5
	l1.7,0.1C266.4,122.7,267.4,123.7,267.4,125.4"/>
<path class="st0" d="M287.8,128.4h-2l-1.3-1.6c-1.3,1.2-2.7,1.8-4.4,1.8c-1.4,0-2.6-0.4-3.4-1.2c-0.9-0.8-1.3-1.8-1.3-3.2
	c0-1,0.3-1.9,1-2.7c0.4-0.5,1.2-1.1,2.2-1.8c-0.5-0.6-0.9-1.1-1.1-1.5c-0.4-0.6-0.5-1.2-0.5-1.8c0-0.9,0.3-1.6,0.9-2.2
	c0.6-0.6,1.4-0.9,2.4-0.9c0.9,0,1.7,0.3,2.3,0.9c0.6,0.6,0.9,1.3,0.9,2.2c0,1-0.5,1.9-1.7,2.7c-0.3,0.2-0.6,0.4-1.1,0.8l3.8,4.6
	c0.5-0.8,0.8-2,0.8-3.4h1.5c0,2-0.5,3.5-1.4,4.6L287.8,128.4z M283.5,125.6l-4.1-5c-0.9,0.6-1.5,1.1-1.8,1.4c-0.5,0.6-0.8,1.3-0.8,2
	c0,0.9,0.3,1.6,0.9,2.2c0.6,0.5,1.3,0.8,2.3,0.8C281.3,127.1,282.4,126.6,283.5,125.6 M281.9,116.4c0-0.5-0.2-0.9-0.5-1.3
	c-0.3-0.3-0.8-0.5-1.3-0.5c-0.5,0-0.9,0.2-1.2,0.5c-0.3,0.3-0.5,0.7-0.5,1.3c0,0.5,0.4,1.4,1.3,2.5c0.2-0.1,0.4-0.3,0.8-0.5
	C281.5,117.7,281.9,117.1,281.9,116.4"/>
<path class="st0" d="M311.1,128.4h-1.5V122c0-1.8-0.9-2.8-2.5-2.8c-0.8,0-1.4,0.2-1.9,0.7c-0.5,0.5-0.7,1.1-0.7,1.9v6.5h-1.5V122
	c0-1.8-0.8-2.8-2.5-2.8c-0.8,0-1.4,0.2-1.9,0.7c-0.5,0.5-0.7,1.2-0.7,2v6.4h-1.5V118h1.5v1.1c0.7-0.8,1.7-1.3,2.9-1.3
	c1.5,0,2.5,0.6,3.2,1.7c0.8-1.1,2-1.7,3.4-1.7c1.1,0,2,0.3,2.7,1c0.7,0.7,1.1,1.7,1.1,2.9V128.4z"/>
<path class="st0" d="M322.7,123.2c0,1.9-0.4,3.3-1.3,4.1c-0.8,0.8-1.8,1.2-3,1.2c-1.2,0-2.2-0.4-3-1.2c-0.8-0.9-1.3-2.2-1.3-4.1
	c0-1.9,0.4-3.3,1.3-4.1c0.8-0.8,1.8-1.2,3-1.2c1.2,0,2.2,0.4,3,1.2C322.3,119.9,322.7,121.3,322.7,123.2 M321.2,123.2
	c0-1.6-0.3-2.6-0.8-3.2c-0.5-0.5-1.1-0.8-1.9-0.8c-0.7,0-1.4,0.3-1.9,0.8c-0.6,0.6-0.8,1.6-0.8,3.2c0,1.6,0.3,2.6,0.8,3.2
	c0.5,0.5,1.1,0.8,1.9,0.8c0.8,0,1.4-0.3,1.9-0.8C320.9,125.8,321.2,124.8,321.2,123.2"/>
<path class="st0" d="M332.8,118.9l-1.1,1.1c-0.5-0.5-1.1-0.8-1.8-0.8c-0.7,0-1.3,0.3-1.8,0.8c-0.5,0.5-0.7,1.2-0.7,2v6.3h-1.5V118
	h1.5v1.3c0.6-0.9,1.6-1.4,2.9-1.4C331.3,117.9,332.2,118.2,332.8,118.9"/>
<path class="st0" d="M342.7,123.6h-7c0,1.1,0.3,2,0.8,2.6c0.5,0.6,1.3,0.9,2.3,0.9c1,0,1.9-0.4,2.7-1.2l1,0.9
	c-0.6,0.6-1.1,1-1.6,1.2c-0.6,0.3-1.3,0.4-2.2,0.4c-1.4,0-2.5-0.4-3.3-1.3c-0.8-0.9-1.2-2.2-1.2-4c0-1.7,0.4-3,1.1-3.9
	c0.8-0.9,1.8-1.4,3.1-1.4c1.3,0,2.4,0.4,3.1,1.3c0.7,0.9,1.1,2.1,1.1,3.7V123.6z M341.2,122.5c0-0.7-0.1-1.3-0.3-1.7
	c-0.4-1-1.2-1.6-2.4-1.6c-1.2,0-2,0.5-2.4,1.6c-0.2,0.4-0.3,1-0.3,1.7H341.2z"/>
<path class="st1" d="M114.6,106.8c9-10.7,14.4-24.4,14.4-39.5C129,33.4,101.5,6,67.7,6C33.8,6,6.3,33.4,6.3,67.3
	c0,33.9,27.4,61.3,61.3,61.3c8.1,0,15.8-1.6,22.9-4.4l-12.7-19.5c-3.2,0.9-6.7,1.4-10.2,1.4c-21.4,0-38.8-17.4-38.8-38.8
	c0-21.4,17.4-38.8,38.8-38.8c21.4,0,38.8,17.4,38.8,38.8c0,7.2-2,13.9-5.4,19.7l-3.5-5.2H70.3l14.4,21.2l12.8,18.9l4.7,6.8h27.3
	L114.6,106.8z"/>
<path class="st0" d="M192,67.9c0,3.9-1.3,7.1-3.9,9.7c-2.7,2.7-6.3,4.1-10.8,4.1h-8.5v16.7h-8.7V54.1h17.2c4.4,0,8,1.4,10.8,4.1
	C190.7,60.8,192,64,192,67.9 M183.3,67.9c0-1.8-0.6-3.3-1.7-4.4c-1.2-1.1-2.7-1.7-4.7-1.7h-8.1V74h8.1c2,0,3.5-0.5,4.7-1.7
	C182.8,71.2,183.3,69.8,183.3,67.9"/>
<path class="st0" d="M233.5,98.5h-9l-2.6-7.8h-15.8l-2.7,7.8h-9l16.1-44.3h6.8L233.5,98.5z M219.6,83.3l-5.4-16.1l-5.6,16.1H219.6z"
	/>
<path class="st0" d="M272.6,98.5h-10l-8.7-17.7h-6.2v17.7H239V54.1h17.4c4.4,0,7.9,1.3,10.6,4c2.5,2.5,3.8,5.7,3.8,9.6
	c0,2.9-0.8,5.5-2.4,7.6c-1.5,1.9-3.3,3.2-5.7,4L272.6,98.5z M262.1,67.7c0-1.7-0.6-3.1-1.7-4.2c-1.2-1.1-2.7-1.6-4.5-1.6h-8.2v11.6
	h8.2c1.9,0,3.4-0.5,4.5-1.6C261.5,70.8,262.1,69.4,262.1,67.7"/>
<polygon class="st0" points="308.3,61.8 296.7,61.8 296.7,98.5 288,98.5 288,61.8 276.4,61.8 276.4,54.1 308.3,54.1 "/>
<path class="st0" d="M344,85.4c0,4.2-1.5,7.5-4.6,9.9c-3.1,2.4-7,3.6-11.8,3.6c-6.9,0-12.3-2-16.2-5.9l5.6-5.6
	c2.5,2.5,6.1,3.7,10.7,3.7c5.2,0,7.8-1.8,7.8-5.5c0-1.7-0.4-2.9-1.3-3.7c-0.9-0.8-2.2-1.3-4-1.6l-5.4-0.7
	c-7.8-1.1-11.8-5.2-11.8-12.4c0-4,1.4-7.3,4.2-9.7c2.8-2.5,6.5-3.7,11.3-3.7c6,0,10.7,1.7,14.3,5.2l-5.5,5.4c-2.1-2-5.1-3.1-9.1-3.1
	c-2.2,0-3.9,0.5-5.1,1.6c-1.2,1.1-1.8,2.4-1.8,4c0,1.3,0.5,2.4,1.4,3.2c0.9,0.9,2.3,1.4,4,1.7l5.2,0.7c3.8,0.5,6.6,1.7,8.5,3.4
	C342.9,78.1,344,81.3,344,85.4"/>
<path class="st0" d="M170.8,124.3c0,1.3-0.5,2.3-1.4,3.1c-0.9,0.8-2.2,1.1-3.8,1.1c-2.1,0-3.8-0.7-5.1-2l1.1-1.1
	c1.1,1.1,2.5,1.6,4.1,1.6c1.1,0,2-0.2,2.6-0.7c0.6-0.5,0.9-1.2,0.9-2c0-0.8-0.2-1.5-0.7-1.9c-0.4-0.3-1-0.6-2-0.7l-1.7-0.3
	c-2.6-0.4-3.9-1.7-3.9-3.9c0-1.3,0.4-2.3,1.3-3.1c0.9-0.8,2-1.2,3.5-1.2c1.8,0,3.2,0.5,4.5,1.6l-1,1c-0.9-0.9-2.1-1.3-3.5-1.3
	c-1,0-1.8,0.3-2.3,0.8c-0.6,0.5-0.8,1.2-0.8,2c0,0.8,0.2,1.3,0.7,1.7c0.5,0.4,1.1,0.7,2,0.8l1.6,0.3c1.2,0.2,2.1,0.5,2.7,1.1
	C170.4,122,170.8,123,170.8,124.3"/>
<path class="st0" d="M182.1,123.2c0,2.1-0.4,3.6-1.3,4.4c-0.6,0.6-1.4,0.9-2.5,0.9c-1.2,0-2.2-0.4-2.9-1.3v5.8h-1.5v-15h1.5v1.2
	c0.7-0.9,1.7-1.3,2.9-1.3c1.1,0,1.9,0.3,2.5,0.9C181.7,119.7,182.1,121.1,182.1,123.2 M180.6,123.2c0-1.2-0.1-2.1-0.4-2.7
	c-0.4-0.8-1.1-1.2-2.1-1.2c-1,0-1.7,0.4-2.1,1.2c-0.3,0.6-0.5,1.5-0.5,2.7c0,1.2,0.2,2.1,0.5,2.7c0.4,0.8,1.1,1.2,2.1,1.2
	c1,0,1.7-0.4,2.1-1.2C180.4,125.3,180.6,124.4,180.6,123.2"/>
<path class="st0" d="M192.7,128.4h-1.5v-1c-0.7,0.7-1.7,1.1-3,1.1c-1.3,0-2.3-0.3-2.9-0.9c-0.5-0.5-0.8-1.2-0.8-2.1
	c0-0.9,0.3-1.7,0.9-2.2c0.6-0.5,1.5-0.8,2.6-0.8h3.1v-1c0-1.5-0.9-2.3-2.6-2.3c-1.2,0-2,0.4-2.6,1.2l-1-0.9c0.5-0.6,1-1,1.6-1.2
	c0.5-0.2,1.2-0.3,2.1-0.3c2.8,0,4.1,1.1,4.1,3.4V128.4z M191.2,124.7v-1.1h-2.9c-1.5,0-2.3,0.6-2.3,1.8c0,1.2,0.8,1.8,2.4,1.8
	c1.1,0,1.8-0.2,2.3-0.7C191,126.2,191.2,125.6,191.2,124.7"/>
<path class="st0" d="M203.3,118.9l-1.1,1.1c-0.5-0.5-1.1-0.8-1.8-0.8c-0.7,0-1.3,0.3-1.8,0.8c-0.5,0.5-0.7,1.2-0.7,2v6.3h-1.5V118
	h1.5v1.3c0.6-0.9,1.6-1.4,2.9-1.4C201.8,117.9,202.6,118.2,203.3,118.9"/>
<path class="st0" d="M213.1,123.6h-7c0,1.1,0.3,2,0.8,2.6c0.5,0.6,1.3,0.9,2.3,0.9c1,0,1.9-0.4,2.7-1.2l1,0.9
	c-0.6,0.6-1.1,1-1.6,1.2c-0.6,0.3-1.3,0.4-2.2,0.4c-1.4,0-2.5-0.4-3.3-1.3c-0.8-0.9-1.2-2.2-1.2-4c0-1.7,0.4-3,1.1-3.9
	c0.8-0.9,1.8-1.4,3.1-1.4c1.3,0,2.4,0.4,3.1,1.3c0.7,0.9,1.1,2.1,1.1,3.7V123.6z M211.6,122.5c0-0.7-0.1-1.3-0.3-1.7
	c-0.4-1-1.2-1.6-2.4-1.6c-1.2,0-2,0.5-2.4,1.6c-0.2,0.4-0.3,1-0.3,1.7H211.6z"/>
<path class="st0" d="M229.8,123.2c0,2.1-0.4,3.6-1.3,4.4c-0.6,0.6-1.4,0.9-2.5,0.9c-1.2,0-2.2-0.4-2.9-1.3v5.8h-1.5v-15h1.5v1.2
	c0.7-0.9,1.7-1.3,2.9-1.3c1.1,0,1.9,0.3,2.5,0.9C229.4,119.7,229.8,121.1,229.8,123.2 M228.3,123.2c0-1.2-0.1-2.1-0.4-2.7
	c-0.4-0.8-1.1-1.2-2.1-1.2c-1,0-1.7,0.4-2.1,1.2c-0.3,0.6-0.5,1.5-0.5,2.7c0,1.2,0.2,2.1,0.5,2.7c0.4,0.8,1.1,1.2,2.1,1.2
	c1,0,1.7-0.4,2.1-1.2C228.1,125.3,228.3,124.4,228.3,123.2"/>
<path class="st0" d="M240.4,128.4h-1.5v-1c-0.7,0.7-1.7,1.1-3,1.1c-1.3,0-2.3-0.3-2.9-0.9c-0.5-0.5-0.8-1.2-0.8-2.1
	c0-0.9,0.3-1.7,0.9-2.2c0.6-0.5,1.5-0.8,2.6-0.8h3.1v-1c0-1.5-0.9-2.3-2.6-2.3c-1.2,0-2,0.4-2.6,1.2l-1-0.9c0.5-0.6,1-1,1.6-1.2
	c0.5-0.2,1.2-0.3,2.1-0.3c2.8,0,4.1,1.1,4.1,3.4V128.4z M238.9,124.7v-1.1H236c-1.5,0-2.3,0.6-2.3,1.8c0,1.2,0.8,1.8,2.4,1.8
	c1.1,0,1.8-0.2,2.3-0.7C238.7,126.2,238.9,125.6,238.9,124.7"/>
<path class="st0" d="M251,118.9l-1.1,1.1c-0.5-0.5-1.1-0.8-1.8-0.8c-0.7,0-1.3,0.3-1.8,0.8c-0.5,0.5-0.7,1.2-0.7,2v6.3h-1.5V118h1.5
	v1.3c0.6-0.9,1.6-1.4,2.9-1.4C249.5,117.9,250.3,118.2,251,118.9"/>
<path class="st0" d="M256.9,128.4h-1.1c-0.9,0-1.5-0.3-2-0.8c-0.4-0.5-0.7-1.1-0.7-2v-6.3h-1.3v-1.2h1.3v-3.2h1.5v3.2h2.2v1.2h-2.2
	v6.3c0,1,0.5,1.5,1.4,1.5h0.8V128.4z"/>
<path class="st0" d="M267.4,125.4c0,1-0.4,1.8-1.1,2.3c-0.8,0.6-1.8,0.8-3.1,0.8c-1.8,0-3.2-0.5-4.2-1.5l1-1
	c0.8,0.8,1.8,1.2,3.2,1.2c1.8,0,2.8-0.6,2.8-1.8c0-0.9-0.6-1.4-1.7-1.5l-1.7-0.1c-2.1-0.2-3.1-1.1-3.1-2.8c0-0.9,0.4-1.7,1.1-2.2
	c0.7-0.5,1.6-0.8,2.7-0.8c1.6,0,2.8,0.4,3.7,1.1l-1,1c-0.7-0.5-1.6-0.8-2.8-0.8c-1.5,0-2.3,0.6-2.3,1.7c0,0.9,0.6,1.4,1.8,1.5
	l1.7,0.1C266.4,122.7,267.4,123.7,267.4,125.4"/>
<path class="st0" d="M287.8,128.4h-2l-1.3-1.6c-1.3,1.2-2.7,1.8-4.4,1.8c-1.4,0-2.6-0.4-3.4-1.2c-0.9-0.8-1.3-1.8-1.3-3.2
	c0-1,0.3-1.9,1-2.7c0.4-0.5,1.2-1.1,2.2-1.8c-0.5-0.6-0.9-1.1-1.1-1.5c-0.4-0.6-0.5-1.2-0.5-1.8c0-0.9,0.3-1.6,0.9-2.2
	c0.6-0.6,1.4-0.9,2.4-0.9c0.9,0,1.7,0.3,2.3,0.9c0.6,0.6,0.9,1.3,0.9,2.2c0,1-0.5,1.9-1.7,2.7c-0.3,0.2-0.6,0.4-1.1,0.8l3.8,4.6
	c0.5-0.8,0.8-2,0.8-3.4h1.5c0,2-0.5,3.5-1.4,4.6L287.8,128.4z M283.5,125.6l-4.1-5c-0.9,0.6-1.5,1.1-1.8,1.4c-0.5,0.6-0.8,1.3-0.8,2
	c0,0.9,0.3,1.6,0.9,2.2c0.6,0.5,1.3,0.8,2.3,0.8C281.3,127.1,282.4,126.6,283.5,125.6 M281.9,116.4c0-0.5-0.2-0.9-0.5-1.3
	c-0.3-0.3-0.8-0.5-1.3-0.5c-0.5,0-0.9,0.2-1.2,0.5c-0.3,0.3-0.5,0.7-0.5,1.3c0,0.5,0.4,1.4,1.3,2.5c0.2-0.1,0.4-0.3,0.8-0.5
	C281.5,117.7,281.9,117.1,281.9,116.4"/>
<path class="st0" d="M311.1,128.4h-1.5V122c0-1.8-0.9-2.8-2.5-2.8c-0.8,0-1.4,0.2-1.9,0.7c-0.5,0.5-0.7,1.1-0.7,1.9v6.5h-1.5V122
	c0-1.8-0.8-2.8-2.5-2.8c-0.8,0-1.4,0.2-1.9,0.7c-0.5,0.5-0.7,1.2-0.7,2v6.4h-1.5V118h1.5v1.1c0.7-0.8,1.7-1.3,2.9-1.3
	c1.5,0,2.5,0.6,3.2,1.7c0.8-1.1,2-1.7,3.4-1.7c1.1,0,2,0.3,2.7,1c0.7,0.7,1.1,1.7,1.1,2.9V128.4z"/>
<path class="st0" d="M322.7,123.2c0,1.9-0.4,3.3-1.3,4.1c-0.8,0.8-1.8,1.2-3,1.2c-1.2,0-2.2-0.4-3-1.2c-0.8-0.9-1.3-2.2-1.3-4.1
	c0-1.9,0.4-3.3,1.3-4.1c0.8-0.8,1.8-1.2,3-1.2c1.2,0,2.2,0.4,3,1.2C322.3,119.9,322.7,121.3,322.7,123.2 M321.2,123.2
	c0-1.6-0.3-2.6-0.8-3.2c-0.5-0.5-1.1-0.8-1.9-0.8c-0.7,0-1.4,0.3-1.9,0.8c-0.6,0.6-0.8,1.6-0.8,3.2c0,1.6,0.3,2.6,0.8,3.2
	c0.5,0.5,1.1,0.8,1.9,0.8c0.8,0,1.4-0.3,1.9-0.8C320.9,125.8,321.2,124.8,321.2,123.2"/>
<path class="st0" d="M332.8,118.9l-1.1,1.1c-0.5-0.5-1.1-0.8-1.8-0.8c-0.7,0-1.3,0.3-1.8,0.8c-0.5,0.5-0.7,1.2-0.7,2v6.3h-1.5V118
	h1.5v1.3c0.6-0.9,1.6-1.4,2.9-1.4C331.3,117.9,332.2,118.2,332.8,118.9"/>
<path class="st0" d="M342.7,123.6h-7c0,1.1,0.3,2,0.8,2.6c0.5,0.6,1.3,0.9,2.3,0.9c1,0,1.9-0.4,2.7-1.2l1,0.9
	c-0.6,0.6-1.1,1-1.6,1.2c-0.6,0.3-1.3,0.4-2.2,0.4c-1.4,0-2.5-0.4-3.3-1.3c-0.8-0.9-1.2-2.2-1.2-4c0-1.7,0.4-3,1.1-3.9
	c0.8-0.9,1.8-1.4,3.1-1.4c1.3,0,2.4,0.4,3.1,1.3c0.7,0.9,1.1,2.1,1.1,3.7V123.6z M341.2,122.5c0-0.7-0.1-1.3-0.3-1.7
	c-0.4-1-1.2-1.6-2.4-1.6c-1.2,0-2,0.5-2.4,1.6c-0.2,0.4-0.3,1-0.3,1.7H341.2z"/>
</svg>
