<?xml version="1.0" encoding="utf-8"?>
<!-- Generator: Adobe Illustrator 23.0.1, SVG Export Plug-In . SVG Version: 6.00 Build 0)  -->
<svg version="1.1" id="Layer_1" xmlns="http://www.w3.org/2000/svg" xmlns:xlink="http://www.w3.org/1999/xlink" x="0px" y="0px"
	 viewBox="0 0 134.1 139" style="enable-background:new 0 0 134.1 139;" xml:space="preserve">
<style type="text/css">
	.st0{fill:#EE4036;}
</style>
<path class="st0" d="M114.6,106.8c9-10.7,14.4-24.4,14.4-39.5C129,33.4,101.5,6,67.7,6C33.8,6,6.3,33.4,6.3,67.3
	s27.4,61.3,61.3,61.3c8.1,0,15.8-1.6,22.9-4.4l-12.7-19.5c-3.2,0.9-6.7,1.4-10.2,1.4c-21.4,0-38.8-17.4-38.8-38.8
	s17.4-38.8,38.8-38.8s38.8,17.4,38.8,38.8c0,7.2-2,13.9-5.4,19.7l-3.5-5.2H70.3L84.7,103l12.8,18.9l4.7,6.8h27.3L114.6,106.8z"/>
</svg>
