<?xml version="1.0" encoding="utf-8"?>
<!-- Generator: Adobe Illustrator 23.0.3, SVG Export Plug-In . SVG Version: 6.00 Build 0)  -->
<svg version="1.1" id="Layer_1" xmlns="http://www.w3.org/2000/svg" xmlns:xlink="http://www.w3.org/1999/xlink" x="0px" y="0px"
	 viewBox="0 0 336.2 139" style="enable-background:new 0 0 336.2 139;" xml:space="preserve">
<style type="text/css">
	.st0{fill:#EE4036;}
	.st1{fill:#37363D;}
</style>
<path class="st0" d="M316.3,107.6c9.4-11.1,15-25.4,15-41.1c0-35.2-28.6-63.8-63.8-63.8s-63.8,28.6-63.8,63.8s28.6,63.8,63.8,63.8
	c8.4,0,16.5-1.6,23.9-4.6l-13.3-20.2c-3.4,0.9-6.9,1.4-10.6,1.4c-22.2,0-40.3-18.1-40.3-40.3s18.1-40.3,40.3-40.3
	s40.3,18.1,40.3,40.3c0,7.5-2,14.5-5.6,20.5l-3.7-5.4h-28.4l15,22l13.4,19.6l4.8,7.1h28.4L316.3,107.6z"/>
<g>
	<g>
		<rect x="127" y="65.6" class="st1" width="6.5" height="6.3"/>
		<rect x="117.8" y="65.6" class="st1" width="6.5" height="6.3"/>
		<path class="st1" d="M171,37.6h-22.8l13.5-13.7h-8.9l-14.2,14.2v5.8h32.6c3.4,0,7.4,1.6,7.4,8.9v1.7h-43.3c-3.4,0-5.9-2.9-5.9-6.8
			v-5.4h-6.5v7.4c0,1.8-0.5,4.8-3.9,4.8h-9.8c0.1-1.3,0.1-2.2,0.1-2.8v-0.3c0-5.7-1-9.2-3.2-11.5c-2.2-1.9-5.5-2.9-10.7-2.9
			c-10.2,0-12.3,4.8-12.3,12.5S87.2,60.9,96,60.9h5.7c-1.4,6.2-4.5,7.3-10.2,7.3c-1.3,0-3-0.4-4-0.8l-1.2-0.6v6.5l0.5,0.2
			c0,0,2.3,0.9,5.6,0.9c9.4,0,14.3-4.1,16.1-13.5H119c3.4,0,6.4-1.5,8.3-4.1c1.7,2.4,5.1,4.1,8.1,4.1h50.1v-8.1
			C185.4,43,180.3,37.6,171,37.6 M102.7,52.2c0,0.8,0,1.1-0.1,2.2v0.3H96c-4.7,0-6.1,0-6.1-5c0-5.2,0.8-6.1,5.5-6.1
			c2.8,0,4.4,0.4,5.4,1.5C102.1,46.3,102.7,48.5,102.7,52.2"/>
	</g>
	<g>
		<path class="st1" d="M15.7,66.4c-2-0.2-3.6-0.9-3.6-0.9l-0.7-3.6c0,0,1.8,0.7,3.7,0.7c1.5,0,4-1,4-4v-11h4.4v6.1
			c0.1,1.8,1.2,3,3.1,3h2.2V61h-1.9c-1.5,0-2.6-0.4-3.4-1C23,64.4,19.4,66.7,15.7,66.4z M23.5,41.1v3.7h-4.4v-3.7H23.5z"/>
		<path class="st1" d="M32.3,40v3.7h-4.4V40H32.3z M28.7,60.9v-4.3h3.8c1.2,0,1.9-0.7,1.9-1.9v-8.1h4.4v7.9c0,1.8-0.4,6.5-5.8,6.5
			L28.7,60.9L28.7,60.9z M38.7,40v3.7h-4.4V40H38.7z"/>
		<path class="st1" d="M47.9,46.5h4.4v12.3c0,5.3-3.9,7.9-7.8,7.6c-2-0.2-3.6-0.9-3.6-0.9l-0.7-3.6c0,0,1.8,0.7,3.7,0.7
			c1.5,0,4-1,4-4C47.9,58.6,47.9,46.5,47.9,46.5z"/>
		<path class="st1" d="M62.7,60.9c-5.4,0-5.8-4.6-5.8-6.5V40h4.3v14.7c0,1.3,0.7,1.9,1.8,1.9h2.8v4.3H62.7z"/>
		<path class="st1" d="M65.7,60.9v-4.3h3.8c1.2,0,1.9-0.7,1.9-1.9v-8.1h4.4v7.9c0,1.8-0.4,6.5-5.8,6.5L65.7,60.9L65.7,60.9z
			 M74.8,62.7v3.7h-4.4v-3.7H74.8z"/>
	</g>
	<g>
		<path d="M26,107.6h-3.8c-0.6,2.7-2.7,4-6.6,4v-2.7c2.2,0,3.3-1.1,3.3-3.2v-9h3.4v7.7H26V107.6z"/>
		<path d="M27.8,94.8h-3V92h3V94.8z M36.2,107.6H25.3v-3.2h2.2c1.1,0,1.7-0.8,1.7-2.3v-5.4h3.4v5.3c0,0.9-0.1,1.7-0.4,2.4h4V107.6z
			 M30,90.8h-3V88h3V90.8z M32.3,94.8h-3V92h3V94.8z"/>
		<path d="M52.5,107.6H34.9v-3.2h14c-0.3-2.6-2.4-4.6-4.9-4.6h-6.1l4.8-7.7h4l-3.1,4.6h1.9c4.6,0.5,7,4,7,9.7V107.6z"/>
		<path d="M58.8,90.6h-4.3v-1.2h0.9c-0.1-0.2-0.1-0.4-0.1-0.6c0-1.1,0.8-1.9,1.8-1.9c0.8,0,1.3,0.4,1.6,1.1l-1.1,0.5
			c-0.1-0.3-0.3-0.5-0.5-0.5c-0.4,0-0.6,0.2-0.6,0.7c0,0.4,0.1,0.6,0.3,0.7h1.9V90.6z M58.4,107.6H55V91.9h3.4V107.6z"/>
		<path d="M76.9,107.1c0,3-1.8,4.5-5.5,4.5h-0.3v-2.7h0.2c1.4,0,2.7-0.9,2.7-2.3c-0.5,0.8-1.3,1.1-2.4,1.1c-3.1,0-5.5-2.4-5.5-5.6
			c0-3.3,2.3-5.5,5.5-5.5c3.1,0,5.4,2.4,5.4,5.6V107.1z M73.5,102.1c0-1.5-0.8-2.5-2.1-2.5c-1.2,0-2,1-2,2.4c0,1.4,0.8,2.5,2.1,2.5
			C72.8,104.6,73.5,103.6,73.5,102.1z"/>
		<path d="M90.7,105.3c0,2.2-0.6,3.8-1.7,4.8c-1,0.9-2.7,1.4-5.1,1.4v-2.7c2.2,0,3.3-1.1,3.3-3.2v-9h3.4V105.3z"/>
		<path d="M100.5,107.6h-3.2c-2.6,0-4.1-1.5-4.1-4V91.9h3.4v9.9c0,1.6,0.4,2.5,2.9,2.5h1V107.6z"/>
		<path d="M102.5,111.6h-3v-2.8h3V111.6z M110.9,107.6H100v-3.2h2.2c1.1,0,1.7-0.8,1.7-2.3v-5.4h3.4v5.3c0,0.9-0.1,1.7-0.4,2.4h3.9
			V107.6z M107,111.6h-3v-2.8h3V111.6z"/>
		<path d="M124,107.6h-13.7v-3.2h3.9c-0.3-0.8-0.5-1.6-0.5-2.3c0-1.6,0.5-2.9,1.5-4c1-1.1,2.4-1.7,3.9-1.7c2.1,0,3.8,1.2,4.7,3.1
			l-2.8,1.3c-0.3-0.9-0.9-1.4-1.9-1.4c-0.7,0-1.2,0.3-1.6,0.8c-0.3,0.5-0.5,1.1-0.5,1.8c0,1.3,0.5,2.1,1.4,2.5h5.6V107.6z
			 M120.7,94.8h-3V92h3V94.8z"/>
		<path d="M148.3,107.6h-0.2c-3.5,0-5.8-1.5-6.8-4.6h-4c-2.4,0-3.4,0.8-3.4,2.6c0,1.8,1.1,2.7,3.4,2.7h4.7v3.3h-4.5
			c-4.5,0-6.9-2.3-6.9-5.9c0-2.7,1.4-4.8,4-5.6c-0.4-0.9-0.6-1.7-0.6-2.6c0-3.1,2.2-5.5,5.3-5.5c2,0,3.7,1.1,4.5,3l-2.7,1.3
			c-0.3-0.9-0.9-1.4-1.9-1.4c-1.2,0-2,1.1-2,2.6c0,1.3,0.5,2.1,1.4,2.4h5.4c0,3.1,1.4,4.6,4.1,4.6h0.3V107.6z"/>
		<path d="M170.9,107.6h-23v-3.2h3.9V92h3.4l-0.3,7.9c2.2-2.3,4.4-3.3,6.8-3.3c4,0,6.3,2.8,6.6,7.8h2.6V107.6z M164.7,104.3
			c0-0.2,0-0.3,0-0.5c0-2.5-1.3-4.3-3.4-4.3c-2.5,0-4.7,1.6-6.6,4.8H164.7z"/>
		<path d="M184.7,102c0,1.6-0.5,3-1.5,4c-1,1-2.3,1.5-4,1.5h-8.7v-3.2h3.5c-0.3-0.7-0.4-1.5-0.4-2.3c0-3.4,2.1-5.5,5.5-5.5
			c1.7,0,3.1,0.5,4.1,1.5C184.1,99,184.7,100.3,184.7,102z M178.1,94.8h-3V92h3V94.8z M181.3,102.1c0-1.9-0.7-2.9-2.2-2.9h-0.2
			c-0.7,0-1.2,0.3-1.6,0.9c-0.3,0.5-0.5,1.1-0.5,1.8c0,0.8,0.2,1.4,0.5,1.9c0.4,0.6,1,0.9,1.7,0.9c0.7,0,1.3-0.3,1.7-0.8
			C181.1,103.5,181.3,102.9,181.3,102.1z M182.7,94.8h-3V92h3V94.8z"/>
	</g>
</g>
</svg>
