<?xml version="1.0" encoding="utf-8"?>
<!-- Generator: Adobe Illustrator 22.1.0, SVG Export Plug-In . SVG Version: 6.00 Build 0)  -->
<svg version="1.1" id="Layer_1" xmlns="http://www.w3.org/2000/svg" xmlns:xlink="http://www.w3.org/1999/xlink" x="0px" y="0px"
	 viewBox="0 0 74.8 89.4" style="enable-background:new 0 0 74.8 89.4;" xml:space="preserve">
<style type="text/css">
	.st0{display:none;}
	.st1{display:inline;}
	.st2{fill:none;stroke:#FFFFFF;stroke-width:2;stroke-miterlimit:10;}
	.st3{display:inline;fill:none;stroke:#000000;stroke-width:2;stroke-miterlimit:10;}
	.st4{display:inline;fill:none;stroke:#FFFFFF;stroke-width:2;stroke-miterlimit:10;}
	.st5{fill:#EDEDED;}
	.st6{fill:#FFFFFF;}
	.st7{fill:#EE4036;}
	.st8{fill:#37363C;}
</style>
<g class="st0">
	<rect x="71.3" y="-8.5" class="st1" width="20" height="430"/>
	<rect x="-791.7" y="-8.5" class="st1" width="1023" height="20"/>
	<rect x="-809.6" y="-35.2" class="st1" width="1058.4" height="519.8"/>
</g>
<g class="st0">
	<g class="st1">
		<polyline points="34.9,28.4 38.7,17.7 63.4,29.2 		"/>
		<circle cx="54.5" cy="67.8" r="7.7"/>
		<circle cx="31.3" cy="67.8" r="7.7"/>
		<polygon points="25.5,30.4 20.5,15.5 7.4,15.5 7.4,11.5 23.4,11.5 29.3,29.1 		"/>
		<polygon points="15.9,27.1 71.3,27.1 60.7,56.7 25.1,56.7 		"/>
		<line class="st2" x1="28.2" y1="35.7" x2="60.1" y2="35.7"/>
		<line class="st2" x1="28.2" y1="42.2" x2="49" y2="42.2"/>
	</g>
</g>
<g class="st0">
	<g class="st1">
		<g>
			<polygon points="23.4,11.5 7.4,11.5 7.4,15.5 20.5,15.5 25,28.8 28.7,27.5 			"/>
		</g>
		<g>
			<path d="M54.5,62.1c3.1,0,5.7,2.5,5.7,5.7c0,3.2-2.5,5.7-5.7,5.7s-5.7-2.5-5.7-5.7C48.8,64.6,51.4,62.1,54.5,62.1 M54.5,60.1
				c-4.2,0-7.7,3.4-7.7,7.7c0,4.3,3.4,7.7,7.7,7.7s7.7-3.4,7.7-7.7C62.2,63.5,58.7,60.1,54.5,60.1L54.5,60.1z"/>
		</g>
		<g>
			<path d="M31.3,62.1c3.1,0,5.7,2.5,5.7,5.7c0,3.2-2.5,5.7-5.7,5.7s-5.7-2.5-5.7-5.7C25.6,64.6,28.2,62.1,31.3,62.1 M31.3,60.1
				c-4.2,0-7.7,3.4-7.7,7.7c0,4.3,3.4,7.7,7.7,7.7c4.2,0,7.7-3.4,7.7-7.7C39,63.5,35.6,60.1,31.3,60.1L31.3,60.1z"/>
		</g>
		<g>
			<path d="M68.4,29.1l-9.1,25.6H26.6l-8-25.6H68.4 M71.3,27.1H15.9l9.2,29.6h35.6L71.3,27.1L71.3,27.1z"/>
		</g>
	</g>
	<polyline class="st3" points="34.9,28.4 38.7,17.7 61.1,28.2 	"/>
	<g class="st1">
		<path d="M54.5,62.1c3.1,0,5.7,2.5,5.7,5.7c0,3.2-2.5,5.7-5.7,5.7s-5.7-2.5-5.7-5.7C48.8,64.7,51.4,62.1,54.5,62.1 M54.5,60.1
			c-4.2,0-7.7,3.4-7.7,7.7c0,4.2,3.4,7.7,7.7,7.7c4.2,0,7.7-3.4,7.7-7.7C62.2,63.6,58.7,60.1,54.5,60.1L54.5,60.1z"/>
	</g>
	<line class="st3" x1="28.2" y1="35.7" x2="60.1" y2="35.7"/>
	<line class="st3" x1="28.2" y1="42.2" x2="49" y2="42.2"/>
</g>
<g class="st0">
	<path class="st1" d="M39.3,11.5c-17.7,0-32,14.3-32,32s14.3,32,32,32s32-14.3,32-32S57,11.5,39.3,11.5L39.3,11.5z"/>
	<polygon class="st1" points="35.5,28.2 39.2,18.3 60.4,28.3 	"/>
	<g class="st1">
		<polygon points="23.4,11.5 7.4,11.5 7.4,15.5 20.5,15.5 25,28.8 28.7,27.5 		"/>
	</g>
	<g class="st1">
		<circle cx="54.5" cy="67.8" r="6.7"/>
		<g>
			<path d="M54.5,62.1c3.1,0,5.7,2.5,5.7,5.7c0,3.2-2.5,5.7-5.7,5.7s-5.7-2.5-5.7-5.7C48.8,64.6,51.4,62.1,54.5,62.1 M54.5,60.1
				c-4.2,0-7.7,3.4-7.7,7.7c0,4.3,3.4,7.7,7.7,7.7s7.7-3.4,7.7-7.7C62.2,63.5,58.7,60.1,54.5,60.1L54.5,60.1z"/>
		</g>
	</g>
	<g class="st1">
		<circle cx="31.3" cy="67.8" r="6.7"/>
		<g>
			<path d="M31.3,62.1c3.1,0,5.7,2.5,5.7,5.7c0,3.2-2.5,5.7-5.7,5.7s-5.7-2.5-5.7-5.7C25.6,64.6,28.2,62.1,31.3,62.1 M31.3,60.1
				c-4.2,0-7.7,3.4-7.7,7.7c0,4.3,3.4,7.7,7.7,7.7c4.2,0,7.7-3.4,7.7-7.7C39,63.5,35.6,60.1,31.3,60.1L31.3,60.1z"/>
		</g>
	</g>
	<g class="st1">
		<polygon points="25.8,55.7 17.2,28.1 69.8,28.1 60,55.7 		"/>
		<g>
			<path d="M68.4,29.1l-9.1,25.6H26.6l-8-25.6H68.4 M71.3,27.1H15.9l9.2,29.6h35.6L71.3,27.1L71.3,27.1z"/>
		</g>
	</g>
	<polyline class="st3" points="34.9,28.4 38.7,17.7 61.1,28.2 	"/>
	<g class="st1">
		<circle cx="54.5" cy="67.8" r="6.7"/>
		<g>
			<path d="M54.5,62.1c3.1,0,5.7,2.5,5.7,5.7c0,3.2-2.5,5.7-5.7,5.7s-5.7-2.5-5.7-5.7C48.8,64.7,51.4,62.1,54.5,62.1 M54.5,60.1
				c-4.2,0-7.7,3.4-7.7,7.7c0,4.2,3.4,7.7,7.7,7.7c4.2,0,7.7-3.4,7.7-7.7C62.2,63.6,58.7,60.1,54.5,60.1L54.5,60.1z"/>
		</g>
	</g>
	<line class="st4" x1="28.2" y1="35.7" x2="60.1" y2="35.7"/>
	<line class="st4" x1="28.2" y1="42.2" x2="49" y2="42.2"/>
</g>
<g class="st0">
	<g class="st1">
		<g>
			<path d="M39.3,11.5c-17.7,0-32,14.3-32,32s14.3,32,32,32s32-14.3,32-32S57,11.5,39.3,11.5L39.3,11.5z"/>
		</g>
		<g>
			<polygon points="35.5,28.2 39.2,18.2 60.4,28.3 			"/>
		</g>
		<g>
			<polygon points="23.4,11.5 7.4,11.5 7.4,15.5 20.5,15.5 25,28.8 28.7,27.5 			"/>
		</g>
		<g>
			<g>
				<circle cx="54.5" cy="67.8" r="6.7"/>
			</g>
			<g>
				<g>
					<path d="M54.5,62.1c3.1,0,5.7,2.5,5.7,5.7c0,3.1-2.5,5.7-5.7,5.7s-5.7-2.5-5.7-5.7C48.8,64.7,51.4,62.1,54.5,62.1 M54.5,60.1
						c-4.2,0-7.7,3.4-7.7,7.7c0,4.3,3.4,7.7,7.7,7.7s7.7-3.4,7.7-7.7C62.2,63.5,58.7,60.1,54.5,60.1L54.5,60.1z"/>
				</g>
			</g>
		</g>
		<g>
			<g>
				<circle cx="31.3" cy="67.8" r="6.7"/>
			</g>
			<g>
				<g>
					<path d="M31.3,62.1c3.1,0,5.7,2.5,5.7,5.7c0,3.1-2.5,5.7-5.7,5.7s-5.7-2.5-5.7-5.7C25.6,64.7,28.2,62.1,31.3,62.1 M31.3,60.1
						c-4.2,0-7.7,3.4-7.7,7.7c0,4.3,3.4,7.7,7.7,7.7c4.2,0,7.7-3.4,7.7-7.7C39,63.5,35.6,60.1,31.3,60.1L31.3,60.1z"/>
				</g>
			</g>
		</g>
		<g>
			<g>
				<polygon points="25.8,55.7 17.2,28.1 69.8,28.1 60,55.7 				"/>
			</g>
			<g>
				<g>
					<path d="M68.4,29.1l-9.1,25.6H26.6l-8-25.6H68.4 M71.3,27.1H15.9l9.2,29.6h35.6L71.3,27.1L71.3,27.1z"/>
				</g>
			</g>
		</g>
		<g>
			<polygon points="60.7,29.1 39.3,19.1 35.8,28.7 33.9,28 38.1,16.4 61.5,27.3 			"/>
		</g>
		<g>
			<g>
				<circle cx="54.5" cy="67.8" r="6.7"/>
			</g>
			<g>
				<g>
					<path d="M54.5,62.1c3.1,0,5.7,2.5,5.7,5.7c0,3.2-2.5,5.7-5.7,5.7s-5.7-2.5-5.7-5.7C48.8,64.6,51.4,62.1,54.5,62.1 M54.5,60.1
						c-4.2,0-7.7,3.4-7.7,7.7c0,4.2,3.4,7.7,7.7,7.7c4.2,0,7.7-3.4,7.7-7.7C62.2,63.6,58.7,60.1,54.5,60.1L54.5,60.1z"/>
				</g>
			</g>
		</g>
		<g>
			<rect x="28.2" y="34.7" width="31.9" height="2"/>
		</g>
		<g>
			<rect x="28.2" y="41.2" width="20.8" height="2"/>
		</g>
	</g>
</g>
<g class="st0">
	<g class="st1">
		<circle cx="54.5" cy="67.8" r="7.7"/>
		<circle cx="31.3" cy="67.8" r="7.7"/>
		<path d="M24.4,27.1h-8.5l9.2,29.6h35.6l10.6-29.6H58.8l-20.1-9.3l-3.4,9.3h-6.7l-5.2-15.6h-16v4h13.1L24.4,27.1z M28.2,34.7h31.9
			v2H28.2V34.7z M28.2,41.2H49v2H28.2V41.2z"/>
	</g>
</g>
<g class="st0">
	<g class="st1">
		<polygon points="25.5,30.4 20.5,15.5 7.4,15.5 7.4,11.5 23.4,11.5 29.3,29.1 		"/>
		<polygon points="15.9,27.1 71.3,27.1 60.7,56.7 25.1,56.7 		"/>
		<path d="M43.6,47.8v-5.3C42,42,40.8,41.2,40,40.3c-0.8-1-1.2-2.1-1.2-3.5c0-1.4,0.4-2.6,1.3-3.5c0.9-0.9,2-1.5,3.5-1.6v-1.3h1.8
			v1.3c1.3,0.2,2.4,0.6,3.2,1.4s1.3,1.8,1.5,3.1L47,36.5c-0.2-1-0.7-1.7-1.5-2v5c2,0.6,3.4,1.3,4.2,2.1c0.7,0.9,1.1,2,1.1,3.4
			c0,1.5-0.5,2.8-1.4,3.9c-0.9,1.1-2.2,1.7-3.9,1.9v2.4h-1.8v-2.3c-1.5-0.2-2.7-0.7-3.6-1.6c-0.9-0.9-1.5-2.2-1.8-3.9l3.3-0.4
			c0.1,0.7,0.4,1.3,0.8,1.8C42.8,47.2,43.2,47.6,43.6,47.8z M43.6,34.4c-0.5,0.2-0.9,0.5-1.2,0.9c-0.3,0.4-0.4,0.9-0.4,1.4
			s0.1,0.9,0.4,1.3c0.3,0.4,0.7,0.7,1.2,0.9C43.6,38.9,43.6,34.4,43.6,34.4z M45.5,48c0.6-0.1,1.2-0.4,1.6-0.9
			c0.4-0.5,0.6-1,0.6-1.7c0-0.6-0.2-1.1-0.5-1.5s-0.9-0.7-1.7-0.9C45.5,43,45.5,48,45.5,48z"/>
		<circle cx="54.5" cy="67.8" r="7.7"/>
		<circle cx="31.3" cy="67.8" r="7.7"/>
	</g>
</g>
<g class="st0">
	<g class="st1">
		<path d="M43.7,47.1v-4.8c-1.5-0.4-2.6-1.1-3.3-1.9c-0.7-0.9-1-1.9-1-3.1c0-1.2,0.4-2.3,1.2-3.1s1.8-1.3,3.1-1.5v-1.1h1.7v1.1
			c1.2,0.1,2.2,0.6,2.9,1.2c0.7,0.6,1.2,1.6,1.4,2.7L46.8,37c-0.2-0.9-0.6-1.5-1.4-1.8v4.5c1.8,0.5,3.1,1.1,3.7,1.9
			c0.7,0.8,1,1.8,1,3c0,1.4-0.4,2.5-1.2,3.5c-0.8,0.9-2,1.5-3.5,1.7v2.1h-1.7v-2.1c-1.3-0.2-2.4-0.6-3.2-1.5c-0.8-0.8-1.3-2-1.6-3.5
			l3-0.3c0.1,0.6,0.3,1.1,0.7,1.6C43,46.6,43.3,46.9,43.7,47.1z M43.7,35.2c-0.4,0.2-0.8,0.4-1.1,0.8c-0.3,0.4-0.4,0.8-0.4,1.2
			s0.1,0.8,0.4,1.1c0.2,0.3,0.6,0.6,1.1,0.8V35.2z M45.4,47.3c0.6-0.1,1-0.4,1.4-0.8c0.4-0.4,0.5-0.9,0.5-1.5c0-0.5-0.2-0.9-0.5-1.3
			c-0.3-0.4-0.8-0.7-1.5-0.8L45.4,47.3L45.4,47.3z"/>
	</g>
	<g class="st1">
		<polygon points="23.4,11.5 7.4,11.5 7.4,15.5 20.5,15.5 25,28.8 28.7,27.5 		"/>
	</g>
	<g class="st1">
		<path d="M54.5,62.1c3.1,0,5.7,2.5,5.7,5.7c0,3.2-2.5,5.7-5.7,5.7s-5.7-2.5-5.7-5.7C48.8,64.7,51.4,62.1,54.5,62.1 M54.5,60.1
			c-4.2,0-7.7,3.4-7.7,7.7c0,4.2,3.4,7.7,7.7,7.7c4.2,0,7.7-3.4,7.7-7.7C62.2,63.6,58.7,60.1,54.5,60.1L54.5,60.1z"/>
	</g>
	<g class="st1">
		<path d="M31.3,62.1c3.1,0,5.7,2.5,5.7,5.7c0,3.2-2.5,5.7-5.7,5.7s-5.7-2.5-5.7-5.7C25.6,64.7,28.2,62.1,31.3,62.1 M31.3,60.1
			c-4.2,0-7.7,3.4-7.7,7.7c0,4.2,3.4,7.7,7.7,7.7c4.2,0,7.7-3.4,7.7-7.7C39,63.5,35.6,60.1,31.3,60.1L31.3,60.1z"/>
	</g>
	<g class="st1">
		<path d="M68.4,29.1l-9.1,25.6H26.6l-8-25.6H68.4 M71.3,27.1H15.9l9.2,29.6h35.6L71.3,27.1L71.3,27.1z"/>
	</g>
</g>
<g class="st0">
	<g class="st1">
		<path d="M42.6,46.2c-0.3-0.4-0.6-1-0.7-1.6l-3,0.3c0.2,1.5,0.8,2.7,1.6,3.5s1.9,1.3,3.2,1.5V52h1.7v-2.1c1.5-0.2,2.6-0.8,3.5-1.7
			c0.8-0.9,1.2-2.1,1.2-3.5c0-1.2-0.3-2.2-1-3s-1.9-1.4-3.7-1.9v-4.6c0.7,0.3,1.2,0.9,1.4,1.8l2.9-0.4c-0.2-1.1-0.7-2-1.4-2.7
			s-1.7-1.1-2.9-1.2v-1.1h-1.7v1.1c-1.3,0.1-2.3,0.6-3.1,1.5c-0.8,0.8-1.2,1.9-1.2,3.1s0.3,2.3,1,3.1c0.7,0.9,1.8,1.5,3.3,1.9v4.8
			C43.3,46.9,43,46.6,42.6,46.2z M45.4,42.9c0.7,0.2,1.2,0.5,1.5,0.8c0.3,0.4,0.5,0.8,0.5,1.3c0,0.6-0.2,1.1-0.5,1.5
			c-0.4,0.4-0.8,0.7-1.4,0.8L45.4,42.9L45.4,42.9z M42.6,38.3c-0.2-0.3-0.4-0.7-0.4-1.1c0-0.4,0.1-0.8,0.4-1.2
			c0.3-0.4,0.6-0.6,1.1-0.8v3.9C43.2,38.9,42.9,38.6,42.6,38.3z"/>
		<path d="M24.4,27.1h-8.5l9.2,29.6h35.6l10.6-29.6H28.6l-5.2-15.6h-16v4h13.1L24.4,27.1z M59.3,54.7H26.6l-8-25.6h49.8L59.3,54.7z"
			/>
		<path d="M62.2,67.8c0-4.2-3.4-7.7-7.7-7.7c-4.2,0-7.7,3.4-7.7,7.7s3.4,7.7,7.7,7.7C58.7,75.5,62.2,72.1,62.2,67.8z M54.5,73.5
			c-3.1,0-5.7-2.5-5.7-5.7c0-3.1,2.5-5.7,5.7-5.7s5.7,2.5,5.7,5.7C60.2,70.9,57.6,73.5,54.5,73.5z"/>
		<path d="M39,67.8c0-4.2-3.4-7.7-7.7-7.7c-4.2,0-7.7,3.4-7.7,7.7s3.4,7.7,7.7,7.7C35.6,75.5,39,72.1,39,67.8z M25.6,67.8
			c0-3.1,2.5-5.7,5.7-5.7s5.7,2.5,5.7,5.7c0,3.1-2.5,5.7-5.7,5.7C28.2,73.5,25.6,70.9,25.6,67.8z"/>
	</g>
</g>
<g class="st0">
	<path class="st1" d="M39.3,11.5c-17.7,0-32,14.3-32,32s14.3,32,32,32s32-14.3,32-32S57,11.5,39.3,11.5L39.3,11.5z"/>
	<g class="st1">
		<polygon points="25.8,55.7 17.2,28.1 69.8,28.1 60,55.7 		"/>
		<g>
			<path d="M68.4,29.1l-9.1,25.6H26.6l-8-25.6H68.4 M71.3,27.1H15.9l9.2,29.6h35.6L71.3,27.1L71.3,27.1z"/>
		</g>
	</g>
	<g class="st1">
		<path d="M43.7,47.1v-4.8c-1.5-0.4-2.6-1.1-3.3-1.9c-0.7-0.9-1-1.9-1-3.1c0-1.2,0.4-2.3,1.2-3.1s1.8-1.3,3.1-1.5v-1.1h1.7v1.1
			c1.2,0.1,2.2,0.6,2.9,1.2c0.7,0.6,1.2,1.6,1.4,2.7L46.8,37c-0.2-0.9-0.6-1.5-1.4-1.8v4.5c1.8,0.5,3.1,1.1,3.7,1.9
			c0.7,0.8,1,1.8,1,3c0,1.4-0.4,2.5-1.2,3.5c-0.8,0.9-2,1.5-3.5,1.7v2.1h-1.7v-2.1c-1.3-0.2-2.4-0.6-3.2-1.5c-0.8-0.8-1.3-2-1.6-3.5
			l3-0.3c0.1,0.6,0.3,1.1,0.7,1.6C43,46.6,43.3,46.9,43.7,47.1z M43.7,35.2c-0.4,0.2-0.8,0.4-1.1,0.8c-0.3,0.4-0.4,0.8-0.4,1.2
			s0.1,0.8,0.4,1.1c0.2,0.3,0.6,0.6,1.1,0.8V35.2z M45.4,47.3c0.6-0.1,1-0.4,1.4-0.8c0.4-0.4,0.5-0.9,0.5-1.5c0-0.5-0.2-0.9-0.5-1.3
			c-0.3-0.4-0.8-0.7-1.5-0.8L45.4,47.3L45.4,47.3z"/>
	</g>
	<g class="st1">
		<polygon points="23.4,11.5 7.4,11.5 7.4,15.5 20.5,15.5 25,28.8 28.7,27.5 		"/>
	</g>
	<g class="st1">
		<circle cx="54.5" cy="67.8" r="6.7"/>
		<path d="M54.5,62.1c3.1,0,5.7,2.5,5.7,5.7c0,3.2-2.5,5.7-5.7,5.7s-5.7-2.5-5.7-5.7C48.8,64.7,51.4,62.1,54.5,62.1 M54.5,60.1
			c-4.2,0-7.7,3.4-7.7,7.7c0,4.2,3.4,7.7,7.7,7.7c4.2,0,7.7-3.4,7.7-7.7C62.2,63.6,58.7,60.1,54.5,60.1L54.5,60.1z"/>
	</g>
	<g class="st1">
		<circle cx="31.3" cy="67.8" r="6.7"/>
		<path d="M31.3,62.1c3.1,0,5.7,2.5,5.7,5.7c0,3.2-2.5,5.7-5.7,5.7s-5.7-2.5-5.7-5.7C25.6,64.7,28.2,62.1,31.3,62.1 M31.3,60.1
			c-4.2,0-7.7,3.4-7.7,7.7c0,4.2,3.4,7.7,7.7,7.7c4.2,0,7.7-3.4,7.7-7.7C39,63.5,35.6,60.1,31.3,60.1L31.3,60.1z"/>
	</g>
</g>
<g class="st0">
	<g class="st1">
		<path d="M24.4,27.1h-8.5l9.2,29.6h35.6l10.6-29.6H28.6l-5.2-15.6h-16v4h13.1L24.4,27.1z M40,40.3c-0.8-1-1.2-2.1-1.2-3.5
			c0-1.4,0.4-2.6,1.3-3.5c0.9-0.9,2-1.5,3.5-1.6v-1.3h1.8v1.3c1.3,0.2,2.4,0.6,3.2,1.4s1.3,1.8,1.5,3.1L47,36.5
			c-0.2-1-0.7-1.7-1.5-2v5c2,0.6,3.4,1.3,4.2,2.1c0.7,0.9,1.1,2,1.1,3.4c0,1.5-0.5,2.8-1.4,3.9c-0.9,1.1-2.2,1.7-3.9,1.9v2.4h-1.8
			v-2.3c-1.5-0.2-2.7-0.7-3.6-1.6c-0.9-0.9-1.5-2.2-1.8-3.9l3.3-0.4c0.1,0.7,0.4,1.3,0.8,1.8c0.4,0.5,0.8,0.8,1.2,1.1v-5.3
			C42,42,40.8,41.2,40,40.3z"/>
		<path d="M43.6,34.4c-0.5,0.2-0.9,0.5-1.2,0.9c-0.3,0.4-0.4,0.9-0.4,1.4s0.1,0.9,0.4,1.3c0.3,0.4,0.7,0.7,1.2,0.9
			C43.6,38.9,43.6,34.4,43.6,34.4z"/>
		<path d="M47.6,45.4c0-0.6-0.2-1.1-0.5-1.5s-0.9-0.7-1.7-0.9v5c0.6-0.1,1.2-0.4,1.6-0.9C47.4,46.6,47.6,46,47.6,45.4z"/>
		<circle cx="54.5" cy="67.8" r="7.7"/>
		<circle cx="31.3" cy="67.8" r="7.7"/>
	</g>
</g>
<g class="st0">
	<g class="st1">
		<polygon points="24.6,31 19.8,16.7 7.3,16.7 7.3,12.9 22.6,12.9 28.3,29.8 		"/>
		<polygon points="15.4,27.8 68.3,27.8 58.2,56.1 24.2,56.1 		"/>
		<circle cx="52.3" cy="66.7" r="7.3"/>
		<circle cx="30.2" cy="66.7" r="7.3"/>
		<g>
			<path d="M66.1,51.5H34.8c-2.9,0-5.2-2.3-5.2-5.2v-8.6c0-2.9,2.3-5.2,5.2-5.2h31.4c2.9,0,5.2,2.3,5.2,5.2v8.6
				C71.3,49.1,69,51.5,66.1,51.5z"/>
			<g>
				<path d="M35.7,44.2c0.5,0.3,1.4,0.6,2.2,0.6c0.9,0,1.4-0.4,1.4-1s-0.4-0.9-1.5-1.3c-1.5-0.5-2.5-1.3-2.5-2.6
					c0-1.5,1.3-2.7,3.4-2.7c1,0,1.8,0.2,2.3,0.5l-0.5,1.6c-0.4-0.2-1-0.4-1.9-0.4s-1.3,0.4-1.3,0.9c0,0.6,0.5,0.8,1.7,1.3
					c1.6,0.6,2.3,1.4,2.3,2.7c0,1.5-1.2,2.8-3.6,2.8c-1,0-2-0.3-2.5-0.5L35.7,44.2z"/>
				<path d="M45,37.9v1.9h1.4v1.5H45v2.3c0,0.8,0.2,1.1,0.8,1.1c0.3,0,0.5,0,0.6-0.1v1.5c-0.3,0.1-0.7,0.2-1.3,0.2
					c-0.7,0-1.2-0.2-1.5-0.6c-0.4-0.4-0.6-1-0.6-1.9v-2.7h-0.9v-1.5H43v-1.4L45,37.9z"/>
				<path d="M53.9,42.9c0,2.4-1.7,3.5-3.4,3.5c-1.9,0-3.4-1.2-3.4-3.3s1.4-3.4,3.5-3.4C52.6,39.6,53.9,41,53.9,42.9z M49.2,43
					c0,1.1,0.5,2,1.3,2s1.3-0.8,1.3-2c0-1-0.4-2-1.3-2C49.6,41.1,49.2,42.1,49.2,43z"/>
				<path d="M55.2,41.9c0-1,0-1.6-0.1-2.1h1.7l0.1,1.2H57c0.3-0.9,1.1-1.3,1.8-1.3c0.2,0,0.3,0,0.4,0v1.9c-0.1,0-0.3-0.1-0.5-0.1
					c-0.7,0-1.2,0.4-1.4,1c0,0.1,0,0.3,0,0.5v3.3h-2L55.2,41.9L55.2,41.9z"/>
				<path d="M61.7,43.7c0.1,0.8,0.9,1.2,1.8,1.2c0.7,0,1.2-0.1,1.8-0.3l0.3,1.4c-0.7,0.3-1.5,0.4-2.3,0.4c-2.2,0-3.5-1.3-3.5-3.3
					c0-1.6,1-3.5,3.3-3.5c2.1,0,2.9,1.6,2.9,3.2c0,0.3,0,0.7-0.1,0.8L61.7,43.7L61.7,43.7z M64,42.3c0-0.5-0.2-1.3-1.1-1.3
					c-0.8,0-1.2,0.8-1.2,1.3H64z"/>
			</g>
		</g>
	</g>
</g>
<g class="st0">
	<g class="st1">
		<g>
			<polygon points="23.4,11.5 7.4,11.5 7.4,15.5 20.5,15.5 25,28.8 28.7,27.5 			"/>
		</g>
		<g>
			<path d="M54.5,62.1c3.1,0,5.7,2.5,5.7,5.7c0,3.2-2.5,5.7-5.7,5.7s-5.7-2.5-5.7-5.7C48.8,64.7,51.4,62.1,54.5,62.1 M54.5,60.1
				c-4.2,0-7.7,3.4-7.7,7.7c0,4.2,3.4,7.7,7.7,7.7s7.7-3.4,7.7-7.7C62.2,63.6,58.7,60.1,54.5,60.1L54.5,60.1z"/>
		</g>
		<g>
			<path d="M31.3,62.1c3.1,0,5.7,2.5,5.7,5.7c0,3.2-2.5,5.7-5.7,5.7s-5.7-2.5-5.7-5.7C25.6,64.7,28.2,62.1,31.3,62.1 M31.3,60.1
				c-4.2,0-7.7,3.4-7.7,7.7c0,4.2,3.4,7.7,7.7,7.7c4.2,0,7.7-3.4,7.7-7.7C39,63.5,35.6,60.1,31.3,60.1L31.3,60.1z"/>
		</g>
		<g>
			<path d="M68.4,29.1l-9.1,25.6H26.6l-8-25.6H68.4 M71.3,27.1H15.9l9.2,29.6h35.6L71.3,27.1L71.3,27.1z"/>
		</g>
	</g>
	<g class="st1">
		<g>
			<path d="M34.8,50.5c-2.3,0-4.2-1.9-4.2-4.2v-8.6c0-2.3,1.9-4.2,4.2-4.2h31.4c2.3,0,4.2,1.9,4.2,4.2v8.6c0,2.3-1.9,4.2-4.2,4.2
				H34.8z"/>
			<path d="M66.1,34.5c1.8,0,3.2,1.4,3.2,3.2v8.6c0,1.8-1.4,3.2-3.2,3.2H34.8c-1.8,0-3.2-1.4-3.2-3.2v-8.6c0-1.8,1.4-3.2,3.2-3.2
				H66.1 M66.1,32.5H34.8c-2.9,0-5.2,2.3-5.2,5.2v8.6c0,2.9,2.3,5.2,5.2,5.2h31.4c2.9,0,5.2-2.3,5.2-5.2v-8.6
				C71.3,34.9,69,32.5,66.1,32.5L66.1,32.5z"/>
		</g>
		<g>
			<g>
				<path d="M38.8,37.2c-2.1,0-3.4,1.2-3.4,2.7c0,1.3,1,2.1,2.5,2.6c1.1,0.4,1.5,0.7,1.5,1.3s-0.5,1-1.4,1s-1.7-0.3-2.2-0.6
					l-0.4,1.7c0.5,0.3,1.5,0.5,2.5,0.5c2.5,0,3.6-1.3,3.6-2.8c0-1.3-0.7-2.1-2.3-2.7c-1.2-0.4-1.7-0.7-1.7-1.3
					c0-0.5,0.4-0.9,1.3-0.9c0.9,0,1.5,0.3,1.9,0.4l0.5-1.6C40.6,37.4,39.8,37.2,38.8,37.2L38.8,37.2z"/>
			</g>
			<g>
				<path d="M45,37.9l-2,0.5v1.4h-0.9v1.5H43V44c0,0.9,0.2,1.5,0.6,1.9c0.3,0.3,0.9,0.6,1.5,0.6s1-0.1,1.3-0.2v-1.5
					c-0.1,0-0.3,0.1-0.6,0.1c-0.6,0-0.8-0.4-0.8-1.1v-2.3h1.4V40H45V37.9L45,37.9z"/>
			</g>
			<g>
				<path d="M50.6,39.6c-2.1,0-3.5,1.3-3.5,3.4c0,2.1,1.5,3.3,3.4,3.3c1.7,0,3.4-1.1,3.4-3.5C53.9,41,52.6,39.6,50.6,39.6L50.6,39.6
					z M50.6,45c-0.9,0-1.3-0.8-1.3-2c0-1,0.4-2,1.3-2c0.9,0,1.3,1,1.3,2C51.8,44.2,51.3,45,50.6,45L50.6,45z"/>
			</g>
			<g>
				<path d="M58.7,39.6c-0.6,0-1.4,0.4-1.8,1.3h-0.1l-0.1-1.2H55c0,0.6,0.1,1.2,0.1,2.1v4.4h2v-3.3c0-0.2,0-0.3,0-0.5
					c0.1-0.6,0.6-1,1.4-1c0.2,0,0.4,0,0.5,0.1v-1.9C59,39.6,58.9,39.6,58.7,39.6L58.7,39.6z"/>
			</g>
			<g>
				<path d="M63,39.6c-2.3,0-3.3,1.8-3.3,3.5c0,2,1.3,3.3,3.5,3.3c0.9,0,1.7-0.1,2.3-0.4l-0.3-1.4c-0.5,0.2-1.1,0.3-1.8,0.3
					c-0.9,0-1.8-0.4-1.8-1.2h4.2c0-0.1,0.1-0.5,0.1-0.8C65.9,41.3,65.1,39.6,63,39.6L63,39.6z M61.7,42.3c0.1-0.5,0.4-1.3,1.2-1.3
					c0.9,0,1.1,0.8,1.1,1.3H61.7L61.7,42.3z"/>
			</g>
		</g>
	</g>
</g>
<g class="st0">
	<g class="st1">
		<path d="M24.4,27.1h-8.5l9.2,29.6h35.6l10.6-29.6H28.6l-5.2-15.6h-16v4h13.1L24.4,27.1z M68.4,29.1l-9.1,25.6H26.6l-8-25.6H68.4z"
			/>
		<path d="M62.2,67.8c0-4.2-3.4-7.7-7.7-7.7s-7.7,3.4-7.7,7.7c0,4.2,3.4,7.7,7.7,7.7S62.2,72.1,62.2,67.8z M48.8,67.8
			c0-3.1,2.5-5.7,5.7-5.7s5.7,2.5,5.7,5.7c0,3.1-2.5,5.7-5.7,5.7S48.8,70.9,48.8,67.8z"/>
		<path d="M39,67.8c0-4.2-3.4-7.7-7.7-7.7c-4.2,0-7.7,3.4-7.7,7.7c0,4.2,3.4,7.7,7.7,7.7S39,72.1,39,67.8z M25.6,67.8
			c0-3.1,2.5-5.7,5.7-5.7s5.7,2.5,5.7,5.7c0,3.1-2.5,5.7-5.7,5.7C28.2,73.5,25.6,70.9,25.6,67.8z"/>
		<path d="M42.9,32l-11,19h21.9L42.9,32z M42.9,36l7.5,13h-15L42.9,36z"/>
	</g>
</g>
<g class="st0">
	<path class="st1" d="M39.3,11.5c-17.7,0-32,14.3-32,32s14.3,32,32,32s32-14.3,32-32S57,11.5,39.3,11.5L39.3,11.5z"/>
	<g class="st1">
		<polygon points="23.4,11.5 7.4,11.5 7.4,15.5 20.5,15.5 25,28.8 28.7,27.5 		"/>
	</g>
	<g class="st1">
		<circle cx="54.5" cy="67.8" r="6.7"/>
		<path d="M54.5,62.1c3.1,0,5.7,2.5,5.7,5.7c0,3.2-2.5,5.7-5.7,5.7s-5.7-2.5-5.7-5.7C48.8,64.7,51.4,62.1,54.5,62.1 M54.5,60.1
			c-4.2,0-7.7,3.4-7.7,7.7c0,4.2,3.4,7.7,7.7,7.7s7.7-3.4,7.7-7.7C62.2,63.6,58.7,60.1,54.5,60.1L54.5,60.1z"/>
	</g>
	<g class="st1">
		<circle cx="31.3" cy="67.8" r="6.7"/>
		<path d="M31.3,62.1c3.1,0,5.7,2.5,5.7,5.7c0,3.2-2.5,5.7-5.7,5.7s-5.7-2.5-5.7-5.7C25.6,64.7,28.2,62.1,31.3,62.1 M31.3,60.1
			c-4.2,0-7.7,3.4-7.7,7.7c0,4.2,3.4,7.7,7.7,7.7c4.2,0,7.7-3.4,7.7-7.7C39,63.5,35.6,60.1,31.3,60.1L31.3,60.1z"/>
	</g>
	<g class="st1">
		<polygon points="25.8,55.7 17.2,28.1 69.8,28.1 60,55.7 		"/>
		<g>
			<path d="M68.4,29.1l-9.1,25.6H26.6l-8-25.6H68.4 M71.3,27.1H15.9l9.2,29.6h35.6L71.3,27.1L71.3,27.1z"/>
		</g>
	</g>
	<g class="st1">
		<path d="M34.8,50.5c-2.3,0-4.2-1.9-4.2-4.2v-8.6c0-2.3,1.9-4.2,4.2-4.2h31.4c2.3,0,4.2,1.9,4.2,4.2v8.6c0,2.3-1.9,4.2-4.2,4.2
			H34.8z"/>
		<path d="M66.1,34.5c1.8,0,3.2,1.4,3.2,3.2v8.6c0,1.8-1.4,3.2-3.2,3.2H34.8c-1.8,0-3.2-1.4-3.2-3.2v-8.6c0-1.8,1.4-3.2,3.2-3.2
			H66.1 M66.1,32.5H34.8c-2.9,0-5.2,2.3-5.2,5.2v8.6c0,2.9,2.3,5.2,5.2,5.2h31.4c2.9,0,5.2-2.3,5.2-5.2v-8.6
			C71.3,34.9,69,32.5,66.1,32.5L66.1,32.5z"/>
	</g>
	<g class="st1">
		<path d="M38.8,37.2c-2.1,0-3.4,1.2-3.4,2.7c0,1.3,1,2.1,2.5,2.6c1.1,0.4,1.5,0.7,1.5,1.3s-0.5,1-1.4,1s-1.7-0.3-2.2-0.6l-0.4,1.7
			c0.5,0.3,1.5,0.5,2.5,0.5c2.5,0,3.6-1.3,3.6-2.8c0-1.3-0.7-2.1-2.3-2.7c-1.2-0.4-1.7-0.7-1.7-1.3c0-0.5,0.4-0.9,1.3-0.9
			c0.9,0,1.5,0.3,1.9,0.4l0.5-1.6C40.6,37.4,39.8,37.2,38.8,37.2L38.8,37.2z"/>
	</g>
	<g class="st1">
		<path d="M45,37.9l-2,0.5v1.4h-0.9v1.5H43V44c0,0.9,0.2,1.5,0.6,1.9c0.3,0.3,0.9,0.6,1.5,0.6s1-0.1,1.3-0.2v-1.5
			c-0.1,0-0.3,0.1-0.6,0.1c-0.6,0-0.8-0.4-0.8-1.1v-2.3h1.4V40H45V37.9L45,37.9z"/>
	</g>
	<g class="st1">
		<path d="M50.6,39.6c-2.1,0-3.5,1.3-3.5,3.4c0,2.1,1.5,3.3,3.4,3.3c1.7,0,3.4-1.1,3.4-3.5C53.9,41,52.6,39.6,50.6,39.6L50.6,39.6z
			 M50.6,45c-0.9,0-1.3-0.8-1.3-2c0-1,0.4-2,1.3-2c0.9,0,1.3,1,1.3,2C51.8,44.2,51.3,45,50.6,45L50.6,45z"/>
	</g>
	<g class="st1">
		<path d="M58.7,39.6c-0.6,0-1.4,0.4-1.8,1.3h-0.1l-0.1-1.2H55c0,0.6,0.1,1.2,0.1,2.1v4.4h2v-3.3c0-0.2,0-0.3,0-0.5
			c0.1-0.6,0.6-1,1.4-1c0.2,0,0.4,0,0.5,0.1v-1.9C59,39.6,58.9,39.6,58.7,39.6L58.7,39.6z"/>
	</g>
	<g class="st1">
		<path d="M63,39.6c-2.3,0-3.3,1.8-3.3,3.5c0,2,1.3,3.3,3.5,3.3c0.9,0,1.7-0.1,2.3-0.4l-0.3-1.4c-0.5,0.2-1.1,0.3-1.8,0.3
			c-0.9,0-1.8-0.4-1.8-1.2h4.2c0-0.1,0.1-0.5,0.1-0.8C65.9,41.3,65.1,39.6,63,39.6L63,39.6z M61.7,42.3c0.1-0.5,0.4-1.3,1.2-1.3
			c0.9,0,1.1,0.8,1.1,1.3H61.7L61.7,42.3z"/>
	</g>
</g>
<g class="st0">
	<g class="st1">
		<path d="M23.6,27.8h-8.2l8.8,28.3h34l10.1-28.3H27.6l-5-14.9H7.3v3.8h12.5L23.6,27.8z M54,39.3c2.1,0,2.9,1.6,2.9,3.2
			c0,0.3,0,0.7-0.1,0.8h-4.2c0.1,0.8,0.9,1.2,1.8,1.2c0.7,0,1.2-0.1,1.8-0.3l0.3,1.4C55.8,45.9,55,46,54.2,46
			c-2.2,0-3.5-1.3-3.5-3.3C50.7,41.1,51.8,39.3,54,39.3z M47.9,39.4l0.1,1.2l0,0c0.3-0.9,1.1-1.3,1.8-1.3c0.2,0,0.3,0,0.4,0v1.9
			c-0.2,0-0.4,0-0.6,0c-0.7,0-1.2,0.4-1.4,1c0,0.1,0,0.3,0,0.5V46h-2v-4.4c0-1,0-1.6-0.1-2.1L47.9,39.4L47.9,39.4z M41.6,39.3
			c2,0,3.3,1.4,3.3,3.3c0,2.4-1.7,3.5-3.4,3.5c-1.9,0-3.4-1.2-3.4-3.3C38.1,40.6,39.5,39.3,41.6,39.3z M33.1,39.4H34V38l2-0.5v1.9
			h1.4v1.5H36v2.3c0,0.8,0.2,1.1,0.8,1.1c0.3,0,0.5,0,0.6-0.1v1.5c-0.3,0.1-0.7,0.2-1.3,0.2c-0.7,0-1.2-0.2-1.5-0.6
			c-0.4-0.4-0.6-1-0.6-1.9v-2.7h-0.9C33.1,40.9,33.1,39.4,33.1,39.4z M28.9,42.2c-1.5-0.5-2.5-1.3-2.5-2.6c0-1.5,1.3-2.7,3.4-2.7
			c1,0,1.8,0.2,2.3,0.5L31.6,39c-0.4-0.2-1-0.4-1.9-0.4s-1.3,0.4-1.3,0.9c0,0.6,0.5,0.8,1.7,1.3c1.6,0.6,2.3,1.4,2.3,2.7
			c0,1.5-1.2,2.8-3.6,2.8c-1,0-2-0.3-2.5-0.5l0.4-1.7c0.5,0.3,1.4,0.6,2.2,0.6c0.9,0,1.4-0.4,1.4-1C30.4,42.9,30,42.6,28.9,42.2z"/>
		<circle cx="52.3" cy="66.7" r="7.3"/>
		<circle cx="30.2" cy="66.7" r="7.3"/>
		<path d="M41.6,44.6c0.8,0,1.3-0.8,1.3-2c0-1-0.4-2-1.3-2c-1,0-1.3,1-1.3,2C40.2,43.8,40.7,44.6,41.6,44.6z"/>
		<path d="M53.9,40.6c-0.8,0-1.2,0.8-1.2,1.3H55C55,41.5,54.8,40.6,53.9,40.6z"/>
	</g>
</g>
<g class="st0">
	<g class="st1">
		<polygon points="25.5,30.4 20.5,15.5 7.4,15.5 7.4,11.5 23.4,11.5 29.3,29.1 		"/>
		<polygon points="15.9,27.1 71.3,27.1 60.7,56.7 25.1,56.7 		"/>
		<circle cx="54.5" cy="67.8" r="7.7"/>
		<circle cx="31.3" cy="67.8" r="7.7"/>
		<g>
			<g>
				<polygon points="47.6,50.1 31.8,34.1 47.6,18.1 62.8,18.1 47,34.1 62.8,50.1 				"/>
			</g>
		</g>
	</g>
</g>
<g class="st0">
	<g class="st1">
		<g>
			<polygon points="23.4,11.5 7.4,11.5 7.4,15.5 20.5,15.5 25,28.8 28.7,27.5 			"/>
		</g>
		<g>
			<path d="M54.5,62.1c3.1,0,5.7,2.5,5.7,5.7c0,3.2-2.5,5.7-5.7,5.7c-3.1,0-5.7-2.5-5.7-5.7C48.8,64.7,51.4,62.1,54.5,62.1
				 M54.5,60.1c-4.2,0-7.7,3.4-7.7,7.7c0,4.2,3.4,7.7,7.7,7.7c4.2,0,7.7-3.4,7.7-7.7C62.2,63.6,58.7,60.1,54.5,60.1L54.5,60.1z"/>
		</g>
		<g>
			<path d="M31.3,62.1c3.1,0,5.7,2.5,5.7,5.7c0,3.2-2.5,5.7-5.7,5.7s-5.7-2.5-5.7-5.7C25.6,64.7,28.2,62.1,31.3,62.1 M31.3,60.1
				c-4.2,0-7.7,3.4-7.7,7.7c0,4.2,3.4,7.7,7.7,7.7c4.2,0,7.7-3.4,7.7-7.7C39,63.5,35.6,60.1,31.3,60.1L31.3,60.1z"/>
		</g>
		<g>
			<path d="M68.4,29.1l-9.1,25.6H26.6l-8-25.6H68.4 M71.3,27.1H15.9l9.2,29.6h35.6L71.3,27.1L71.3,27.1z"/>
		</g>
	</g>
	<g class="st1">
		<polygon points="45,49.1 30.2,34.1 45,19.1 57.4,19.1 42.6,34.1 57.4,49.1 		"/>
		<path d="M55,20.1L42.5,32.7l-1.4,1.4l1.4,1.4L55,48.1h-9.5l-13.8-14l13.8-14L55,20.1 M59.8,18.1H44.6l-15.8,16l15.8,16h15.2
			L44,34.1L59.8,18.1L59.8,18.1z"/>
	</g>
</g>
<g class="st0">
	<g class="st1">
		<path d="M24.4,27.1h-8.5l9.2,29.6h35.6l10.6-29.6H50.9l8.9-9H44.6l-8.9,9h-7.1l-5.2-15.6h-16v4h13.1L24.4,27.1z M45.5,20.1H55
			L42.5,32.7l-1.4,1.4l1.4,1.4L55,48.1h-9.5l-13.8-14L45.5,20.1z M28.8,34.1l15.8,16h15.2L44,34.1l5-5h19.5l-9.1,25.6H26.6l-8-25.6
			h15.2L28.8,34.1z"/>
		<path d="M62.2,67.8c0-4.2-3.4-7.7-7.7-7.7c-4.2,0-7.7,3.4-7.7,7.7c0,4.2,3.4,7.7,7.7,7.7S62.2,72.1,62.2,67.8z M48.8,67.8
			c0-3.1,2.5-5.7,5.7-5.7s5.7,2.5,5.7,5.7c0,3.1-2.5,5.7-5.7,5.7C51.4,73.5,48.8,70.9,48.8,67.8z"/>
		<path d="M39,67.8c0-4.2-3.4-7.7-7.7-7.7c-4.2,0-7.7,3.4-7.7,7.7c0,4.2,3.4,7.7,7.7,7.7S39,72.1,39,67.8z M25.6,67.8
			c0-3.1,2.5-5.7,5.7-5.7s5.7,2.5,5.7,5.7c0,3.1-2.5,5.7-5.7,5.7S25.6,70.9,25.6,67.8z"/>
	</g>
</g>
<g class="st0">
	<path class="st1" d="M39.3,11.5c-17.7,0-32,14.3-32,32s14.3,32,32,32s32-14.3,32-32S57,11.5,39.3,11.5L39.3,11.5z"/>
	<g class="st1">
		<polygon points="23.4,11.5 7.4,11.5 7.4,15.5 20.5,15.5 25,28.8 28.7,27.5 		"/>
	</g>
	<g class="st1">
		<circle cx="54.5" cy="67.8" r="6.7"/>
		<g>
			<path d="M54.5,62.1c3.1,0,5.7,2.5,5.7,5.7c0,3.2-2.5,5.7-5.7,5.7c-3.1,0-5.7-2.5-5.7-5.7C48.8,64.7,51.4,62.1,54.5,62.1
				 M54.5,60.1c-4.2,0-7.7,3.4-7.7,7.7c0,4.2,3.4,7.7,7.7,7.7c4.2,0,7.7-3.4,7.7-7.7C62.2,63.6,58.7,60.1,54.5,60.1L54.5,60.1z"/>
		</g>
	</g>
	<g class="st1">
		<circle cx="31.3" cy="67.8" r="6.7"/>
		<g>
			<path d="M31.3,62.1c3.1,0,5.7,2.5,5.7,5.7c0,3.2-2.5,5.7-5.7,5.7s-5.7-2.5-5.7-5.7C25.6,64.7,28.2,62.1,31.3,62.1 M31.3,60.1
				c-4.2,0-7.7,3.4-7.7,7.7c0,4.2,3.4,7.7,7.7,7.7c4.2,0,7.7-3.4,7.7-7.7C39,63.5,35.6,60.1,31.3,60.1L31.3,60.1z"/>
		</g>
	</g>
	<g class="st1">
		<polygon points="25.8,55.7 17.2,28.1 69.8,28.1 60,55.7 		"/>
		<g>
			<path d="M68.4,29.1l-9.1,25.6H26.6l-8-25.6H68.4 M71.3,27.1H15.9l9.2,29.6h35.6L71.3,27.1L71.3,27.1z"/>
		</g>
	</g>
	<g class="st1">
		<polygon points="45,49.1 30.2,34.1 45,19.1 57.4,19.1 42.6,34.1 57.4,49.1 		"/>
		<path d="M55,20.1L42.5,32.7l-1.4,1.4l1.4,1.4L55,48.1h-9.5l-13.8-14l13.8-14L55,20.1 M59.8,18.1H44.6l-15.8,16l15.8,16h15.2
			L44,34.1L59.8,18.1L59.8,18.1z"/>
	</g>
</g>
<g class="st0">
	<g class="st1">
		<path d="M24.4,27.1h-8.5l9.2,29.6h35.6l10.6-29.6H28.6l-5.2-15.6h-16v4h13.1L24.4,27.1z M41.8,32.2h9.1l-9.5,9.6l9.5,9.6h-9.1
			l-9.4-9.6L41.8,32.2z"/>
		<circle cx="54.5" cy="67.8" r="7.7"/>
		<circle cx="31.3" cy="67.8" r="7.7"/>
	</g>
</g>
<g>
	<rect x="0.9" y="0.5" class="st5" width="73" height="81"/>
	<rect x="4.8" y="4.6" class="st6" width="65.2" height="73"/>
	<rect x="11.6" y="27.5" class="st7" width="46" height="4"/>
	<rect x="11.6" y="17.5" class="st7" width="25" height="4"/>
	<rect x="11.6" y="36.6" class="st7" width="50" height="4"/>
	<g>
		<circle class="st8" cx="37.4" cy="71.5" r="16.5"/>
		<g>
			<g>
				<path class="st6" d="M35.7,76.3l0.1-0.1l7.7,2.8c0,0,0.1,0,0.1-0.1L48.5,62c0-0.1-0.1-0.2-0.1-0.1L22.4,71.9
					c-0.1,0-0.1,0.2,0,0.3l8,2.9c0,0,0,0,0.1,0.1l2.4,5.8c0,0.1,0.1,0.1,0.2,0l3.8-4.2c0,0,0.1-0.1,0-0.1 M34.3,75.1
					C34.3,75.1,34.3,75.2,34.3,75.1l-0.9,3.3c0,0.1-0.2,0.1-0.2,0l-1.6-3.9c0,0,0-0.1,0-0.1l13.2-9.4c0.1-0.1,0.2,0.1,0.1,0.2
					L34.3,75.1z"/>
			</g>
		</g>
	</g>
</g>
</svg>
