<?xml version="1.0" encoding="utf-8"?>
<!-- Generator: Adobe Illustrator 23.0.1, SVG Export Plug-In . SVG Version: 6.00 Build 0)  -->
<svg version="1.1" id="Layer_1" xmlns="http://www.w3.org/2000/svg" xmlns:xlink="http://www.w3.org/1999/xlink" x="0px" y="0px"
	 viewBox="0 0 100 100" style="enable-background:new 0 0 100 100;" xml:space="preserve">
<g>
	<g>
		<g>
			<path d="M44.8,51.6c-2.8-2.8-5.6-5.6-8.3-8.4c-4.4-4.4-8.8-8.9-13.2-13.3c-1-1-2-2-3.1-3.1c0,2.5,0,4.9,0,7.4
				c2.8-2.8,5.6-5.5,8.4-8.3c4.4-4.4,8.8-8.8,13.2-13.1c1-1,2-2,3-3c0.9-0.9,1.5-2.4,1.5-3.7c0-1.3-0.6-2.8-1.5-3.7
				c-1-0.9-2.3-1.6-3.7-1.5c-1.4,0.1-2.7,0.5-3.7,1.5c-2.8,2.8-5.6,5.5-8.4,8.3c-4.4,4.4-8.8,8.8-13.2,13.1c-1,1-2,2-3,3
				c-2,2-2,5.4,0,7.4c2.8,2.8,5.6,5.6,8.3,8.4c4.4,4.4,8.8,8.9,13.2,13.3c1,1,2,2,3.1,3.1c0.9,0.9,2.4,1.5,3.7,1.5
				c1.3,0,2.8-0.6,3.7-1.5c0.9-1,1.6-2.3,1.5-3.7C46.3,53.9,45.8,52.6,44.8,51.6L44.8,51.6z"/>
		</g>
	</g>
	<g>
		<g>
			<path d="M16.6,35.7c1.5,0,3,0,4.5,0c3.6,0,7.1,0,10.7,0c4.2,0,8.4,0,12.6,0c3.4,0,6.8,0,10.1,0c1.9,0,3.8-0.1,5.7,0.1
				c0.7,0,1.4,0.1,2.2,0.2c-0.5-0.1-0.9-0.1-1.4-0.2c2.7,0.4,5.4,1.1,8,2.2c-0.4-0.2-0.8-0.4-1.2-0.5c2.5,1.1,4.9,2.5,7.1,4.2
				c-0.4-0.3-0.7-0.5-1.1-0.8c2.2,1.7,4.1,3.6,5.8,5.8c-0.3-0.4-0.5-0.7-0.8-1.1c1.7,2.2,3.1,4.6,4.2,7.1c-0.2-0.4-0.4-0.8-0.5-1.2
				c1.1,2.6,1.8,5.2,2.2,8c-0.1-0.5-0.1-0.9-0.2-1.4c0.4,2.8,0.4,5.6,0,8.4c0.1-0.5,0.1-0.9,0.2-1.4c-0.4,2.7-1.1,5.4-2.2,8
				c0.2-0.4,0.4-0.8,0.5-1.2c-1.1,2.5-2.5,4.9-4.2,7.1c0.3-0.4,0.5-0.7,0.8-1.1c-1.7,2.2-3.6,4.1-5.8,5.8c0.4-0.3,0.7-0.5,1.1-0.8
				c-2.2,1.7-4.6,3.1-7.1,4.2c0.4-0.2,0.8-0.4,1.2-0.5c-2.6,1.1-5.2,1.8-8,2.2c0.5-0.1,0.9-0.1,1.4-0.2c-2.5,0.3-5,0.3-7.6,0.3
				c-3.7,0-7.4,0-11.2,0c-4.8,0-9.6,0-14.4,0c-4.3,0-8.5,0-12.8,0c-2.1,0-4.2,0-6.3,0c0,0-0.1,0-0.1,0c-1.3,0-2.7,0.6-3.7,1.5
				c-0.9,0.9-1.6,2.4-1.5,3.7c0.1,1.3,0.5,2.7,1.5,3.7c1,0.9,2.3,1.5,3.7,1.5c3.1,0,6.3,0,9.4,0c6.5,0,13,0,19.5,0
				c5.4,0,10.9,0,16.3,0c0.9,0,1.9,0,2.8,0c2.6,0,5.3-0.3,7.8-0.8c2.7-0.6,5.2-1.5,7.6-2.6c2.1-0.9,4-2.1,5.8-3.4
				c2.1-1.6,4.2-3.3,5.9-5.2c3.6-4,6.3-8.7,8-13.8c3.2-10,1.8-21.4-3.7-30.3c-2.8-4.5-6.5-8.3-10.9-11.3c-2.2-1.5-4.6-2.7-7-3.7
				c-2.2-0.9-4.4-1.6-6.7-2c-2.7-0.5-5.3-0.7-8-0.7c-2,0-4,0-6,0c-6.4,0-12.8,0-19.3,0c-4.8,0-9.6,0-14.4,0c-0.2,0-0.5,0-0.8,0
				c-1.3,0-2.7,0.6-3.7,1.5c-0.9,0.9-1.6,2.4-1.5,3.7c0.1,1.3,0.5,2.7,1.5,3.7C14,35.1,15.2,35.7,16.6,35.7L16.6,35.7z"/>
		</g>
	</g>
</g>
</svg>
