<?xml version="1.0" encoding="utf-8"?>
<!-- Generator: Adobe Illustrator 23.0.1, SVG Export Plug-In . SVG Version: 6.00 Build 0)  -->
<svg version="1.1" id="Layer_1" xmlns="http://www.w3.org/2000/svg" xmlns:xlink="http://www.w3.org/1999/xlink" x="0px" y="0px"
	 viewBox="0 0 110 110" style="enable-background:new 0 0 110 110;" xml:space="preserve">
<style type="text/css">
	.st0{display:none;}
	.st1{display:inline;}
	.st2{fill:none;stroke:#FFFFFF;stroke-width:2;stroke-miterlimit:10;}
	.st3{display:inline;fill:none;stroke:#000000;stroke-width:2;stroke-miterlimit:10;}
	.st4{display:inline;fill:none;stroke:#FFFFFF;stroke-width:2;stroke-miterlimit:10;}
	.st5{fill:#ED4036;}
	.st6{fill:#37363C;}
</style>
<g class="st0">
	<rect x="89.9" y="0.8" class="st1" width="20" height="430"/>
	<rect x="-773.1" y="0.8" class="st1" width="1023" height="20"/>
	<rect x="-791" y="-26" class="st1" width="1058.4" height="519.8"/>
</g>
<g class="st0">
	<g class="st1">
		<polyline points="53.5,37.7 57.3,27 82,38.5 		"/>
		<circle cx="73.1" cy="77" r="7.7"/>
		<circle cx="49.9" cy="77" r="7.7"/>
		<polygon points="44.1,39.7 39.1,24.8 26,24.8 26,20.8 42,20.8 47.9,38.3 		"/>
		<polygon points="34.5,36.3 89.9,36.3 79.3,65.9 43.7,65.9 		"/>
		<line class="st2" x1="46.8" y1="45" x2="78.7" y2="45"/>
		<line class="st2" x1="46.8" y1="51.5" x2="67.6" y2="51.5"/>
	</g>
</g>
<g class="st0">
	<g class="st1">
		<g>
			<polygon points="42,20.8 26,20.8 26,24.8 39.1,24.8 43.6,38.1 47.3,36.8 			"/>
		</g>
		<g>
			<path d="M73.1,71.4c3.1,0,5.7,2.5,5.7,5.7s-2.5,5.7-5.7,5.7s-5.7-2.5-5.7-5.7S70,71.4,73.1,71.4 M73.1,69.4
				c-4.2,0-7.7,3.4-7.7,7.7s3.4,7.7,7.7,7.7s7.7-3.4,7.7-7.7S77.3,69.4,73.1,69.4L73.1,69.4z"/>
		</g>
		<g>
			<path d="M49.9,71.4c3.1,0,5.7,2.5,5.7,5.7s-2.5,5.7-5.7,5.7s-5.7-2.5-5.7-5.7S46.8,71.4,49.9,71.4 M49.9,69.4
				c-4.2,0-7.7,3.4-7.7,7.7s3.4,7.7,7.7,7.7c4.2,0,7.7-3.4,7.7-7.7S54.2,69.4,49.9,69.4L49.9,69.4z"/>
		</g>
		<g>
			<path d="M87,38.3L77.9,64H45.2l-8-25.6H87 M89.9,36.3H34.5l9.2,29.6h35.6L89.9,36.3L89.9,36.3z"/>
		</g>
	</g>
	<polyline class="st3" points="53.5,37.7 57.3,27 79.7,37.5 	"/>
	<g class="st1">
		<path d="M73.1,71.4c3.1,0,5.7,2.5,5.7,5.7s-2.5,5.7-5.7,5.7s-5.7-2.5-5.7-5.7C67.4,73.9,70,71.4,73.1,71.4 M73.1,69.4
			c-4.2,0-7.7,3.4-7.7,7.7c0,4.2,3.4,7.7,7.7,7.7c4.2,0,7.7-3.4,7.7-7.7C80.8,72.9,77.3,69.4,73.1,69.4L73.1,69.4z"/>
	</g>
	<line class="st3" x1="46.8" y1="45" x2="78.7" y2="45"/>
	<line class="st3" x1="46.8" y1="51.5" x2="67.6" y2="51.5"/>
</g>
<g class="st0">
	<path class="st1" d="M57.9,20.8c-17.7,0-32,14.3-32,32s14.3,32,32,32s32-14.3,32-32S75.6,20.8,57.9,20.8L57.9,20.8z"/>
	<polygon class="st1" points="54.1,37.5 57.8,27.6 79,37.6 	"/>
	<g class="st1">
		<polygon points="42,20.8 26,20.8 26,24.8 39.1,24.8 43.6,38.1 47.3,36.8 		"/>
	</g>
	<g class="st1">
		<circle cx="73.1" cy="77" r="6.7"/>
		<g>
			<path d="M73.1,71.4c3.1,0,5.7,2.5,5.7,5.7s-2.5,5.7-5.7,5.7s-5.7-2.5-5.7-5.7S70,71.4,73.1,71.4 M73.1,69.4
				c-4.2,0-7.7,3.4-7.7,7.7s3.4,7.7,7.7,7.7s7.7-3.4,7.7-7.7S77.3,69.4,73.1,69.4L73.1,69.4z"/>
		</g>
	</g>
	<g class="st1">
		<circle cx="49.9" cy="77" r="6.7"/>
		<g>
			<path d="M49.9,71.4c3.1,0,5.7,2.5,5.7,5.7s-2.5,5.7-5.7,5.7s-5.7-2.5-5.7-5.7S46.8,71.4,49.9,71.4 M49.9,69.4
				c-4.2,0-7.7,3.4-7.7,7.7s3.4,7.7,7.7,7.7c4.2,0,7.7-3.4,7.7-7.7S54.2,69.4,49.9,69.4L49.9,69.4z"/>
		</g>
	</g>
	<g class="st1">
		<polygon points="44.4,64.9 35.8,37.3 88.4,37.3 78.6,64.9 		"/>
		<g>
			<path d="M87,38.3L77.9,64H45.2l-8-25.6H87 M89.9,36.3H34.5l9.2,29.6h35.6L89.9,36.3L89.9,36.3z"/>
		</g>
	</g>
	<polyline class="st3" points="53.5,37.7 57.3,27 79.7,37.5 	"/>
	<g class="st1">
		<circle cx="73.1" cy="77" r="6.7"/>
		<g>
			<path d="M73.1,71.4c3.1,0,5.7,2.5,5.7,5.7s-2.5,5.7-5.7,5.7s-5.7-2.5-5.7-5.7C67.4,73.9,70,71.4,73.1,71.4 M73.1,69.4
				c-4.2,0-7.7,3.4-7.7,7.7c0,4.2,3.4,7.7,7.7,7.7c4.2,0,7.7-3.4,7.7-7.7C80.8,72.9,77.3,69.4,73.1,69.4L73.1,69.4z"/>
		</g>
	</g>
	<line class="st4" x1="46.8" y1="45" x2="78.7" y2="45"/>
	<line class="st4" x1="46.8" y1="51.5" x2="67.6" y2="51.5"/>
</g>
<g class="st0">
	<g class="st1">
		<g>
			<path d="M57.9,20.8c-17.7,0-32,14.3-32,32s14.3,32,32,32s32-14.3,32-32S75.6,20.8,57.9,20.8L57.9,20.8z"/>
		</g>
		<g>
			<polygon points="54.1,37.5 57.8,27.5 79,37.6 			"/>
		</g>
		<g>
			<polygon points="42,20.8 26,20.8 26,24.8 39.1,24.8 43.6,38.1 47.3,36.8 			"/>
		</g>
		<g>
			<g>
				<circle cx="73.1" cy="77" r="6.7"/>
			</g>
			<g>
				<g>
					<path d="M73.1,71.4c3.1,0,5.7,2.5,5.7,5.7c0,3.1-2.5,5.7-5.7,5.7s-5.7-2.5-5.7-5.7C67.4,73.9,70,71.4,73.1,71.4 M73.1,69.4
						c-4.2,0-7.7,3.4-7.7,7.7s3.4,7.7,7.7,7.7s7.7-3.4,7.7-7.7S77.3,69.4,73.1,69.4L73.1,69.4z"/>
				</g>
			</g>
		</g>
		<g>
			<g>
				<circle cx="49.9" cy="77" r="6.7"/>
			</g>
			<g>
				<g>
					<path d="M49.9,71.4c3.1,0,5.7,2.5,5.7,5.7c0,3.1-2.5,5.7-5.7,5.7s-5.7-2.5-5.7-5.7C44.2,73.9,46.8,71.4,49.9,71.4 M49.9,69.4
						c-4.2,0-7.7,3.4-7.7,7.7s3.4,7.7,7.7,7.7c4.2,0,7.7-3.4,7.7-7.7S54.2,69.4,49.9,69.4L49.9,69.4z"/>
				</g>
			</g>
		</g>
		<g>
			<g>
				<polygon points="44.4,64.9 35.8,37.3 88.4,37.3 78.6,64.9 				"/>
			</g>
			<g>
				<g>
					<path d="M87,38.3L77.9,64H45.2l-8-25.6H87 M89.9,36.3H34.5l9.2,29.6h35.6L89.9,36.3L89.9,36.3z"/>
				</g>
			</g>
		</g>
		<g>
			<polygon points="79.3,38.3 57.9,28.4 54.4,38 52.5,37.3 56.7,25.7 80.1,36.6 			"/>
		</g>
		<g>
			<g>
				<circle cx="73.1" cy="77" r="6.7"/>
			</g>
			<g>
				<g>
					<path d="M73.1,71.4c3.1,0,5.7,2.5,5.7,5.7s-2.5,5.7-5.7,5.7s-5.7-2.5-5.7-5.7S70,71.4,73.1,71.4 M73.1,69.4
						c-4.2,0-7.7,3.4-7.7,7.7c0,4.2,3.4,7.7,7.7,7.7c4.2,0,7.7-3.4,7.7-7.7C80.8,72.9,77.3,69.4,73.1,69.4L73.1,69.4z"/>
				</g>
			</g>
		</g>
		<g>
			<rect x="46.8" y="44" width="31.9" height="2"/>
		</g>
		<g>
			<rect x="46.8" y="50.5" width="20.8" height="2"/>
		</g>
	</g>
</g>
<g class="st0">
	<g class="st1">
		<circle cx="73.1" cy="77" r="7.7"/>
		<circle cx="49.9" cy="77" r="7.7"/>
		<path d="M43,36.3h-8.5l9.2,29.6h35.6l10.6-29.6H77.4L57.3,27l-3.4,9.3h-6.7L42,20.8H26v4h13.1L43,36.3z M46.8,44h31.9v2H46.8V44z
			 M46.8,50.5h20.8v2H46.8V50.5z"/>
	</g>
</g>
<g class="st0">
	<g class="st1">
		<polygon points="44.1,39.7 39.1,24.8 26,24.8 26,20.8 42,20.8 47.9,38.3 		"/>
		<polygon points="34.5,36.3 89.9,36.3 79.3,65.9 43.7,65.9 		"/>
		<path d="M62.2,57v-5.3c-1.6-0.5-2.8-1.3-3.6-2.2c-0.8-1-1.2-2.1-1.2-3.5c0-1.4,0.4-2.6,1.3-3.5c0.9-0.9,2-1.5,3.5-1.6v-1.3H64v1.3
			c1.3,0.2,2.4,0.6,3.2,1.4s1.3,1.8,1.5,3.1l-3.1,0.3c-0.2-1-0.7-1.7-1.5-2v5c2,0.6,3.4,1.3,4.2,2.1c0.7,0.9,1.1,2,1.1,3.4
			c0,1.5-0.5,2.8-1.4,3.9c-0.9,1.1-2.2,1.7-3.9,1.9v2.4h-1.8v-2.3c-1.5-0.2-2.7-0.7-3.6-1.6c-0.9-0.9-1.5-2.2-1.8-3.9l3.3-0.4
			c0.1,0.7,0.4,1.3,0.8,1.8C61.4,56.5,61.8,56.9,62.2,57z M62.2,43.7c-0.5,0.2-0.9,0.5-1.2,0.9c-0.3,0.4-0.4,0.9-0.4,1.4
			s0.1,0.9,0.4,1.3c0.3,0.4,0.7,0.7,1.2,0.9C62.2,48.2,62.2,43.7,62.2,43.7z M64.1,57.3c0.6-0.1,1.2-0.4,1.6-0.9
			c0.4-0.5,0.6-1,0.6-1.7c0-0.6-0.2-1.1-0.5-1.5s-0.9-0.7-1.7-0.9C64.1,52.3,64.1,57.3,64.1,57.3z"/>
		<circle cx="73.1" cy="77" r="7.7"/>
		<circle cx="49.9" cy="77" r="7.7"/>
	</g>
</g>
<g class="st0">
	<g class="st1">
		<path d="M62.3,56.4v-4.8c-1.5-0.4-2.6-1.1-3.3-1.9c-0.7-0.9-1-1.9-1-3.1c0-1.2,0.4-2.3,1.2-3.1c0.8-0.8,1.8-1.3,3.1-1.5v-1.1H64
			V42c1.2,0.1,2.2,0.6,2.9,1.2c0.7,0.6,1.2,1.6,1.4,2.7l-2.9,0.4c-0.2-0.9-0.6-1.5-1.4-1.8V49c1.8,0.5,3.1,1.1,3.7,1.9
			c0.7,0.8,1,1.8,1,3c0,1.4-0.4,2.5-1.2,3.5c-0.8,0.9-2,1.5-3.5,1.7v2.1h-1.7v-2.1c-1.3-0.2-2.4-0.6-3.2-1.5c-0.8-0.8-1.3-2-1.6-3.5
			l3-0.3c0.1,0.6,0.3,1.1,0.7,1.6C61.6,55.9,61.9,56.2,62.3,56.4z M62.3,44.5c-0.4,0.2-0.8,0.4-1.1,0.8s-0.4,0.8-0.4,1.2
			s0.1,0.8,0.4,1.1c0.2,0.3,0.6,0.6,1.1,0.8V44.5z M64,56.5c0.6-0.1,1-0.4,1.4-0.8c0.4-0.4,0.5-0.9,0.5-1.5c0-0.5-0.2-0.9-0.5-1.3
			c-0.3-0.4-0.8-0.7-1.5-0.8L64,56.5L64,56.5z"/>
	</g>
	<g class="st1">
		<polygon points="42,20.8 26,20.8 26,24.8 39.1,24.8 43.6,38.1 47.3,36.8 		"/>
	</g>
	<g class="st1">
		<path d="M73.1,71.4c3.1,0,5.7,2.5,5.7,5.7s-2.5,5.7-5.7,5.7s-5.7-2.5-5.7-5.7C67.4,73.9,70,71.4,73.1,71.4 M73.1,69.4
			c-4.2,0-7.7,3.4-7.7,7.7c0,4.2,3.4,7.7,7.7,7.7c4.2,0,7.7-3.4,7.7-7.7C80.8,72.9,77.3,69.4,73.1,69.4L73.1,69.4z"/>
	</g>
	<g class="st1">
		<path d="M49.9,71.4c3.1,0,5.7,2.5,5.7,5.7s-2.5,5.7-5.7,5.7s-5.7-2.5-5.7-5.7C44.2,73.9,46.8,71.4,49.9,71.4 M49.9,69.4
			c-4.2,0-7.7,3.4-7.7,7.7c0,4.2,3.4,7.7,7.7,7.7c4.2,0,7.7-3.4,7.7-7.7S54.2,69.4,49.9,69.4L49.9,69.4z"/>
	</g>
	<g class="st1">
		<path d="M87,38.3L77.9,64H45.2l-8-25.6H87 M89.9,36.3H34.5l9.2,29.6h35.6L89.9,36.3L89.9,36.3z"/>
	</g>
</g>
<g class="st0">
	<g class="st1">
		<path d="M61.2,55.5c-0.3-0.4-0.6-1-0.7-1.6l-3,0.3c0.2,1.5,0.8,2.7,1.6,3.5s1.9,1.3,3.2,1.5v2.1H64v-2.1c1.5-0.2,2.6-0.8,3.5-1.7
			c0.8-0.9,1.2-2.1,1.2-3.5c0-1.2-0.3-2.2-1-3S65.8,49.5,64,49v-4.6c0.7,0.3,1.2,0.9,1.4,1.8l2.9-0.4c-0.2-1.1-0.7-2-1.4-2.7
			c-0.7-0.7-1.7-1.1-2.9-1.2v-1.1h-1.7v1.1C61,42,60,42.5,59.2,43.4c-0.8,0.8-1.2,1.9-1.2,3.1s0.3,2.3,1,3.1
			c0.7,0.9,1.8,1.5,3.3,1.9v4.8C61.9,56.2,61.6,55.9,61.2,55.5z M64,52.2c0.7,0.2,1.2,0.5,1.5,0.8c0.3,0.4,0.5,0.8,0.5,1.3
			c0,0.6-0.2,1.1-0.5,1.5c-0.4,0.4-0.8,0.7-1.4,0.8L64,52.2L64,52.2z M61.2,47.5c-0.2-0.3-0.4-0.7-0.4-1.1c0-0.4,0.1-0.8,0.4-1.2
			c0.3-0.4,0.6-0.6,1.1-0.8v3.9C61.8,48.2,61.5,47.9,61.2,47.5z"/>
		<path d="M43,36.3h-8.5l9.2,29.6h35.6l10.6-29.6H47.2L42,20.8H26v4h13.1L43,36.3z M77.9,64H45.2l-8-25.6H87L77.9,64z"/>
		<path d="M80.8,77.1c0-4.2-3.4-7.7-7.7-7.7c-4.2,0-7.7,3.4-7.7,7.7c0,4.3,3.4,7.7,7.7,7.7C77.3,84.8,80.8,81.4,80.8,77.1z
			 M73.1,82.8c-3.1,0-5.7-2.5-5.7-5.7c0-3.1,2.5-5.7,5.7-5.7s5.7,2.5,5.7,5.7C78.8,80.1,76.2,82.8,73.1,82.8z"/>
		<path d="M57.6,77.1c0-4.2-3.4-7.7-7.7-7.7c-4.2,0-7.7,3.4-7.7,7.7c0,4.3,3.4,7.7,7.7,7.7S57.6,81.4,57.6,77.1z M44.2,77.1
			c0-3.1,2.5-5.7,5.7-5.7s5.7,2.5,5.7,5.7c0,3.1-2.5,5.7-5.7,5.7C46.8,82.8,44.2,80.1,44.2,77.1z"/>
	</g>
</g>
<g class="st0">
	<path class="st1" d="M57.9,20.8c-17.7,0-32,14.3-32,32s14.3,32,32,32s32-14.3,32-32S75.6,20.8,57.9,20.8L57.9,20.8z"/>
	<g class="st1">
		<polygon points="44.4,64.9 35.8,37.3 88.4,37.3 78.6,64.9 		"/>
		<g>
			<path d="M87,38.3L77.9,64H45.2l-8-25.6H87 M89.9,36.3H34.5l9.2,29.6h35.6L89.9,36.3L89.9,36.3z"/>
		</g>
	</g>
	<g class="st1">
		<path d="M62.3,56.4v-4.8c-1.5-0.4-2.6-1.1-3.3-1.9c-0.7-0.9-1-1.9-1-3.1c0-1.2,0.4-2.3,1.2-3.1c0.8-0.8,1.8-1.3,3.1-1.5v-1.1H64
			V42c1.2,0.1,2.2,0.6,2.9,1.2c0.7,0.6,1.2,1.6,1.4,2.7l-2.9,0.4c-0.2-0.9-0.6-1.5-1.4-1.8V49c1.8,0.5,3.1,1.1,3.7,1.9
			c0.7,0.8,1,1.8,1,3c0,1.4-0.4,2.5-1.2,3.5c-0.8,0.9-2,1.5-3.5,1.7v2.1h-1.7v-2.1c-1.3-0.2-2.4-0.6-3.2-1.5c-0.8-0.8-1.3-2-1.6-3.5
			l3-0.3c0.1,0.6,0.3,1.1,0.7,1.6C61.6,55.9,61.9,56.2,62.3,56.4z M62.3,44.5c-0.4,0.2-0.8,0.4-1.1,0.8s-0.4,0.8-0.4,1.2
			s0.1,0.8,0.4,1.1c0.2,0.3,0.6,0.6,1.1,0.8V44.5z M64,56.5c0.6-0.1,1-0.4,1.4-0.8c0.4-0.4,0.5-0.9,0.5-1.5c0-0.5-0.2-0.9-0.5-1.3
			c-0.3-0.4-0.8-0.7-1.5-0.8L64,56.5L64,56.5z"/>
	</g>
	<g class="st1">
		<polygon points="42,20.8 26,20.8 26,24.8 39.1,24.8 43.6,38.1 47.3,36.8 		"/>
	</g>
	<g class="st1">
		<circle cx="73.1" cy="77" r="6.7"/>
		<path d="M73.1,71.4c3.1,0,5.7,2.5,5.7,5.7s-2.5,5.7-5.7,5.7s-5.7-2.5-5.7-5.7C67.4,73.9,70,71.4,73.1,71.4 M73.1,69.4
			c-4.2,0-7.7,3.4-7.7,7.7c0,4.2,3.4,7.7,7.7,7.7c4.2,0,7.7-3.4,7.7-7.7C80.8,72.9,77.3,69.4,73.1,69.4L73.1,69.4z"/>
	</g>
	<g class="st1">
		<circle cx="49.9" cy="77" r="6.7"/>
		<path d="M49.9,71.4c3.1,0,5.7,2.5,5.7,5.7s-2.5,5.7-5.7,5.7s-5.7-2.5-5.7-5.7C44.2,73.9,46.8,71.4,49.9,71.4 M49.9,69.4
			c-4.2,0-7.7,3.4-7.7,7.7c0,4.2,3.4,7.7,7.7,7.7c4.2,0,7.7-3.4,7.7-7.7S54.2,69.4,49.9,69.4L49.9,69.4z"/>
	</g>
</g>
<g class="st0">
	<g class="st1">
		<path d="M43,36.3h-8.5l9.2,29.6h35.6l10.6-29.6H47.2L42,20.8H26v4h13.1L43,36.3z M58.6,49.5c-0.8-1-1.2-2.1-1.2-3.5
			c0-1.4,0.4-2.6,1.3-3.5c0.9-0.9,2-1.5,3.5-1.6v-1.3H64v1.3c1.3,0.2,2.4,0.6,3.2,1.4s1.3,1.8,1.5,3.1l-3.1,0.3
			c-0.2-1-0.7-1.7-1.5-2v5c2,0.6,3.4,1.3,4.2,2.1c0.7,0.9,1.1,2,1.1,3.4c0,1.5-0.5,2.8-1.4,3.9c-0.9,1.1-2.2,1.7-3.9,1.9v2.4h-1.8
			v-2.3c-1.5-0.2-2.7-0.7-3.6-1.6c-0.9-0.9-1.5-2.2-1.8-3.9l3.3-0.4c0.1,0.7,0.4,1.3,0.8,1.8c0.4,0.5,0.8,0.8,1.2,1.1v-5.3
			C60.6,51.3,59.4,50.5,58.6,49.5z"/>
		<path d="M62.2,43.7c-0.5,0.2-0.9,0.5-1.2,0.9c-0.3,0.4-0.4,0.9-0.4,1.4s0.1,0.9,0.4,1.3c0.3,0.4,0.7,0.7,1.2,0.9
			C62.2,48.2,62.2,43.7,62.2,43.7z"/>
		<path d="M66.2,54.7c0-0.6-0.2-1.1-0.5-1.5s-0.9-0.7-1.7-0.9v5c0.6-0.1,1.2-0.4,1.6-0.9C66,55.9,66.2,55.3,66.2,54.7z"/>
		<circle cx="73.1" cy="77" r="7.7"/>
		<circle cx="49.9" cy="77" r="7.7"/>
	</g>
</g>
<g class="st0">
	<g class="st1">
		<polygon points="43.2,40.3 38.4,26 25.9,26 25.9,22.2 41.2,22.2 46.9,39.1 		"/>
		<polygon points="34,37.1 86.9,37.1 76.8,65.4 42.8,65.4 		"/>
		<circle cx="70.9" cy="76" r="7.3"/>
		<circle cx="48.8" cy="76" r="7.3"/>
		<g>
			<path d="M84.7,60.8H53.4c-2.9,0-5.2-2.3-5.2-5.2V47c0-2.9,2.3-5.2,5.2-5.2h31.4c2.9,0,5.2,2.3,5.2,5.2v8.6
				C89.9,58.4,87.6,60.8,84.7,60.8z"/>
			<g>
				<path d="M54.3,53.5c0.5,0.3,1.4,0.6,2.2,0.6c0.9,0,1.4-0.4,1.4-1s-0.4-0.9-1.5-1.3c-1.5-0.5-2.5-1.3-2.5-2.6
					c0-1.5,1.3-2.7,3.4-2.7c1,0,1.8,0.2,2.3,0.5l-0.5,1.6c-0.4-0.2-1-0.4-1.9-0.4s-1.3,0.4-1.3,0.9c0,0.6,0.5,0.8,1.7,1.3
					c1.6,0.6,2.3,1.4,2.3,2.7c0,1.5-1.2,2.8-3.6,2.8c-1,0-2-0.3-2.5-0.5L54.3,53.5z"/>
				<path d="M63.6,47.2v1.9H65v1.5h-1.4v2.3c0,0.8,0.2,1.1,0.8,1.1c0.3,0,0.5,0,0.6-0.1v1.5c-0.3,0.1-0.7,0.2-1.3,0.2
					c-0.7,0-1.2-0.2-1.5-0.6c-0.4-0.4-0.6-1-0.6-1.9v-2.7h-0.9v-1.5h0.9v-1.4L63.6,47.2z"/>
				<path d="M72.5,52.2c0,2.4-1.7,3.5-3.4,3.5c-1.9,0-3.4-1.2-3.4-3.3s1.4-3.4,3.5-3.4C71.2,48.9,72.5,50.3,72.5,52.2z M67.8,52.3
					c0,1.1,0.5,2,1.3,2s1.3-0.8,1.3-2c0-1-0.4-2-1.3-2C68.2,50.4,67.8,51.4,67.8,52.3z"/>
				<path d="M73.8,51.2c0-1,0-1.6-0.1-2.1h1.7l0.1,1.2h0.1c0.3-0.9,1.1-1.3,1.8-1.3c0.2,0,0.3,0,0.4,0v1.9c-0.1,0-0.3-0.1-0.5-0.1
					c-0.7,0-1.2,0.4-1.4,1c0,0.1,0,0.3,0,0.5v3.3h-2L73.8,51.2L73.8,51.2z"/>
				<path d="M80.3,53c0.1,0.8,0.9,1.2,1.8,1.2c0.7,0,1.2-0.1,1.8-0.3l0.3,1.4c-0.7,0.3-1.5,0.4-2.3,0.4c-2.2,0-3.5-1.3-3.5-3.3
					c0-1.6,1-3.5,3.3-3.5c2.1,0,2.9,1.6,2.9,3.2c0,0.3,0,0.7-0.1,0.8L80.3,53L80.3,53z M82.6,51.5c0-0.5-0.2-1.3-1.1-1.3
					c-0.8,0-1.2,0.8-1.2,1.3H82.6z"/>
			</g>
		</g>
	</g>
</g>
<g class="st0">
	<g class="st1">
		<g>
			<polygon points="42,20.8 26,20.8 26,24.8 39.1,24.8 43.6,38.1 47.3,36.8 			"/>
		</g>
		<g>
			<path d="M73.1,71.4c3.1,0,5.7,2.5,5.7,5.7s-2.5,5.7-5.7,5.7s-5.7-2.5-5.7-5.7C67.4,73.9,70,71.4,73.1,71.4 M73.1,69.4
				c-4.2,0-7.7,3.4-7.7,7.7c0,4.2,3.4,7.7,7.7,7.7s7.7-3.4,7.7-7.7C80.8,72.9,77.3,69.4,73.1,69.4L73.1,69.4z"/>
		</g>
		<g>
			<path d="M49.9,71.4c3.1,0,5.7,2.5,5.7,5.7s-2.5,5.7-5.7,5.7s-5.7-2.5-5.7-5.7C44.2,73.9,46.8,71.4,49.9,71.4 M49.9,69.4
				c-4.2,0-7.7,3.4-7.7,7.7c0,4.2,3.4,7.7,7.7,7.7c4.2,0,7.7-3.4,7.7-7.7S54.2,69.4,49.9,69.4L49.9,69.4z"/>
		</g>
		<g>
			<path d="M87,38.3L77.9,64H45.2l-8-25.6H87 M89.9,36.3H34.5l9.2,29.6h35.6L89.9,36.3L89.9,36.3z"/>
		</g>
	</g>
	<g class="st1">
		<g>
			<path d="M53.4,59.8c-2.3,0-4.2-1.9-4.2-4.2V47c0-2.3,1.9-4.2,4.2-4.2h31.4c2.3,0,4.2,1.9,4.2,4.2v8.6c0,2.3-1.9,4.2-4.2,4.2H53.4
				z"/>
			<path d="M84.7,43.8c1.8,0,3.2,1.4,3.2,3.2v8.6c0,1.8-1.4,3.2-3.2,3.2H53.4c-1.8,0-3.2-1.4-3.2-3.2V47c0-1.8,1.4-3.2,3.2-3.2H84.7
				 M84.7,41.8H53.4c-2.9,0-5.2,2.3-5.2,5.2v8.6c0,2.9,2.3,5.2,5.2,5.2h31.4c2.9,0,5.2-2.3,5.2-5.2V47
				C89.9,44.2,87.6,41.8,84.7,41.8L84.7,41.8z"/>
		</g>
		<g>
			<g>
				<path d="M57.4,46.5c-2.1,0-3.4,1.2-3.4,2.7c0,1.3,1,2.1,2.5,2.6c1.1,0.4,1.5,0.7,1.5,1.3s-0.5,1-1.4,1s-1.7-0.3-2.2-0.6L54,55.2
					c0.5,0.3,1.5,0.5,2.5,0.5c2.5,0,3.6-1.3,3.6-2.8c0-1.3-0.7-2.1-2.3-2.7c-1.2-0.4-1.7-0.7-1.7-1.3c0-0.5,0.4-0.9,1.3-0.9
					c0.9,0,1.5,0.3,1.9,0.4l0.5-1.6C59.2,46.7,58.4,46.5,57.4,46.5L57.4,46.5z"/>
			</g>
			<g>
				<path d="M63.6,47.2l-2,0.5v1.4h-0.9v1.5h0.9v2.7c0,0.9,0.2,1.5,0.6,1.9c0.3,0.3,0.9,0.6,1.5,0.6s1-0.1,1.3-0.2v-1.5
					c-0.1,0-0.3,0.1-0.6,0.1c-0.6,0-0.8-0.4-0.8-1.1v-2.3H65v-1.5h-1.4V47.2L63.6,47.2z"/>
			</g>
			<g>
				<path d="M69.2,48.9c-2.1,0-3.5,1.3-3.5,3.4c0,2.1,1.5,3.3,3.4,3.3c1.7,0,3.4-1.1,3.4-3.5C72.5,50.3,71.2,48.9,69.2,48.9
					L69.2,48.9z M69.2,54.3c-0.9,0-1.3-0.8-1.3-2c0-1,0.4-2,1.3-2c0.9,0,1.3,1,1.3,2C70.4,53.5,69.9,54.3,69.2,54.3L69.2,54.3z"/>
			</g>
			<g>
				<path d="M77.3,48.9c-0.6,0-1.4,0.4-1.8,1.3h-0.1L75.3,49h-1.7c0,0.6,0.1,1.2,0.1,2.1v4.4h2v-3.3c0-0.2,0-0.3,0-0.5
					c0.1-0.6,0.6-1,1.4-1c0.2,0,0.4,0,0.5,0.1v-1.9C77.6,48.9,77.5,48.9,77.3,48.9L77.3,48.9z"/>
			</g>
			<g>
				<path d="M81.6,48.9c-2.3,0-3.3,1.8-3.3,3.5c0,2,1.3,3.3,3.5,3.3c0.9,0,1.7-0.1,2.3-0.4l-0.3-1.4c-0.5,0.2-1.1,0.3-1.8,0.3
					c-0.9,0-1.8-0.4-1.8-1.2h4.2c0-0.1,0.1-0.5,0.1-0.8C84.5,50.5,83.7,48.9,81.6,48.9L81.6,48.9z M80.3,51.5
					c0.1-0.5,0.4-1.3,1.2-1.3c0.9,0,1.1,0.8,1.1,1.3H80.3L80.3,51.5z"/>
			</g>
		</g>
	</g>
</g>
<g class="st0">
	<g class="st1">
		<path d="M43,36.3h-8.5l9.2,29.6h35.6l10.6-29.6H47.2L42,20.8H26v4h13.1L43,36.3z M87,38.3L77.9,64H45.2l-8-25.6H87z"/>
		<path d="M80.8,77.1c0-4.2-3.4-7.7-7.7-7.7c-4.3,0-7.7,3.4-7.7,7.7c0,4.2,3.4,7.7,7.7,7.7C77.4,84.8,80.8,81.4,80.8,77.1z
			 M67.4,77.1c0-3.1,2.5-5.7,5.7-5.7s5.7,2.5,5.7,5.7c0,3.1-2.5,5.7-5.7,5.7S67.4,80.1,67.4,77.1z"/>
		<path d="M57.6,77.1c0-4.2-3.4-7.7-7.7-7.7c-4.2,0-7.7,3.4-7.7,7.7c0,4.2,3.4,7.7,7.7,7.7S57.6,81.4,57.6,77.1z M44.2,77.1
			c0-3.1,2.5-5.7,5.7-5.7s5.7,2.5,5.7,5.7c0,3.1-2.5,5.7-5.7,5.7C46.8,82.8,44.2,80.1,44.2,77.1z"/>
		<path d="M61.5,41.3l-11,19h21.9L61.5,41.3z M61.5,45.3l7.5,13H54L61.5,45.3z"/>
	</g>
</g>
<g class="st0">
	<path class="st1" d="M57.9,20.8c-17.7,0-32,14.3-32,32s14.3,32,32,32s32-14.3,32-32S75.6,20.8,57.9,20.8L57.9,20.8z"/>
	<g class="st1">
		<polygon points="42,20.8 26,20.8 26,24.8 39.1,24.8 43.6,38.1 47.3,36.8 		"/>
	</g>
	<g class="st1">
		<circle cx="73.1" cy="77" r="6.7"/>
		<path d="M73.1,71.4c3.1,0,5.7,2.5,5.7,5.7s-2.5,5.7-5.7,5.7s-5.7-2.5-5.7-5.7C67.4,73.9,70,71.4,73.1,71.4 M73.1,69.4
			c-4.2,0-7.7,3.4-7.7,7.7c0,4.2,3.4,7.7,7.7,7.7s7.7-3.4,7.7-7.7C80.8,72.9,77.3,69.4,73.1,69.4L73.1,69.4z"/>
	</g>
	<g class="st1">
		<circle cx="49.9" cy="77" r="6.7"/>
		<path d="M49.9,71.4c3.1,0,5.7,2.5,5.7,5.7s-2.5,5.7-5.7,5.7s-5.7-2.5-5.7-5.7C44.2,73.9,46.8,71.4,49.9,71.4 M49.9,69.4
			c-4.2,0-7.7,3.4-7.7,7.7c0,4.2,3.4,7.7,7.7,7.7c4.2,0,7.7-3.4,7.7-7.7S54.2,69.4,49.9,69.4L49.9,69.4z"/>
	</g>
	<g class="st1">
		<polygon points="44.4,64.9 35.8,37.3 88.4,37.3 78.6,64.9 		"/>
		<g>
			<path d="M87,38.3L77.9,64H45.2l-8-25.6H87 M89.9,36.3H34.5l9.2,29.6h35.6L89.9,36.3L89.9,36.3z"/>
		</g>
	</g>
	<g class="st1">
		<path d="M53.4,59.8c-2.3,0-4.2-1.9-4.2-4.2V47c0-2.3,1.9-4.2,4.2-4.2h31.4c2.3,0,4.2,1.9,4.2,4.2v8.6c0,2.3-1.9,4.2-4.2,4.2H53.4z
			"/>
		<path d="M84.7,43.8c1.8,0,3.2,1.4,3.2,3.2v8.6c0,1.8-1.4,3.2-3.2,3.2H53.4c-1.8,0-3.2-1.4-3.2-3.2V47c0-1.8,1.4-3.2,3.2-3.2H84.7
			 M84.7,41.8H53.4c-2.9,0-5.2,2.3-5.2,5.2v8.6c0,2.9,2.3,5.2,5.2,5.2h31.4c2.9,0,5.2-2.3,5.2-5.2V47C89.9,44.2,87.6,41.8,84.7,41.8
			L84.7,41.8z"/>
	</g>
	<g class="st1">
		<path d="M57.4,46.5c-2.1,0-3.4,1.2-3.4,2.7c0,1.3,1,2.1,2.5,2.6c1.1,0.4,1.5,0.7,1.5,1.3s-0.5,1-1.4,1s-1.7-0.3-2.2-0.6L54,55.2
			c0.5,0.3,1.5,0.5,2.5,0.5c2.5,0,3.6-1.3,3.6-2.8c0-1.3-0.7-2.1-2.3-2.7c-1.2-0.4-1.7-0.7-1.7-1.3c0-0.5,0.4-0.9,1.3-0.9
			c0.9,0,1.5,0.3,1.9,0.4l0.5-1.6C59.2,46.7,58.4,46.5,57.4,46.5L57.4,46.5z"/>
	</g>
	<g class="st1">
		<path d="M63.6,47.2l-2,0.5v1.4h-0.9v1.5h0.9v2.7c0,0.9,0.2,1.5,0.6,1.9c0.3,0.3,0.9,0.6,1.5,0.6s1-0.1,1.3-0.2v-1.5
			c-0.1,0-0.3,0.1-0.6,0.1c-0.6,0-0.8-0.4-0.8-1.1v-2.3H65v-1.5h-1.4V47.2L63.6,47.2z"/>
	</g>
	<g class="st1">
		<path d="M69.2,48.9c-2.1,0-3.5,1.3-3.5,3.4c0,2.1,1.5,3.3,3.4,3.3c1.7,0,3.4-1.1,3.4-3.5C72.5,50.3,71.2,48.9,69.2,48.9L69.2,48.9
			z M69.2,54.3c-0.9,0-1.3-0.8-1.3-2c0-1,0.4-2,1.3-2c0.9,0,1.3,1,1.3,2C70.4,53.5,69.9,54.3,69.2,54.3L69.2,54.3z"/>
	</g>
	<g class="st1">
		<path d="M77.3,48.9c-0.6,0-1.4,0.4-1.8,1.3h-0.1L75.3,49h-1.7c0,0.6,0.1,1.2,0.1,2.1v4.4h2v-3.3c0-0.2,0-0.3,0-0.5
			c0.1-0.6,0.6-1,1.4-1c0.2,0,0.4,0,0.5,0.1v-1.9C77.6,48.9,77.5,48.9,77.3,48.9L77.3,48.9z"/>
	</g>
	<g class="st1">
		<path d="M81.6,48.9c-2.3,0-3.3,1.8-3.3,3.5c0,2,1.3,3.3,3.5,3.3c0.9,0,1.7-0.1,2.3-0.4l-0.3-1.4c-0.5,0.2-1.1,0.3-1.8,0.3
			c-0.9,0-1.8-0.4-1.8-1.2h4.2c0-0.1,0.1-0.5,0.1-0.8C84.5,50.5,83.7,48.9,81.6,48.9L81.6,48.9z M80.3,51.5c0.1-0.5,0.4-1.3,1.2-1.3
			c0.9,0,1.1,0.8,1.1,1.3H80.3L80.3,51.5z"/>
	</g>
</g>
<g class="st0">
	<g class="st1">
		<path d="M42.2,37.1H34l8.8,28.3h34l10.1-28.3H46.2l-5-14.9H25.9V26h12.5L42.2,37.1z M72.6,48.5c2.1,0,2.9,1.6,2.9,3.2
			c0,0.3,0,0.7-0.1,0.8h-4.2c0.1,0.8,0.9,1.2,1.8,1.2c0.7,0,1.2-0.1,1.8-0.3l0.3,1.4c-0.7,0.3-1.5,0.4-2.3,0.4
			c-2.2,0-3.5-1.3-3.5-3.3C69.3,50.4,70.4,48.5,72.6,48.5z M66.5,48.7l0.1,1.2l0,0c0.3-0.9,1.1-1.3,1.8-1.3c0.2,0,0.3,0,0.4,0v1.9
			c-0.2,0-0.4,0-0.6,0c-0.7,0-1.2,0.4-1.4,1c0,0.1,0,0.3,0,0.5v3.3h-2v-4.4c0-1,0-1.6-0.1-2.1L66.5,48.7L66.5,48.7z M60.2,48.5
			c2,0,3.3,1.4,3.3,3.3c0,2.4-1.7,3.5-3.4,3.5c-1.9,0-3.4-1.2-3.4-3.3C56.7,49.9,58.1,48.5,60.2,48.5z M51.7,48.7h0.9v-1.4l2-0.5
			v1.9H56v1.5h-1.4v2.3c0,0.8,0.2,1.1,0.8,1.1c0.3,0,0.5,0,0.6-0.1V55c-0.3,0.1-0.7,0.2-1.3,0.2c-0.7,0-1.2-0.2-1.5-0.6
			c-0.4-0.4-0.6-1-0.6-1.9V50h-0.9C51.7,50.2,51.7,48.7,51.7,48.7z M47.5,51.5C46,51,45,50.2,45,48.9c0-1.5,1.3-2.7,3.4-2.7
			c1,0,1.8,0.2,2.3,0.5l-0.5,1.6c-0.4-0.2-1-0.4-1.9-0.4c-0.9,0-1.3,0.4-1.3,0.9c0,0.6,0.5,0.8,1.7,1.3c1.6,0.6,2.3,1.4,2.3,2.7
			c0,1.5-1.2,2.8-3.6,2.8c-1,0-2-0.3-2.5-0.5l0.4-1.7c0.5,0.3,1.4,0.6,2.2,0.6c0.9,0,1.4-0.4,1.4-1C49,52.2,48.6,51.9,47.5,51.5z"/>
		<circle cx="70.9" cy="76" r="7.3"/>
		<circle cx="48.8" cy="76" r="7.3"/>
		<path d="M60.2,53.9c0.8,0,1.3-0.8,1.3-2c0-1-0.4-2-1.3-2c-1,0-1.3,1-1.3,2C58.8,53,59.3,53.9,60.2,53.9z"/>
		<path d="M72.5,49.9c-0.8,0-1.2,0.8-1.2,1.3h2.3C73.6,50.8,73.4,49.9,72.5,49.9z"/>
	</g>
</g>
<g class="st0">
	<g class="st1">
		<polygon points="44.1,39.7 39.1,24.8 26,24.8 26,20.8 42,20.8 47.9,38.3 		"/>
		<polygon points="34.5,36.3 89.9,36.3 79.3,65.9 43.7,65.9 		"/>
		<circle cx="73.1" cy="77" r="7.7"/>
		<circle cx="49.9" cy="77" r="7.7"/>
		<g>
			<g>
				<polygon points="66.2,59.4 50.4,43.3 66.2,27.4 81.4,27.4 65.6,43.3 81.4,59.4 				"/>
			</g>
		</g>
	</g>
</g>
<g class="st0">
	<g class="st1">
		<g>
			<polygon points="42,20.8 26,20.8 26,24.8 39.1,24.8 43.6,38.1 47.3,36.8 			"/>
		</g>
		<g>
			<path d="M73.1,71.4c3.1,0,5.7,2.5,5.7,5.7s-2.5,5.7-5.7,5.7c-3.1,0-5.7-2.5-5.7-5.7C67.4,73.9,70,71.4,73.1,71.4 M73.1,69.4
				c-4.2,0-7.7,3.4-7.7,7.7c0,4.2,3.4,7.7,7.7,7.7c4.2,0,7.7-3.4,7.7-7.7C80.8,72.9,77.3,69.4,73.1,69.4L73.1,69.4z"/>
		</g>
		<g>
			<path d="M49.9,71.4c3.1,0,5.7,2.5,5.7,5.7s-2.5,5.7-5.7,5.7s-5.7-2.5-5.7-5.7C44.2,73.9,46.8,71.4,49.9,71.4 M49.9,69.4
				c-4.2,0-7.7,3.4-7.7,7.7c0,4.2,3.4,7.7,7.7,7.7c4.2,0,7.7-3.4,7.7-7.7S54.2,69.4,49.9,69.4L49.9,69.4z"/>
		</g>
		<g>
			<path d="M87,38.3L77.9,64H45.2l-8-25.6H87 M89.9,36.3H34.5l9.2,29.6h35.6L89.9,36.3L89.9,36.3z"/>
		</g>
	</g>
	<g class="st1">
		<polygon points="63.6,58.4 48.8,43.3 63.6,28.4 76,28.4 61.2,43.3 76,58.4 		"/>
		<path d="M73.6,29.4L61.1,42l-1.4,1.4l1.4,1.4l12.5,12.6h-9.5l-13.8-14l13.8-14L73.6,29.4 M78.4,27.4H63.2l-15.8,16l15.8,16h15.2
			l-15.8-16L78.4,27.4L78.4,27.4z"/>
	</g>
</g>
<g class="st0">
	<g class="st1">
		<path d="M43,36.3h-8.5l9.2,29.6h35.6l10.6-29.6H69.5l8.9-9H63.2l-8.9,9h-7.1L42,20.8H26v4h13.1L43,36.3z M64.1,29.4h9.5L61.1,42
			l-1.4,1.4l1.4,1.4l12.5,12.6h-9.5l-13.8-14L64.1,29.4z M47.4,43.3l15.8,16h15.2l-15.8-16l5-5h19.5L78,64H45.2l-8-25.6h15.2
			L47.4,43.3z"/>
		<path d="M80.8,77.1c0-4.2-3.4-7.7-7.7-7.7c-4.2,0-7.7,3.4-7.7,7.7c0,4.2,3.4,7.7,7.7,7.7C77.4,84.8,80.8,81.4,80.8,77.1z
			 M67.4,77.1c0-3.1,2.5-5.7,5.7-5.7s5.7,2.5,5.7,5.7c0,3.1-2.5,5.7-5.7,5.7C70,82.8,67.4,80.1,67.4,77.1z"/>
		<path d="M57.6,77.1c0-4.2-3.4-7.7-7.7-7.7c-4.2,0-7.7,3.4-7.7,7.7c0,4.2,3.4,7.7,7.7,7.7S57.6,81.4,57.6,77.1z M44.2,77.1
			c0-3.1,2.5-5.7,5.7-5.7s5.7,2.5,5.7,5.7c0,3.1-2.5,5.7-5.7,5.7S44.2,80.1,44.2,77.1z"/>
	</g>
</g>
<g class="st0">
	<path class="st1" d="M57.9,20.8c-17.7,0-32,14.3-32,32s14.3,32,32,32s32-14.3,32-32S75.6,20.8,57.9,20.8L57.9,20.8z"/>
	<g class="st1">
		<polygon points="42,20.8 26,20.8 26,24.8 39.1,24.8 43.6,38.1 47.3,36.8 		"/>
	</g>
	<g class="st1">
		<circle cx="73.1" cy="77" r="6.7"/>
		<g>
			<path d="M73.1,71.4c3.1,0,5.7,2.5,5.7,5.7s-2.5,5.7-5.7,5.7c-3.1,0-5.7-2.5-5.7-5.7C67.4,73.9,70,71.4,73.1,71.4 M73.1,69.4
				c-4.2,0-7.7,3.4-7.7,7.7c0,4.2,3.4,7.7,7.7,7.7c4.2,0,7.7-3.4,7.7-7.7C80.8,72.9,77.3,69.4,73.1,69.4L73.1,69.4z"/>
		</g>
	</g>
	<g class="st1">
		<circle cx="49.9" cy="77" r="6.7"/>
		<g>
			<path d="M49.9,71.4c3.1,0,5.7,2.5,5.7,5.7s-2.5,5.7-5.7,5.7s-5.7-2.5-5.7-5.7C44.2,73.9,46.8,71.4,49.9,71.4 M49.9,69.4
				c-4.2,0-7.7,3.4-7.7,7.7c0,4.2,3.4,7.7,7.7,7.7c4.2,0,7.7-3.4,7.7-7.7S54.2,69.4,49.9,69.4L49.9,69.4z"/>
		</g>
	</g>
	<g class="st1">
		<polygon points="44.4,64.9 35.8,37.3 88.4,37.3 78.6,64.9 		"/>
		<g>
			<path d="M87,38.3L77.9,64H45.2l-8-25.6H87 M89.9,36.3H34.5l9.2,29.6h35.6L89.9,36.3L89.9,36.3z"/>
		</g>
	</g>
	<g class="st1">
		<polygon points="63.6,58.4 48.8,43.3 63.6,28.4 76,28.4 61.2,43.3 76,58.4 		"/>
		<path d="M73.6,29.4L61.1,42l-1.4,1.4l1.4,1.4l12.5,12.6h-9.5l-13.8-14l13.8-14L73.6,29.4 M78.4,27.4H63.2l-15.8,16l15.8,16h15.2
			l-15.8-16L78.4,27.4L78.4,27.4z"/>
	</g>
</g>
<g class="st0">
	<g class="st1">
		<path d="M43,36.3h-8.5l9.2,29.6h35.6l10.6-29.6H47.2L42,20.8H26v4h13.1L43,36.3z M60.4,41.5h9.1L60,51l9.5,9.6h-9.1L51,51
			L60.4,41.5z"/>
		<circle cx="73.1" cy="77" r="7.7"/>
		<circle cx="49.9" cy="77" r="7.7"/>
	</g>
</g>
<g>
	<g>
		<path class="st5" d="M78.1,49.4H48.5c-1,0-1.9,0.8-1.9,1.9c0,1,0.8,1.9,1.9,1.9h16.6v5.5c0,4.1,3.3,7.4,7.4,7.4
			c4.1,0,7.4-3.3,7.4-7.4v-7.4C80,50.2,79.1,49.4,78.1,49.4z M72.6,62.4c-2,0-3.7-1.7-3.7-3.7v-5.5h7.4v5.5
			C76.3,60.7,74.6,62.4,72.6,62.4z"/>
		<path class="st5" d="M39.8,41.5c0.4,0.4,0.8,0.5,1.3,0.5s0.9-0.2,1.3-0.5l2.4-2.4l2.4,2.4c0.4,0.4,0.8,0.5,1.3,0.5
			s0.9-0.2,1.3-0.5c0.7-0.7,0.7-1.9,0-2.6l-2.4-2.4l2.4-2.4c0.7-0.7,0.7-1.9,0-2.6c-0.7-0.7-1.9-0.7-2.6,0l-2.4,2.4l-2.4-2.4
			c-0.7-0.7-1.9-0.7-2.6,0c-0.7,0.7-0.7,1.9,0,2.6l2.4,2.4l-2.4,2.4C39.1,39.6,39.1,40.7,39.8,41.5z"/>
		<path class="st5" d="M76.8,41.5c0.4,0.4,0.8,0.5,1.3,0.5c0.5,0,0.9-0.2,1.3-0.5l2.4-2.4l2.4,2.4c0.4,0.4,0.8,0.5,1.3,0.5
			c0.5,0,0.9-0.2,1.3-0.5c0.7-0.7,0.7-1.9,0-2.6l-2.4-2.4l2.4-2.4c0.7-0.7,0.7-1.9,0-2.6c-0.7-0.7-1.9-0.7-2.6,0l-2.4,2.4l-2.4-2.4
			c-0.7-0.7-1.9-0.7-2.6,0s-0.7,1.9,0,2.6l2.4,2.4l-2.4,2.4C76.1,39.6,76.1,40.7,76.8,41.5z"/>
	</g>
	<path class="st6" d="M7.7,109.3l27.6-27.6C53.1,96.2,79.4,95,95.9,78.5c8.7-8.7,13.4-20,13.4-32.2s-4.7-23.6-13.4-32.2
		c-8.5-8.8-20-13.5-32.2-13.5S40.2,5.4,31.6,14.1c-8.7,8.7-13.4,20-13.4,32.2c0,10.5,3.5,20.5,10,28.6L0.7,102.3L7.7,109.3z
		 M28.1,46.2c0-9.6,3.7-18.4,10.5-25.2s15.7-10.5,25.2-10.5S82.2,14.3,89,21c6.7,6.7,10.5,15.7,10.5,25.2c0,9.6-3.7,18.4-10.5,25.2
		c-13.8,13.9-36.5,13.9-50.4,0C31.8,64.7,28.1,55.8,28.1,46.2z"/>
</g>
</svg>
