<?xml version="1.0" encoding="utf-8"?>
<!-- Generator: Adobe Illustrator 23.0.1, SVG Export Plug-In . SVG Version: 6.00 Build 0)  -->
<svg version="1.1" id="Layer_1" xmlns="http://www.w3.org/2000/svg" xmlns:xlink="http://www.w3.org/1999/xlink" x="0px" y="0px"
	 viewBox="0 0 100 100" style="enable-background:new 0 0 100 100;" xml:space="preserve">
<path d="M48.8,0.8L9,17.4c-1,0.4-1.7,1.4-1.7,2.6v36.9c0,23.5,19.2,42.7,42.7,42.7s42.7-19.2,42.7-42.7V19.9c0-1.1-0.7-2.1-1.7-2.6
	L51,0.8C50.2,0.5,49.6,0.5,48.8,0.8z M87,56.8c0,20.4-16.6,37.1-37.1,37.1S12.8,77.3,12.8,56.8v-35L49.9,6.4L87,21.8V56.8z
	 M37.3,41.5v5c-2.7,0.6-4.8,3-4.8,5.9v12.3c0,3.3,2.8,6.1,6.1,6.1h22.6c3.3,0,6.1-2.8,6.1-6.1V52.5c0-2.9-2-5.3-4.8-5.9v-5
	C62.6,34.6,56.9,29,50,29S37.3,34.6,37.3,41.5z M61.7,64.8c0,0.3-0.2,0.6-0.6,0.6H38.6c-0.3,0-0.6-0.2-0.6-0.6V52.6
	c0-0.3,0.2-0.6,0.6-0.6h22.6c0.3,0,0.6,0.2,0.6,0.6v12.3H61.7z M56.9,41.5v4.8h-14v-4.8c0-3.9,3.1-7,7-7S56.9,37.8,56.9,41.5z"/>
</svg>
