<?xml version="1.0" encoding="utf-8"?>
<!-- Generator: Adobe Illustrator 23.0.3, SVG Export Plug-In . SVG Version: 6.00 Build 0)  -->
<svg version="1.1" id="Layer_1" xmlns="http://www.w3.org/2000/svg" xmlns:xlink="http://www.w3.org/1999/xlink" x="0px" y="0px"
	 viewBox="0 0 100 100" style="enable-background:new 0 0 100 100;" xml:space="preserve">
<style type="text/css">
	.st0{fill:#ED4036;}
</style>
<path class="st0" d="M93.7,1.3L88,7c-7.2-4.9-17.2-4.1-23.6,2.2L41.2,32.5l-6.4-6.4c-1.4-1.4-3.6-1.4-5,0L15.6,40.3
	c-1.4,1.4-1.4,3.6,0,5l6.4,6.4L10.2,63.4c-0.7,0.7-1,1.6-1,2.5s0.4,1.8,1,2.5l8.1,8.1L12,83c-1.4,1.4-1.4,3.6,0,5s3.6,1.4,5,0
	l6.4-6.4l5.6,5.6l-5.3,5.3H8.9L6.4,90c-1.4-1.4-3.6-1.4-5,0s-1.4,3.6,0,5L5,98.6c0.7,0.7,1.6,1,2.5,1h17.8c0.9,0,1.8-0.4,2.5-1
	c7.6-7.6,13-13,20.6-20.6l6.4,6.4c1.4,1.4,3.6,1.4,5,0L74,70.2c1.4-1.4,1.4-3.6,0-5l-6.4-6.4l23.3-23.3c6.4-6.4,7.2-16.3,2.3-23.6
	l5.7-5.7c1.4-1.4,1.4-3.6,0-5C97.4-0.1,95.1-0.1,93.7,1.3z M34.1,82.2L17.8,65.9l9.2-9.2L43.2,73L34.1,82.2z M57.2,76.9
	c-15.4-15.4-19-19-34.1-34.1l9.2-9.2c15.4,15.4,19,19,34.1,34.1L57.2,76.9z M85.8,30.5L62.5,53.8L46.2,37.5l23.3-23.3
	c4.5-4.5,11.7-4.5,16.2-0.1l0.1,0.1l0,0l0,0C90.3,18.8,90.3,26,85.8,30.5z"/>
<path class="st0" d="M78.5,32.2c-0.9,0-1.8-0.3-2.5-1L68.9,24c-1.4-1.4-1.4-3.6,0-5s3.6-1.4,5,0l7.1,7.1c1.4,1.4,1.4,3.6,0,5
	C80.3,31.8,79.4,32.2,78.5,32.2z"/>
<path class="st0" d="M67.8,42.8c-0.9,0-1.8-0.3-2.5-1l-7.1-7.1c-1.4-1.4-1.4-3.6,0-5s3.6-1.4,5,0l7.1,7.1c1.4,1.4,1.4,3.6,0,5
	C69.6,42.5,68.7,42.8,67.8,42.8z"/>
</svg>
