<?xml version="1.0" encoding="utf-8"?>
<!-- Generator: Adobe Illustrator 23.0.1, SVG Export Plug-In . SVG Version: 6.00 Build 0)  -->
<svg version="1.1" id="Layer_1" xmlns="http://www.w3.org/2000/svg" xmlns:xlink="http://www.w3.org/1999/xlink" x="0px" y="0px"
	 viewBox="0 0 100 100" style="enable-background:new 0 0 100 100;" xml:space="preserve">
<style type="text/css">
	.st0{fill:#ED4036;}
	.st1{fill:#E0E0E0;}
</style>
<g>
	<path class="st0" d="M50,53.3c-10,0-18.1,8.1-18.1,18.1S40,89.5,50,89.5s18.1-8.1,18.1-18.1S60,53.3,50,53.3z M50,85.1
		c-7.6,0-13.7-6.2-13.7-13.7S42.4,57.6,50,57.6s13.7,6.2,13.7,13.7S57.6,85.1,50,85.1z"/>
	<path class="st0" d="M51.8,70.9v-5.7c0-1.2-1-2.2-2.2-2.2c-1.2,0-2.2,1-2.2,2.2v6.6c0,0.6,0.2,1.1,0.6,1.5l3.3,3.3
		c0.4,0.4,1,0.6,1.5,0.6s1.1-0.2,1.5-0.6c0.9-0.9,0.9-2.2,0-3.1L51.8,70.9z"/>
	<path class="st1" d="M98.9,29.3c0-0.1,0-0.1,0-0.2c0,0,0,0,0-0.1c0-0.1,0-0.1,0-0.2c0,0,0,0,0-0.1c0,0,0-0.1-0.1-0.2c0,0,0,0,0,0
		l-12-24.3c-0.4-0.7-1.1-1.2-2-1.2H15.2c-0.8,0-1.6,0.5-2,1.2l-12,24.3c0,0,0,0,0,0c0,0,0,0.1-0.1,0.2c0,0,0,0,0,0.1
		c0,0,0,0.1,0,0.2c0,0,0,0,0,0.1c0,0.1,0,0.1,0,0.2c0,0,0,0,0,0.1c0,0.1,0,0.2,0,0.2v65.1c0,1.2,1,2.2,2.2,2.2h93.6
		c1.2,0,2.2-1,2.2-2.2V29.6C99,29.5,99,29.4,98.9,29.3C99,29.3,99,29.3,98.9,29.3z M93.3,27.4H64.9L61.3,7.5h22.2L93.3,27.4z
		 M39.1,31.8h21.8v11.4l-0.5-0.5c-0.4-0.4-1-0.7-1.6-0.7c-0.6,0-1.2,0.2-1.6,0.7l-2.9,2.9l-2.8-2.9c-0.4-0.4-1-0.7-1.6-0.7
		c-0.6,0-1.2,0.2-1.6,0.7l-2.8,2.9l-2.9-2.9c-0.4-0.4-1-0.7-1.6-0.7c-0.6,0-1.2,0.2-1.6,0.7l-0.5,0.5V31.8z M56.9,7.5l3.6,19.9h-21
		l3.6-19.9H56.9z M16.5,7.5h22.2l-3.6,19.9H6.7L16.5,7.5z M5.4,92.5V31.8h29.4v16.9c0,0.9,0.5,1.7,1.4,2c0.8,0.3,1.8,0.1,2.4-0.5
		l2.7-2.9l2.8,2.9c0.4,0.4,1,0.7,1.5,0.7l0,0c0.6,0,1.2-0.2,1.5-0.7l2.8-2.9l2.8,2.9c0.4,0.4,1,0.7,1.5,0.7l0,0
		c0.6,0,1.2-0.2,1.5-0.7l2.8-2.9l2.7,2.9c0.4,0.4,1,0.7,1.6,0.7c0.3,0,0.5,0,0.8-0.2c0.8-0.3,1.4-1.1,1.4-2V31.8h29.4v60.8H5.4z"/>
</g>
</svg>
