<?xml version="1.0" encoding="utf-8"?>
<!-- Generator: Adobe Illustrator 22.1.0, SVG Export Plug-In . SVG Version: 6.00 Build 0)  -->
<svg version="1.1" id="Layer_1" xmlns="http://www.w3.org/2000/svg" xmlns:xlink="http://www.w3.org/1999/xlink" x="0px" y="0px"
	 viewBox="0 0 100 100" style="enable-background:new 0 0 100 100;" xml:space="preserve">
<style type="text/css">
	.st0{fill:#37363D;}
</style>
<g>
	<path class="st0" d="M97,98.8h-8.8c0-21-17.1-38.2-38.2-38.2S11.8,77.7,11.8,98.8H3c0-26,21.2-47,47-47C76,51.8,97,72.8,97,98.8z"
		/>
	<path class="st0" d="M50,60.2c-16.3,0-29.5-13.2-29.5-29.5S33.7,1.2,50,1.2s29.3,13.2,29.3,29.5S66.1,60.2,50,60.2z M50,10.1
		c-11.3,0-20.7,9.2-20.7,20.7S38.5,51.4,50,51.4s20.5-9.4,20.5-20.7S61.3,10.1,50,10.1z"/>
</g>
</svg>
