<?xml version="1.0" encoding="utf-8"?>
<!-- Generator: Adobe Illustrator 23.0.3, SVG Export Plug-In . SVG Version: 6.00 Build 0)  -->
<svg version="1.1" id="Layer_1" xmlns="http://www.w3.org/2000/svg" xmlns:xlink="http://www.w3.org/1999/xlink" x="0px" y="0px"
	 viewBox="0 0 64 51.6" style="enable-background:new 0 0 64 51.6;" xml:space="preserve">
<style type="text/css">
	.st0{fill:#D3D3D3;}
	.st1{fill:#37363C;}
	.st2{fill:#ED4036;}
</style>
<circle class="st0" cx="10.7" cy="47.8" r="3.4"/>
<path class="st1" d="M15,42H8.2c-1.9,0-3.7,0.7-5.1,1.9L3,44.1c-0.1,0.1-0.2,0.2-0.3,0.3h1v2.3H1.1c0,0,0,0.1-0.1,0.1
	c-0.3,0.7-0.6,1.4-0.7,2.2h4.8c-0.6-3.1,1.4-6,4.4-6.7c3.1-0.6,6,1.4,6.7,4.4c0.1,0.3,0.1,0.8,0.1,1.1s0,0.7-0.1,1h2.3V42H15z"/>
<path class="st1" d="M42.6,37.9c-2.8-0.9-5.8-1.5-8.7-1.5h-0.7v3.4h7.5L42.6,37.9z"/>
<path class="st1" d="M20.7,48.8h7.5l2.7-2.7V42H20.7V48.8z M24.1,44.4h4.5v2.3h-4.5V44.4z"/>
<path class="st0" d="M54.1,15l1.7-2.6v-5l-0.1,0.2c-0.2,0.3-0.6,0.6-1,0.6h-4.5c-0.2,0-0.3,0-0.6-0.1l0,0l0,0
	c-0.1-0.1-0.2-0.1-0.3-0.2c0,0,0,0-0.1-0.1c0,0,0,0,0-0.1L49,7.4v5l1.7,2.6H54.1z"/>
<path class="st1" d="M30.9,39.8v-3.4c-4.2,0.1-8.3,1.4-11.9,3.4H30.9z"/>
<polygon class="st1" points="54,5.9 55.6,3.1 54.7,1.5 52.1,5.9 "/>
<polygon class="st2" points="52.8,0.4 50.8,0.4 49.2,3.1 50.2,4.8 "/>
<path class="st0" d="M53.6,28.6c-0.8,0.1-1.5,0.1-2.3,0v11.1l0.5,0.2l1.8,0.7V28.6z"/>
<path class="st1" d="M55.8,46.6h-1.1v-2.3h1.1V44l-5-1.9c0,0-0.1,0-0.1-0.1l-3.9-2.2c-0.6-0.3-1.1-0.6-1.7-0.9
	c-0.1,0-0.2-0.1-0.3-0.1l-2.9,2.9c-0.2,0.2-0.5,0.3-0.8,0.3h-7.9v4.5c0,0.3-0.1,0.6-0.3,0.8l-1.5,1.5h10.1c-0.6-3.1,1.4-6,4.4-6.7
	c3.1-0.6,6,1.4,6.7,4.4c0.1,0.3,0.1,0.8,0.1,1.1s0,0.7-0.1,1h1.7l1.6-1.6C55.8,47.1,55.8,46.6,55.8,46.6z"/>
<path class="st2" d="M58.1,5.1v7.6c0,0.2-0.1,0.5-0.2,0.7l-2.3,3.4c-0.2,0.2-0.6,0.5-0.9,0.5h-4.5c-0.3,0-0.7-0.2-0.9-0.5L47,13.4
	c-0.1-0.2-0.2-0.5-0.2-0.7V5.1c-5.4,3.2-7.3,10.1-4.2,15.4c0.7,1.1,1.6,2.3,2.6,3.1c0.3,0.2,0.7,0.6,1,0.8c0.3,0.2,0.6,0.6,0.6,0.9
	v11.8c0.5,0.2,0.8,0.3,1.2,0.6l1,0.6V27c0-0.7,0.5-1.1,1.1-1.1c0.1,0,0.1,0,0.2,0c1.4,0.2,2.7,0.2,4.1,0c0.6-0.1,1.2,0.3,1.4,0.9
	c0,0.1,0,0.1,0,0.2v14.3l1.6,0.6c0.5,0.2,0.7,0.6,0.7,1V25.4c0-0.3,0.2-0.8,0.6-0.9c5.2-3.4,6.7-10.4,3.3-15.6
	C60.9,7.3,59.7,6,58.1,5.1z M52.4,24c-4,0-7.5-2.6-8.7-6.5c-0.2-0.6,0.2-1.2,0.8-1.4c0.6-0.2,1.2,0.1,1.4,0.8c1,3.6,4.9,5.7,8.5,4.5
	c2.2-0.7,4-2.4,4.5-4.5c0.2-0.6,0.8-0.9,1.4-0.8c0.6,0.2,0.9,0.8,0.8,1.4C59.9,21.4,56.4,24,52.4,24z"/>
<circle class="st0" cx="47" cy="47.8" r="3.4"/>
</svg>
