<?xml version="1.0" encoding="utf-8"?>
<!-- Generator: Adobe Illustrator 23.0.1, SVG Export Plug-In . SVG Version: 6.00 Build 0)  -->
<svg version="1.1" id="WhatsApp_Logo" xmlns="http://www.w3.org/2000/svg" xmlns:xlink="http://www.w3.org/1999/xlink" x="0px"
	 y="0px" viewBox="0 0 130 130" style="enable-background:new 0 0 130 130;" xml:space="preserve">
<style type="text/css">
	.st0{fill:#FFFFFF;}
	.st1{fill:url(#shape_3_1_);}
	.st2{fill:url(#SVGID_1_);}
	.st3{fill-rule:evenodd;clip-rule:evenodd;fill:#FFFFFF;}
</style>
<g>
	<g id="shape_4">
		
			<image style="overflow:visible;opacity:6.000000e-02;enable-background:new    ;" width="497" height="496" xlink:href="5970F7F0.png"  transform="matrix(0.2915 0 0 0.2915 -7.4265 -7.2808)">
		</image>
		<g>
			
				<image style="overflow:visible;opacity:0.15;enable-background:new    ;" width="438" height="440" xlink:href="5970F7F1.png"  transform="matrix(0.2915 0 0 0.2915 1.0257 0.5885)">
			</image>
			<g>
				<path class="st0" d="M3.7,124.8l8.6-31.5C7,84.1,4.2,73.6,4.2,62.9C4.2,29.4,31.5,2.1,65,2.1c16.3,0,31.5,6.3,43,17.8
					c11.5,11.5,17.8,26.8,17.8,43c0,33.5-27.3,60.8-60.8,60.8l0,0h0c-10.2,0-20.2-2.6-29.1-7.4L3.7,124.8z M37.4,105.3l1.8,1.1
					c7.8,4.6,16.6,7,25.7,7.1h0c27.8,0,50.5-22.6,50.5-50.5c0-13.5-5.2-26.2-14.8-35.7C91.2,17.7,78.5,12.4,65,12.4
					c-27.9,0-50.5,22.6-50.5,50.5c0,9.5,2.7,18.8,7.7,26.9l1.2,1.9l-5.1,18.6L37.4,105.3z"/>
			</g>
		</g>
	</g>
	
		<linearGradient id="shape_3_1_" gradientUnits="userSpaceOnUse" x1="64.731" y1="27.6114" x2="64.731" y2="146.0004" gradientTransform="matrix(1 0 0 -1 0 150.25)">
		<stop  offset="0" style="stop-color:#20B038"/>
		<stop  offset="1" style="stop-color:#60D66A"/>
	</linearGradient>
	<path id="shape_3" class="st1" d="M5.8,122.6l8.3-30.4c-5.1-8.9-7.8-19-7.8-29.3C6.3,30.6,32.7,4.2,65,4.2
		c15.7,0,30.4,6.1,41.5,17.2s17.2,25.8,17.2,41.5c0,32.4-26.3,58.7-58.7,58.7l0,0h0c-9.8,0-19.5-2.5-28-7.1L5.8,122.6z"/>
	<g id="shape_2">
		
			<image style="overflow:visible;opacity:4.000000e-02;enable-background:new    ;" width="444" height="446" xlink:href="5970F7F7.png"  transform="matrix(0.2915 0 0 0.2915 0.1513 -1.1602)">
		</image>
		<g>
			<g>
				
					<linearGradient id="SVGID_1_" gradientUnits="userSpaceOnUse" x1="64.7456" y1="25.4838" x2="64.7456" y2="148.128" gradientTransform="matrix(1 0 0 -1 0 150.25)">
					<stop  offset="0" style="stop-color:#F9F9F9"/>
					<stop  offset="1" style="stop-color:#FFFFFF"/>
				</linearGradient>
				<path class="st2" d="M3.7,124.8l8.6-31.5C7,84.1,4.2,73.6,4.2,62.9C4.2,29.4,31.5,2.1,65,2.1c16.3,0,31.5,6.3,43,17.8
					c11.5,11.5,17.8,26.8,17.8,43c0,33.5-27.3,60.8-60.8,60.8l0,0h0c-10.2,0-20.2-2.6-29.1-7.4L3.7,124.8z M37.4,105.3l1.8,1.1
					c7.8,4.6,16.6,7,25.7,7.1h0c27.8,0,50.5-22.6,50.5-50.5c0-13.5-5.2-26.2-14.8-35.7C91.2,17.7,78.5,12.4,65,12.4
					c-27.9,0-50.5,22.6-50.5,50.5c0,9.5,2.7,18.8,7.7,26.9l1.2,1.9l-5.1,18.6L37.4,105.3z"/>
			</g>
		</g>
	</g>
	<g id="shape_1">
		
			<image style="overflow:visible;opacity:6.000000e-02;enable-background:new    ;" width="237" height="221" xlink:href="5970F7F2.png"  transform="matrix(0.2915 0 0 0.2915 30.4626 31.7742)">
		</image>
		<g>
			<path class="st3" d="M49.8,37.5c-1.1-2.5-2.3-2.6-3.4-2.6c-0.9,0-1.9,0-2.9,0s-2.7,0.4-4.1,1.9c-1.4,1.5-5.3,5.2-5.3,12.7
				c0,7.5,5.5,14.7,6.2,15.7c0.8,1,10.5,16.8,25.9,22.9c12.8,5.1,15.4,4.1,18.2,3.8s9-3.7,10.3-7.2c1.3-3.6,1.3-6.6,0.9-7.2
				c-0.4-0.6-1.4-1-2.9-1.8c-1.5-0.8-9-4.4-10.4-5c-1.4-0.5-2.4-0.8-3.4,0.8c-1,1.5-3.9,4.9-4.8,5.9c-0.9,1-1.8,1.1-3.3,0.4
				c-1.5-0.8-6.4-2.4-12.2-7.5c-4.5-4-7.6-9-8.5-10.5c-0.9-1.5-0.1-2.3,0.7-3.1c0.7-0.7,1.5-1.8,2.3-2.7c0.8-0.9,1-1.5,1.5-2.5
				s0.3-1.9-0.1-2.7C54.1,48,51.2,40.5,49.8,37.5z"/>
		</g>
	</g>
</g>
</svg>
