<?xml version="1.0" encoding="utf-8"?>
<!-- Generator: Adobe Illustrator 23.0.1, SVG Export Plug-In . SVG Version: 6.00 Build 0)  -->
<svg version="1.1" id="Layer_1" xmlns="http://www.w3.org/2000/svg" xmlns:xlink="http://www.w3.org/1999/xlink" x="0px" y="0px"
	 viewBox="0 0 100 100" style="enable-background:new 0 0 100 100;" xml:space="preserve">
<style type="text/css">
	.st0{fill:#EDEDED;}
	.st1{fill:#EE4036;}
	.st2{fill:#37363C;}
</style>
<title>76 all</title>
<g>
	<path class="st0" d="M66.4,49.5c1.1,0,2-0.9,2-2V15.5c0-5.5-4.5-10-10-10H31.9c-0.1,0-0.3,0-0.4,0l-0.3,0.1h-0.1
		c-0.1,0-0.2,0.1-0.3,0.1h-0.1c-0.1,0.1-0.2,0.2-0.3,0.3L10.3,26.4c-0.1,0.1-0.2,0.2-0.3,0.3v0.1C10,26.9,9.9,27,9.9,27
		c0,0,0,0.1,0,0.1c-0.1,0.2-0.1,0.4-0.1,0.6v39c0,5.5,4.5,10,10,10h19.7c1.1,0,2-0.9,2-2s-0.9-2-2-2H19.7c-3.3,0-6-2.7-6-6v-37h15.2
		c2.8,0,5-2.2,5-5V9.5h24.4c3.3,0,6,2.7,6,6v31.9C64.3,48.6,65.2,49.5,66.4,49.5C66.4,49.5,66.4,49.5,66.4,49.5z M28.9,25.8H16.5
		l13.4-13.4v12.4C29.9,25.4,29.5,25.8,28.9,25.8z"/>
	<path class="st1" d="M53.6,37.7H24.5c-1.1,0-2,0.9-2,2s0.9,2,2,2h29.1c1.1,0,2-0.9,2-2S54.7,37.7,53.6,37.7z"/>
	<path class="st2" d="M86.4,59.5c-5.1-5-13.3-5-18.3,0c-5.1-5-13.3-5-18.3,0c-5,5-5.1,13.1-0.2,18.1c0,0.1,0.1,0.1,0.2,0.2l17,16.1
		c0.8,0.7,2,0.7,2.8,0l17-16.1c5-5,5.1-13.1,0.1-18.1C86.5,59.6,86.4,59.6,86.4,59.5L86.4,59.5z M83.6,74.9L68,89.7L52.5,74.9
		c-3.5-3.4-3.5-9-0.1-12.5c0,0,0.1-0.1,0.1-0.1c3.5-3.5,9.2-3.5,12.7,0c0.4,0.4,0.8,0.9,1.1,1.4c0.4,0.6,1,0.9,1.7,0.9l0,0
		c0.7,0,1.3-0.3,1.7-0.9c0.3-0.5,0.7-1,1.1-1.4c3.5-3.5,9.2-3.5,12.7,0l0,0C87,65.8,87,71.4,83.6,74.9
		C83.6,74.9,83.6,74.9,83.6,74.9L83.6,74.9z"/>
	<path class="st1" d="M55.6,50.7c0-1.1-0.9-2-2-2H24.5c-1.1,0-2,0.9-2,2s0.9,2,2,2h29.1C54.7,52.7,55.6,51.8,55.6,50.7z"/>
	<path class="st1" d="M24.5,59.7c-1.1,0-2,0.9-2,2s0.9,2,2,2h15.1c1.1,0,2-0.9,2-2s-0.9-2-2-2H24.5z"/>
</g>
</svg>
